<svg xmlns="http://www.w3.org/2000/svg" xmlns:xlink="http://www.w3.org/1999/xlink" contentStyleType="text/css" height="649px" preserveAspectRatio="none" style="width:620px;height:649px;background:#FFFFFF;" version="1.1" viewBox="0 0 620 649" width="620px" zoomAndPan="magnify"><title>Sistema Transporte P&#250;blico</title><defs/><g><text fill="#000000" font-family="sans-serif" font-size="14" font-weight="bold" lengthAdjust="spacing" textLength="217.8818" x="194.0591" y="22.9951">Sistema Transporte P&#250;blico</text><!--cluster Sistema Transporte P?blico--><g id="cluster_Sistema Transporte P&#250;blico"><path d="M8.5,43.2969 L227.3818,43.2969 A3.75,3.75 0 0 1 229.8818,45.7969 L236.8818,65.5938 L610.5,65.5938 A2.5,2.5 0 0 1 613,68.0938 L613,639.7969 A2.5,2.5 0 0 1 610.5,642.2969 L8.5,642.2969 A2.5,2.5 0 0 1 6,639.7969 L6,45.7969 A2.5,2.5 0 0 1 8.5,43.2969 " fill="none" style="stroke:#000000;stroke-width:1.5;"/><line style="stroke:#000000;stroke-width:1.5;" x1="6" x2="236.8818" y1="65.5938" y2="65.5938"/><text fill="#000000" font-family="sans-serif" font-size="14" font-weight="bold" lengthAdjust="spacing" textLength="217.8818" x="10" y="58.292">Sistema Transporte P&#250;blico</text></g><!--class Persona--><g id="elem_Persona"><rect codeLine="3" fill="#F1F1F1" height="48" id="Persona" rx="2.5" ry="2.5" style="stroke:#181818;stroke-width:0.5;" width="88.123" x="311" y="578.2969"/><ellipse cx="326" cy="594.2969" fill="#ADD1B2" rx="11" ry="11" style="stroke:#181818;stroke-width:1.0;"/><path d="M328.9688,599.9375 Q328.3906,600.2344 327.75,600.375 Q327.1094,600.5313 326.4063,600.5313 Q323.9063,600.5313 322.5781,598.8906 Q321.2656,597.2344 321.2656,594.1094 Q321.2656,590.9844 322.5781,589.3281 Q323.9063,587.6719 326.4063,587.6719 Q327.1094,587.6719 327.75,587.8281 Q328.4063,587.9844 328.9688,588.2813 L328.9688,591 Q328.3438,590.4219 327.75,590.1563 Q327.1563,589.875 326.5313,589.875 Q325.1875,589.875 324.5,590.9531 Q323.8125,592.0156 323.8125,594.1094 Q323.8125,596.2031 324.5,597.2813 Q325.1875,598.3438 326.5313,598.3438 Q327.1563,598.3438 327.75,598.0781 Q328.3438,597.7969 328.9688,597.2188 L328.9688,599.9375 Z " fill="#000000"/><text fill="#000000" font-family="sans-serif" font-size="14" lengthAdjust="spacing" textLength="56.123" x="340" y="599.1436">Persona</text><line style="stroke:#181818;stroke-width:0.5;" x1="312" x2="398.123" y1="610.2969" y2="610.2969"/><line style="stroke:#181818;stroke-width:0.5;" x1="312" x2="398.123" y1="618.2969" y2="618.2969"/></g><!--class Pasajeros--><g id="elem_Pasajeros"><rect codeLine="5" fill="#F1F1F1" height="48" id="Pasajeros" rx="2.5" ry="2.5" style="stroke:#181818;stroke-width:0.5;" width="99.0127" x="298.5" y="453.2969"/><ellipse cx="313.5" cy="469.2969" fill="#ADD1B2" rx="11" ry="11" style="stroke:#181818;stroke-width:1.0;"/><path d="M316.4688,474.9375 Q315.8906,475.2344 315.25,475.375 Q314.6094,475.5313 313.9063,475.5313 Q311.4063,475.5313 310.0781,473.8906 Q308.7656,472.2344 308.7656,469.1094 Q308.7656,465.9844 310.0781,464.3281 Q311.4063,462.6719 313.9063,462.6719 Q314.6094,462.6719 315.25,462.8281 Q315.9063,462.9844 316.4688,463.2813 L316.4688,466 Q315.8438,465.4219 315.25,465.1563 Q314.6563,464.875 314.0313,464.875 Q312.6875,464.875 312,465.9531 Q311.3125,467.0156 311.3125,469.1094 Q311.3125,471.2031 312,472.2813 Q312.6875,473.3438 314.0313,473.3438 Q314.6563,473.3438 315.25,473.0781 Q315.8438,472.7969 316.4688,472.2188 L316.4688,474.9375 Z " fill="#000000"/><text fill="#000000" font-family="sans-serif" font-size="14" lengthAdjust="spacing" textLength="67.0127" x="327.5" y="474.1436">Pasajeros</text><line style="stroke:#181818;stroke-width:0.5;" x1="299.5" x2="396.5127" y1="485.2969" y2="485.2969"/><line style="stroke:#181818;stroke-width:0.5;" x1="299.5" x2="396.5127" y1="493.2969" y2="493.2969"/></g><!--class Tarifas--><g id="elem_Tarifas"><rect codeLine="7" fill="#F1F1F1" height="48" id="Tarifas" rx="2.5" ry="2.5" style="stroke:#181818;stroke-width:0.5;" width="79.5781" x="450" y="578.2969"/><ellipse cx="465" cy="594.2969" fill="#ADD1B2" rx="11" ry="11" style="stroke:#181818;stroke-width:1.0;"/><path d="M467.9688,599.9375 Q467.3906,600.2344 466.75,600.375 Q466.1094,600.5313 465.4063,600.5313 Q462.9063,600.5313 461.5781,598.8906 Q460.2656,597.2344 460.2656,594.1094 Q460.2656,590.9844 461.5781,589.3281 Q462.9063,587.6719 465.4063,587.6719 Q466.1094,587.6719 466.75,587.8281 Q467.4063,587.9844 467.9688,588.2813 L467.9688,591 Q467.3438,590.4219 466.75,590.1563 Q466.1563,589.875 465.5313,589.875 Q464.1875,589.875 463.5,590.9531 Q462.8125,592.0156 462.8125,594.1094 Q462.8125,596.2031 463.5,597.2813 Q464.1875,598.3438 465.5313,598.3438 Q466.1563,598.3438 466.75,598.0781 Q467.3438,597.7969 467.9688,597.2188 L467.9688,599.9375 Z " fill="#000000"/><text fill="#000000" font-family="sans-serif" font-size="14" lengthAdjust="spacing" textLength="47.5781" x="479" y="599.1436">Tarifas</text><line style="stroke:#181818;stroke-width:0.5;" x1="451" x2="528.5781" y1="610.2969" y2="610.2969"/><line style="stroke:#181818;stroke-width:0.5;" x1="451" x2="528.5781" y1="618.2969" y2="618.2969"/></g><!--class M?todosPago--><g id="elem_M&#233;todosPago"><rect codeLine="9" fill="#F1F1F1" height="48" id="M&#233;todosPago" rx="2.5" ry="2.5" style="stroke:#181818;stroke-width:0.5;" width="125.9668" x="471" y="453.2969"/><ellipse cx="486" cy="469.2969" fill="#ADD1B2" rx="11" ry="11" style="stroke:#181818;stroke-width:1.0;"/><path d="M488.9688,474.9375 Q488.3906,475.2344 487.75,475.375 Q487.1094,475.5313 486.4063,475.5313 Q483.9063,475.5313 482.5781,473.8906 Q481.2656,472.2344 481.2656,469.1094 Q481.2656,465.9844 482.5781,464.3281 Q483.9063,462.6719 486.4063,462.6719 Q487.1094,462.6719 487.75,462.8281 Q488.4063,462.9844 488.9688,463.2813 L488.9688,466 Q488.3438,465.4219 487.75,465.1563 Q487.1563,464.875 486.5313,464.875 Q485.1875,464.875 484.5,465.9531 Q483.8125,467.0156 483.8125,469.1094 Q483.8125,471.2031 484.5,472.2813 Q485.1875,473.3438 486.5313,473.3438 Q487.1563,473.3438 487.75,473.0781 Q488.3438,472.7969 488.9688,472.2188 L488.9688,474.9375 Z " fill="#000000"/><text fill="#000000" font-family="sans-serif" font-size="14" lengthAdjust="spacing" textLength="93.9668" x="500" y="474.1436">M&#233;todosPago</text><line style="stroke:#181818;stroke-width:0.5;" x1="472" x2="595.9668" y1="485.2969" y2="485.2969"/><line style="stroke:#181818;stroke-width:0.5;" x1="472" x2="595.9668" y1="493.2969" y2="493.2969"/></g><!--class Abonos--><g id="elem_Abonos"><rect codeLine="11" fill="#F1F1F1" height="48" id="Abonos" rx="2.5" ry="2.5" style="stroke:#181818;stroke-width:0.5;" width="83.7617" x="513" y="328.2969"/><ellipse cx="528" cy="344.2969" fill="#ADD1B2" rx="11" ry="11" style="stroke:#181818;stroke-width:1.0;"/><path d="M530.9688,349.9375 Q530.3906,350.2344 529.75,350.375 Q529.1094,350.5313 528.4063,350.5313 Q525.9063,350.5313 524.5781,348.8906 Q523.2656,347.2344 523.2656,344.1094 Q523.2656,340.9844 524.5781,339.3281 Q525.9063,337.6719 528.4063,337.6719 Q529.1094,337.6719 529.75,337.8281 Q530.4063,337.9844 530.9688,338.2813 L530.9688,341 Q530.3438,340.4219 529.75,340.1563 Q529.1563,339.875 528.5313,339.875 Q527.1875,339.875 526.5,340.9531 Q525.8125,342.0156 525.8125,344.1094 Q525.8125,346.2031 526.5,347.2813 Q527.1875,348.3438 528.5313,348.3438 Q529.1563,348.3438 529.75,348.0781 Q530.3438,347.7969 530.9688,347.2188 L530.9688,349.9375 Z " fill="#000000"/><text fill="#000000" font-family="sans-serif" font-size="14" lengthAdjust="spacing" textLength="51.7617" x="542" y="349.1436">Abonos</text><line style="stroke:#181818;stroke-width:0.5;" x1="514" x2="595.7617" y1="360.2969" y2="360.2969"/><line style="stroke:#181818;stroke-width:0.5;" x1="514" x2="595.7617" y1="368.2969" y2="368.2969"/></g><!--class Conductor--><g id="elem_Conductor"><rect codeLine="13" fill="#F1F1F1" height="48" id="Conductor" rx="2.5" ry="2.5" style="stroke:#181818;stroke-width:0.5;" width="104.4814" x="414" y="78.2969"/><ellipse cx="429" cy="94.2969" fill="#ADD1B2" rx="11" ry="11" style="stroke:#181818;stroke-width:1.0;"/><path d="M431.9688,99.9375 Q431.3906,100.2344 430.75,100.375 Q430.1094,100.5313 429.4063,100.5313 Q426.9063,100.5313 425.5781,98.8906 Q424.2656,97.2344 424.2656,94.1094 Q424.2656,90.9844 425.5781,89.3281 Q426.9063,87.6719 429.4063,87.6719 Q430.1094,87.6719 430.75,87.8281 Q431.4063,87.9844 431.9688,88.2813 L431.9688,91 Q431.3438,90.4219 430.75,90.1563 Q430.1563,89.875 429.5313,89.875 Q428.1875,89.875 427.5,90.9531 Q426.8125,92.0156 426.8125,94.1094 Q426.8125,96.2031 427.5,97.2813 Q428.1875,98.3438 429.5313,98.3438 Q430.1563,98.3438 430.75,98.0781 Q431.3438,97.7969 431.9688,97.2188 L431.9688,99.9375 Z " fill="#000000"/><text fill="#000000" font-family="sans-serif" font-size="14" lengthAdjust="spacing" textLength="72.4814" x="443" y="99.1436">Conductor</text><line style="stroke:#181818;stroke-width:0.5;" x1="415" x2="517.4814" y1="110.2969" y2="110.2969"/><line style="stroke:#181818;stroke-width:0.5;" x1="415" x2="517.4814" y1="118.2969" y2="118.2969"/></g><!--class Veh?culo--><g id="elem_Veh&#237;culo"><rect codeLine="15" fill="#F1F1F1" height="48" id="Veh&#237;culo" rx="2.5" ry="2.5" style="stroke:#181818;stroke-width:0.5;" width="91.9785" x="349" y="203.2969"/><ellipse cx="364" cy="219.2969" fill="#ADD1B2" rx="11" ry="11" style="stroke:#181818;stroke-width:1.0;"/><path d="M366.9688,224.9375 Q366.3906,225.2344 365.75,225.375 Q365.1094,225.5313 364.4063,225.5313 Q361.9063,225.5313 360.5781,223.8906 Q359.2656,222.2344 359.2656,219.1094 Q359.2656,215.9844 360.5781,214.3281 Q361.9063,212.6719 364.4063,212.6719 Q365.1094,212.6719 365.75,212.8281 Q366.4063,212.9844 366.9688,213.2813 L366.9688,216 Q366.3438,215.4219 365.75,215.1563 Q365.1563,214.875 364.5313,214.875 Q363.1875,214.875 362.5,215.9531 Q361.8125,217.0156 361.8125,219.1094 Q361.8125,221.2031 362.5,222.2813 Q363.1875,223.3438 364.5313,223.3438 Q365.1563,223.3438 365.75,223.0781 Q366.3438,222.7969 366.9688,222.2188 L366.9688,224.9375 Z " fill="#000000"/><text fill="#000000" font-family="sans-serif" font-size="14" lengthAdjust="spacing" textLength="59.9785" x="378" y="224.1436">Veh&#237;culo</text><line style="stroke:#181818;stroke-width:0.5;" x1="350" x2="439.9785" y1="235.2969" y2="235.2969"/><line style="stroke:#181818;stroke-width:0.5;" x1="350" x2="439.9785" y1="243.2969" y2="243.2969"/></g><!--class Ruta--><g id="elem_Ruta"><rect codeLine="17" fill="#F1F1F1" height="48" id="Ruta" rx="2.5" ry="2.5" style="stroke:#181818;stroke-width:0.5;" width="64.6689" x="248.5" y="203.2969"/><ellipse cx="263.5" cy="219.2969" fill="#ADD1B2" rx="11" ry="11" style="stroke:#181818;stroke-width:1.0;"/><path d="M266.4688,224.9375 Q265.8906,225.2344 265.25,225.375 Q264.6094,225.5313 263.9063,225.5313 Q261.4063,225.5313 260.0781,223.8906 Q258.7656,222.2344 258.7656,219.1094 Q258.7656,215.9844 260.0781,214.3281 Q261.4063,212.6719 263.9063,212.6719 Q264.6094,212.6719 265.25,212.8281 Q265.9063,212.9844 266.4688,213.2813 L266.4688,216 Q265.8438,215.4219 265.25,215.1563 Q264.6563,214.875 264.0313,214.875 Q262.6875,214.875 262,215.9531 Q261.3125,217.0156 261.3125,219.1094 Q261.3125,221.2031 262,222.2813 Q262.6875,223.3438 264.0313,223.3438 Q264.6563,223.3438 265.25,223.0781 Q265.8438,222.7969 266.4688,222.2188 L266.4688,224.9375 Z " fill="#000000"/><text fill="#000000" font-family="sans-serif" font-size="14" lengthAdjust="spacing" textLength="32.6689" x="277.5" y="224.1436">Ruta</text><line style="stroke:#181818;stroke-width:0.5;" x1="249.5" x2="312.1689" y1="235.2969" y2="235.2969"/><line style="stroke:#181818;stroke-width:0.5;" x1="249.5" x2="312.1689" y1="243.2969" y2="243.2969"/></g><!--class Horarios--><g id="elem_Horarios"><rect codeLine="19" fill="#F1F1F1" height="48" id="Horarios" rx="2.5" ry="2.5" style="stroke:#181818;stroke-width:0.5;" width="90.9326" x="82.5" y="328.2969"/><ellipse cx="97.5" cy="344.2969" fill="#ADD1B2" rx="11" ry="11" style="stroke:#181818;stroke-width:1.0;"/><path d="M100.4688,349.9375 Q99.8906,350.2344 99.25,350.375 Q98.6094,350.5313 97.9063,350.5313 Q95.4063,350.5313 94.0781,348.8906 Q92.7656,347.2344 92.7656,344.1094 Q92.7656,340.9844 94.0781,339.3281 Q95.4063,337.6719 97.9063,337.6719 Q98.6094,337.6719 99.25,337.8281 Q99.9063,337.9844 100.4688,338.2813 L100.4688,341 Q99.8438,340.4219 99.25,340.1563 Q98.6563,339.875 98.0313,339.875 Q96.6875,339.875 96,340.9531 Q95.3125,342.0156 95.3125,344.1094 Q95.3125,346.2031 96,347.2813 Q96.6875,348.3438 98.0313,348.3438 Q98.6563,348.3438 99.25,348.0781 Q99.8438,347.7969 100.4688,347.2188 L100.4688,349.9375 Z " fill="#000000"/><text fill="#000000" font-family="sans-serif" font-size="14" lengthAdjust="spacing" textLength="58.9326" x="111.5" y="349.1436">Horarios</text><line style="stroke:#181818;stroke-width:0.5;" x1="83.5" x2="172.4326" y1="360.2969" y2="360.2969"/><line style="stroke:#181818;stroke-width:0.5;" x1="83.5" x2="172.4326" y1="368.2969" y2="368.2969"/></g><!--class Paradas--><g id="elem_Paradas"><rect codeLine="21" fill="#F1F1F1" height="48" id="Paradas" rx="2.5" ry="2.5" style="stroke:#181818;stroke-width:0.5;" width="88.1162" x="125" y="203.2969"/><ellipse cx="140" cy="219.2969" fill="#ADD1B2" rx="11" ry="11" style="stroke:#181818;stroke-width:1.0;"/><path d="M142.9688,224.9375 Q142.3906,225.2344 141.75,225.375 Q141.1094,225.5313 140.4063,225.5313 Q137.9063,225.5313 136.5781,223.8906 Q135.2656,222.2344 135.2656,219.1094 Q135.2656,215.9844 136.5781,214.3281 Q137.9063,212.6719 140.4063,212.6719 Q141.1094,212.6719 141.75,212.8281 Q142.4063,212.9844 142.9688,213.2813 L142.9688,216 Q142.3438,215.4219 141.75,215.1563 Q141.1563,214.875 140.5313,214.875 Q139.1875,214.875 138.5,215.9531 Q137.8125,217.0156 137.8125,219.1094 Q137.8125,221.2031 138.5,222.2813 Q139.1875,223.3438 140.5313,223.3438 Q141.1563,223.3438 141.75,223.0781 Q142.3438,222.7969 142.9688,222.2188 L142.9688,224.9375 Z " fill="#000000"/><text fill="#000000" font-family="sans-serif" font-size="14" lengthAdjust="spacing" textLength="56.1162" x="154" y="224.1436">Paradas</text><line style="stroke:#181818;stroke-width:0.5;" x1="126" x2="212.1162" y1="235.2969" y2="235.2969"/><line style="stroke:#181818;stroke-width:0.5;" x1="126" x2="212.1162" y1="243.2969" y2="243.2969"/></g><!--class Flota--><g id="elem_Flota"><rect codeLine="23" fill="#F1F1F1" height="48" id="Flota" rx="2.5" ry="2.5" style="stroke:#181818;stroke-width:0.5;" width="66.5762" x="22.5" y="203.2969"/><ellipse cx="37.5" cy="219.2969" fill="#ADD1B2" rx="11" ry="11" style="stroke:#181818;stroke-width:1.0;"/><path d="M40.4688,224.9375 Q39.8906,225.2344 39.25,225.375 Q38.6094,225.5313 37.9063,225.5313 Q35.4063,225.5313 34.0781,223.8906 Q32.7656,222.2344 32.7656,219.1094 Q32.7656,215.9844 34.0781,214.3281 Q35.4063,212.6719 37.9063,212.6719 Q38.6094,212.6719 39.25,212.8281 Q39.9063,212.9844 40.4688,213.2813 L40.4688,216 Q39.8438,215.4219 39.25,215.1563 Q38.6563,214.875 38.0313,214.875 Q36.6875,214.875 36,215.9531 Q35.3125,217.0156 35.3125,219.1094 Q35.3125,221.2031 36,222.2813 Q36.6875,223.3438 38.0313,223.3438 Q38.6563,223.3438 39.25,223.0781 Q39.8438,222.7969 40.4688,222.2188 L40.4688,224.9375 Z " fill="#000000"/><text fill="#000000" font-family="sans-serif" font-size="14" lengthAdjust="spacing" textLength="34.5762" x="51.5" y="224.1436">Flota</text><line style="stroke:#181818;stroke-width:0.5;" x1="23.5" x2="88.0762" y1="235.2969" y2="235.2969"/><line style="stroke:#181818;stroke-width:0.5;" x1="23.5" x2="88.0762" y1="243.2969" y2="243.2969"/></g><!--class Servicio--><g id="elem_Servicio"><rect codeLine="25" fill="#F1F1F1" height="48" id="Servicio" rx="2.5" ry="2.5" style="stroke:#181818;stroke-width:0.5;" width="87.583" x="93" y="78.2969"/><ellipse cx="108" cy="94.2969" fill="#ADD1B2" rx="11" ry="11" style="stroke:#181818;stroke-width:1.0;"/><path d="M110.9688,99.9375 Q110.3906,100.2344 109.75,100.375 Q109.1094,100.5313 108.4063,100.5313 Q105.9063,100.5313 104.5781,98.8906 Q103.2656,97.2344 103.2656,94.1094 Q103.2656,90.9844 104.5781,89.3281 Q105.9063,87.6719 108.4063,87.6719 Q109.1094,87.6719 109.75,87.8281 Q110.4063,87.9844 110.9688,88.2813 L110.9688,91 Q110.3438,90.4219 109.75,90.1563 Q109.1563,89.875 108.5313,89.875 Q107.1875,89.875 106.5,90.9531 Q105.8125,92.0156 105.8125,94.1094 Q105.8125,96.2031 106.5,97.2813 Q107.1875,98.3438 108.5313,98.3438 Q109.1563,98.3438 109.75,98.0781 Q110.3438,97.7969 110.9688,97.2188 L110.9688,99.9375 Z " fill="#000000"/><text fill="#000000" font-family="sans-serif" font-size="14" lengthAdjust="spacing" textLength="55.583" x="122" y="99.1436">Servicio</text><line style="stroke:#181818;stroke-width:0.5;" x1="94" x2="179.583" y1="110.2969" y2="110.2969"/><line style="stroke:#181818;stroke-width:0.5;" x1="94" x2="179.583" y1="118.2969" y2="118.2969"/></g><!--class Incidencia--><g id="elem_Incidencia"><rect fill="#F1F1F1" height="48" id="Incidencia" rx="2.5" ry="2.5" style="stroke:#181818;stroke-width:0.5;" width="103.1279" x="337.5" y="328.2969"/><ellipse cx="352.5" cy="344.2969" fill="#ADD1B2" rx="11" ry="11" style="stroke:#181818;stroke-width:1.0;"/><path d="M355.4688,349.9375 Q354.8906,350.2344 354.25,350.375 Q353.6094,350.5313 352.9063,350.5313 Q350.4063,350.5313 349.0781,348.8906 Q347.7656,347.2344 347.7656,344.1094 Q347.7656,340.9844 349.0781,339.3281 Q350.4063,337.6719 352.9063,337.6719 Q353.6094,337.6719 354.25,337.8281 Q354.9063,337.9844 355.4688,338.2813 L355.4688,341 Q354.8438,340.4219 354.25,340.1563 Q353.6563,339.875 353.0313,339.875 Q351.6875,339.875 351,340.9531 Q350.3125,342.0156 350.3125,344.1094 Q350.3125,346.2031 351,347.2813 Q351.6875,348.3438 353.0313,348.3438 Q353.6563,348.3438 354.25,348.0781 Q354.8438,347.7969 355.4688,347.2188 L355.4688,349.9375 Z " fill="#000000"/><text fill="#000000" font-family="sans-serif" font-size="14" lengthAdjust="spacing" textLength="71.1279" x="366.5" y="349.1436">Incidencia</text><line style="stroke:#181818;stroke-width:0.5;" x1="338.5" x2="439.6279" y1="360.2969" y2="360.2969"/><line style="stroke:#181818;stroke-width:0.5;" x1="338.5" x2="439.6279" y1="368.2969" y2="368.2969"/></g><!--link Pasajeros to Persona--><g id="link_Pasajeros_Persona"><path codeLine="28" d="M348.8,501.3169 C349.32,514.9769 350.07,532.6369 351,548.2969 C351.58,558.0569 350.9646,550.881 351.6846,560.141 " fill="none" id="Pasajeros-to-Persona" style="stroke:#181818;stroke-width:1.0;"/><polygon fill="none" points="353.08,578.0869,357.6666,559.6759,345.7027,560.6062,353.08,578.0869" style="stroke:#181818;stroke-width:1.0;"/></g><!--link Conductor to Persona--><g id="link_Conductor_Persona"><path codeLine="29" d="M492.45,126.6269 C511.41,145.2169 535.4,173.0869 546,203.2969 C553.06,223.4269 552.06,230.8469 546,251.2969 C534.41,290.4169 513.75,291.5569 496,328.2969 C470.51,381.0669 470.52,397.0669 454,453.2969 C441.72,495.0769 454.64,512.3969 430,548.2969 C421.88,560.1269 425.0235,559.976 413.2935,568.056 " fill="none" id="Conductor-to-Persona" style="stroke:#181818;stroke-width:1.0;"/><polygon fill="none" points="398.47,578.2669,416.6972,572.9971,409.8899,563.1148,398.47,578.2669" style="stroke:#181818;stroke-width:1.0;"/></g><!--link Pasajeros to Tarifas--><g id="link_Pasajeros_Tarifas"><path codeLine="30" d="M374.71,501.4369 C400.1,523.4269 433.525,552.3783 458.875,574.3383 " fill="none" id="Pasajeros-to-Tarifas" style="stroke:#181818;stroke-width:1.0;"/><polygon fill="#181818" points="463.41,578.2669,459.2265,569.3507,459.6308,574.9931,453.9884,575.3974,463.41,578.2669" style="stroke:#181818;stroke-width:1.0;"/><text fill="#000000" font-family="sans-serif" font-size="13" lengthAdjust="spacing" textLength="40.6758" x="428" y="544.3638">pagan</text></g><!--link M?todosPago to Tarifas--><g id="link_M&#233;todosPago_Tarifas"><path codeLine="31" d="M525.72,501.4369 C517.86,523.4269 508.1096,550.657 500.2596,572.617 " fill="none" id="M&#233;todosPago-to-Tarifas" style="stroke:#181818;stroke-width:1.0;"/><polygon fill="#181818" points="498.24,578.2669,505.0361,571.1385,499.923,573.5587,497.5029,568.4456,498.24,578.2669" style="stroke:#181818;stroke-width:1.0;"/><text fill="#000000" font-family="sans-serif" font-size="13" lengthAdjust="spacing" textLength="75.6323" x="515" y="544.3638">se emplean</text></g><!--link Abonos to M?todosPago--><g id="link_Abonos_M&#233;todosPago"><path codeLine="32" d="M551.05,376.4369 C547.3,398.4269 544.7099,413.5637 540.9599,435.5237 " fill="none" id="Abonos-to-M&#233;todosPago" style="stroke:#181818;stroke-width:1.0;"/><polygon fill="none" points="537.93,453.2669,546.8743,436.5337,535.0455,434.5137,537.93,453.2669" style="stroke:#181818;stroke-width:1.0;"/></g><!--link Conductor to Veh?culo--><g id="link_Conductor_Veh&#237;culo"><path codeLine="33" d="M452.65,126.4369 C439.95,148.4269 423.9702,176.1109 411.2902,198.0709 " fill="none" id="Conductor-to-Veh&#237;culo" style="stroke:#181818;stroke-width:1.0;"/><polygon fill="#181818" points="408.29,203.2669,416.2544,197.473,410.7902,198.9369,409.3264,193.4727,408.29,203.2669" style="stroke:#181818;stroke-width:1.0;"/><text fill="#000000" font-family="sans-serif" font-size="13" lengthAdjust="spacing" textLength="54.9771" x="435" y="169.3638">conduce</text></g><!--link Conductor to Ruta--><g id="link_Conductor_Ruta"><path codeLine="34" d="M428.56,126.4369 C413.94,135.5969 397.1,146.3069 382,156.2969 C358.87,171.5969 338.0991,185.9571 318.4191,199.7871 " fill="none" id="Conductor-to-Ruta" style="stroke:#181818;stroke-width:1.0;"/><polygon fill="#181818" points="313.51,203.2369,323.1735,201.3349,317.6009,200.362,318.5737,194.7895,313.51,203.2369" style="stroke:#181818;stroke-width:1.0;"/><text fill="#000000" font-family="sans-serif" font-size="13" lengthAdjust="spacing" textLength="34.874" x="383" y="169.3638">sigue</text></g><!--link Veh?culo to Incidencia--><g id="link_Veh&#237;culo_Incidencia"><path codeLine="35" d="M393.87,251.4369 C392.8,273.4269 391.482,300.314 390.412,322.274 " fill="none" id="Veh&#237;culo-to-Incidencia" style="stroke:#181818;stroke-width:1.0;"/><polygon fill="#181818" points="390.12,328.2669,394.5533,319.4722,390.3633,323.2728,386.5627,319.0829,390.12,328.2669" style="stroke:#181818;stroke-width:1.0;"/><text fill="#000000" font-family="sans-serif" font-size="13" lengthAdjust="spacing" textLength="32.9316" x="393" y="294.3638">sufre</text></g><!--link Incidencia to Pasajeros--><g id="link_Incidencia_Pasajeros"><path codeLine="36" d="M381.29,376.4369 C373.96,398.4269 363,431.3069 355.68,453.2669 " fill="none" id="Incidencia-Pasajeros" style="stroke:#181818;stroke-width:1.0;stroke-dasharray:7.0,7.0;"/><text fill="#000000" font-family="sans-serif" font-size="13" lengthAdjust="spacing" textLength="40.752" x="371" y="419.3638">afecta</text></g><!--link Conductor to Incidencia--><g id="link_Conductor_Incidencia"><path codeLine="37" d="M485.37,126.4369 C494.18,139.6969 501.87,156.9069 498,173.2969 C483.66,234.0369 469.06,246.6569 434,298.2969 C427.02,308.5869 422.316,314.6571 414.476,323.6371 " fill="none" id="Conductor-to-Incidencia" style="stroke:#181818;stroke-width:1.0;"/><polygon fill="#181818" points="410.53,328.1569,419.4623,324.0078,413.8184,324.3904,413.4358,318.7465,410.53,328.1569" style="stroke:#181818;stroke-width:1.0;"/><text fill="#000000" font-family="sans-serif" font-size="13" lengthAdjust="spacing" textLength="47.9565" x="490" y="231.8638">reporta</text></g><!--link Pasajeros to Veh?culo--><g id="link_Pasajeros_Veh&#237;culo"><path codeLine="38" d="M318.35,453.2169 C285.3,424.5269 239.3,373.7669 262,328.2969 C280.07,292.1069 312.8683,268.4435 343.6683,251.8435 " fill="none" id="Pasajeros-to-Veh&#237;culo" style="stroke:#181818;stroke-width:1.0;"/><polygon fill="#181818" points="348.95,248.9969,339.1296,249.7457,344.5486,251.3691,342.9252,256.788,348.95,248.9969" style="stroke:#181818;stroke-width:1.0;"/><text fill="#000000" font-family="sans-serif" font-size="13" lengthAdjust="spacing" textLength="56.729" x="263" y="356.8638">emplean</text></g><!--link Ruta to Horarios--><g id="link_Ruta_Horarios"><path codeLine="39" d="M248.15,248.1769 C233.32,257.6269 215.83,269.4269 201,281.2969 C182.9,295.7769 168.2755,309.6672 154.2655,323.8572 " fill="none" id="Ruta-to-Horarios" style="stroke:#181818;stroke-width:1.0;"/><polygon fill="#181818" points="150.05,328.1269,159.2196,324.5327,153.5629,324.5688,153.5268,318.9121,150.05,328.1269" style="stroke:#181818;stroke-width:1.0;"/><text fill="#000000" font-family="sans-serif" font-size="13" lengthAdjust="spacing" textLength="32.9443" x="202" y="294.3638">tiene</text></g><!--link Paradas to Ruta--><g id="link_Paradas_Ruta"><path codeLine="40" d="M213.19,227.2969 C224.93,227.2969 224.67,227.2969 236.42,227.2969 " fill="none" id="Paradas-to-Ruta" style="stroke:#181818;stroke-width:1.0;"/><polygon fill="#181818" points="248.42,227.2969,242.42,223.2969,236.42,227.2969,242.42,231.2969,248.42,227.2969" style="stroke:#181818;stroke-width:1.0;"/></g><!--link Veh?culo to Flota--><g id="link_Veh&#237;culo_Flota"><path codeLine="41" d="M372.19,203.1569 C357.08,188.9869 335.96,172.4169 313.5,164.7969 C234.37,137.9469 203.52,134.8769 125.5,164.7969 C105.35,172.5269 95.3736,180.1469 82.7536,194.2769 " fill="none" id="Veh&#237;culo-to-Flota" style="stroke:#181818;stroke-width:1.0;"/><polygon fill="#181818" points="74.76,203.2269,81.7401,201.4164,82.7536,194.2769,75.7734,196.0873,74.76,203.2269" style="stroke:#181818;stroke-width:1.0;"/></g><!--link Servicio to Ruta--><g id="link_Servicio_Ruta"><path codeLine="42" d="M164.09,126.4369 C189.83,148.4269 223.7677,177.41 249.4777,199.37 " fill="none" id="Servicio-to-Ruta" style="stroke:#181818;stroke-width:1.0;"/><polygon fill="#181818" points="254.04,203.2669,249.7945,194.3801,250.2381,200.0195,244.5987,200.4631,254.04,203.2669" style="stroke:#181818;stroke-width:1.0;"/><text fill="#000000" font-family="sans-serif" font-size="13" lengthAdjust="spacing" textLength="41.0186" x="218" y="169.3638">ofrece</text></g><!--link Servicio to Flota--><g id="link_Servicio_Flota"><path codeLine="43" d="M121.76,126.4369 C107.28,148.4269 88.9297,176.2957 74.4697,198.2557 " fill="none" id="Servicio-to-Flota" style="stroke:#181818;stroke-width:1.0;"/><polygon fill="#181818" points="71.17,203.2669,79.4604,197.9499,73.9198,199.0909,72.7788,193.5503,71.17,203.2669" style="stroke:#181818;stroke-width:1.0;"/><text fill="#000000" font-family="sans-serif" font-size="13" lengthAdjust="spacing" textLength="41.0186" x="102" y="169.3638">ofrece</text></g><!--SRC=[VL8nRiCm3Dpv2Y9Z0US16GmK1OfsA60qGNT6fbsrZcX8SfSq3-hG3tJrnoexjIrhg0SDTyVZaRJNlc7SQ-VvH7YmP5mhrZCM_S-nqKgW9VLEDUFc7z46pu3XKmqvXmLR9uRES8b1SlJ6LjmQFf3L5INWK__bfHHNK2rhvlOe9hMu4rDsoejTmo_ysd-hhaaSdZkV97iG6qAahWLPAjDWzusarNks7rhfiGlCGsAMVURJ8c1Ek8PZTJvj0dVOKaq6uYKa0iV8fxRXeBekvEeRLwnwviioGhKQ6LuKWs1Oo-2iwuvXKG_Ker6wvF2CWgwo316qtIwd3JnLh7mySMAnGyl3lvDEFxVSpQEDaGPkEb2mzveDmzzjCBkvviObSO368y5q5uocav1TCQwvKJwJ073v1G00]--></g></svg>