<svg xmlns="http://www.w3.org/2000/svg" xmlns:xlink="http://www.w3.org/1999/xlink" contentStyleType="text/css" height="764px" preserveAspectRatio="none" style="width:920px;height:764px;background:#FFFFFF;" version="1.1" viewBox="0 0 920 764" width="920px" zoomAndPan="magnify"><defs/><g><g id="elem_Servicio_Diario"><rect fill="#F1F1F1" height="44.5938" style="stroke:#181818;stroke-width:0.5;" width="118.043" x="436" y="15"/><text fill="#000000" font-family="sans-serif" font-size="14" lengthAdjust="spacing" textLength="104.043" x="443" y="29.9951">Servicio_Diario</text><line style="stroke:#181818;stroke-width:0.5;" x1="437" x2="553.043" y1="35.2969" y2="35.2969"/><text fill="#000000" font-family="sans-serif" font-size="14" lengthAdjust="spacing" textLength="32.9834" x="442" y="52.292">ID: 1</text></g><g id="elem_Ruta_1"><rect fill="#F1F1F1" height="44.5938" style="stroke:#181818;stroke-width:0.5;" width="62.5762" x="463.5" y="161"/><text fill="#000000" font-family="sans-serif" font-size="14" lengthAdjust="spacing" textLength="48.5762" x="470.5" y="175.9951">Ruta_1</text><line style="stroke:#181818;stroke-width:0.5;" x1="464.5" x2="525.0762" y1="181.2969" y2="181.2969"/><text fill="#000000" font-family="sans-serif" font-size="14" lengthAdjust="spacing" textLength="32.9834" x="469.5" y="198.292">ID: 1</text></g><g id="elem_Horario"><rect fill="#F1F1F1" height="60.8906" style="stroke:#181818;stroke-width:0.5;" width="119.5225" x="794" y="307"/><text fill="#000000" font-family="sans-serif" font-size="14" lengthAdjust="spacing" textLength="51.6387" x="827.9419" y="321.9951">Horario</text><line style="stroke:#181818;stroke-width:0.5;" x1="795" x2="912.5225" y1="327.2969" y2="327.2969"/><text fill="#000000" font-family="sans-serif" font-size="14" lengthAdjust="spacing" textLength="107.5225" x="800" y="344.292">"14:00 - 15:00"</text><text fill="#000000" font-family="sans-serif" font-size="14" lengthAdjust="spacing" textLength="107.5225" x="800" y="360.5889">"16:00 - 17:00"</text></g><g id="elem_Parada_1"><rect fill="#F1F1F1" height="44.5938" style="stroke:#181818;stroke-width:0.5;" width="151.3506" x="419.5" y="315"/><text fill="#000000" font-family="sans-serif" font-size="14" lengthAdjust="spacing" textLength="64.7295" x="462.8105" y="329.9951">Parada_1</text><line style="stroke:#181818;stroke-width:0.5;" x1="420.5" x2="569.8506" y1="335.2969" y2="335.2969"/><text fill="#000000" font-family="sans-serif" font-size="14" lengthAdjust="spacing" textLength="139.3506" x="425.5" y="352.292">"Ubicaci&#243;n: Burgos"</text></g><g id="elem_Parada_2"><rect fill="#F1F1F1" height="44.5938" style="stroke:#181818;stroke-width:0.5;" width="153.4287" x="605.5" y="315"/><text fill="#000000" font-family="sans-serif" font-size="14" lengthAdjust="spacing" textLength="64.7295" x="649.8496" y="329.9951">Parada_2</text><line style="stroke:#181818;stroke-width:0.5;" x1="606.5" x2="757.9287" y1="335.2969" y2="335.2969"/><text fill="#000000" font-family="sans-serif" font-size="14" lengthAdjust="spacing" textLength="141.4287" x="611.5" y="352.292">"Ubicaci&#243;n: Espa&#241;a"</text></g><g id="elem_Conductor_1"><rect fill="#F1F1F1" height="60.8906" style="stroke:#181818;stroke-width:0.5;" width="117.5195" x="274" y="7"/><text fill="#000000" font-family="sans-serif" font-size="14" lengthAdjust="spacing" textLength="88.3887" x="288.5654" y="21.9951">Conductor_1</text><line style="stroke:#181818;stroke-width:0.5;" x1="275" x2="390.5195" y1="27.2969" y2="27.2969"/><text fill="#000000" font-family="sans-serif" font-size="14" lengthAdjust="spacing" textLength="59.7051" x="280" y="44.292">ID: 1234</text><text fill="#000000" font-family="sans-serif" font-size="14" lengthAdjust="spacing" textLength="105.5195" x="280" y="60.5889">Nombre: David</text></g><g id="elem_Conductor_2"><rect fill="#F1F1F1" height="60.8906" style="stroke:#181818;stroke-width:0.5;" width="111.6543" x="78" y="7"/><text fill="#000000" font-family="sans-serif" font-size="14" lengthAdjust="spacing" textLength="88.3887" x="89.6328" y="21.9951">Conductor_2</text><line style="stroke:#181818;stroke-width:0.5;" x1="79" x2="188.6543" y1="27.2969" y2="27.2969"/><text fill="#000000" font-family="sans-serif" font-size="14" lengthAdjust="spacing" textLength="59.7051" x="84" y="44.292">ID: 1235</text><text fill="#000000" font-family="sans-serif" font-size="14" lengthAdjust="spacing" textLength="99.6543" x="84" y="60.5889">Nombre: Pepe</text></g><g id="elem_Veh&#237;culo_1"><rect fill="#F1F1F1" height="77.1875" style="stroke:#181818;stroke-width:0.5;" width="108.291" x="200" y="145"/><text fill="#000000" font-family="sans-serif" font-size="14" lengthAdjust="spacing" textLength="75.8857" x="216.2026" y="159.9951">Veh&#237;culo_1</text><line style="stroke:#181818;stroke-width:0.5;" x1="201" x2="307.291" y1="165.2969" y2="165.2969"/><text fill="#000000" font-family="sans-serif" font-size="14" lengthAdjust="spacing" textLength="64.832" x="206" y="182.292">Tipo: Bus</text><text fill="#000000" font-family="sans-serif" font-size="14" lengthAdjust="spacing" textLength="96.291" x="206" y="198.5889">Capacidad:15</text><text fill="#000000" font-family="sans-serif" font-size="14" lengthAdjust="spacing" textLength="32.9834" x="206" y="214.8857">ID: 1</text></g><g id="elem_Flota_1"><rect fill="#F1F1F1" height="44.5938" style="stroke:#181818;stroke-width:0.5;" width="128.2314" x="162" y="315"/><text fill="#000000" font-family="sans-serif" font-size="14" lengthAdjust="spacing" textLength="50.4834" x="200.874" y="329.9951">Flota_1</text><line style="stroke:#181818;stroke-width:0.5;" x1="163" x2="289.2314" y1="335.2969" y2="335.2969"/><text fill="#000000" font-family="sans-serif" font-size="14" lengthAdjust="spacing" textLength="116.2314" x="168" y="352.292">Empresa: PEREZ</text></g><g id="elem_Incidencia_1"><rect fill="#F1F1F1" height="77.1875" style="stroke:#181818;stroke-width:0.5;" width="120.3975" x="7" y="299"/><text fill="#000000" font-family="sans-serif" font-size="14" lengthAdjust="spacing" textLength="87.0352" x="23.6812" y="313.9951">Incidencia_1</text><line style="stroke:#181818;stroke-width:0.5;" x1="8" x2="126.3975" y1="319.2969" y2="319.2969"/><text fill="#000000" font-family="sans-serif" font-size="14" lengthAdjust="spacing" textLength="108.3975" x="13" y="336.292">Tipo: Accidente</text><text fill="#000000" font-family="sans-serif" font-size="14" lengthAdjust="spacing" textLength="89.1748" x="13" y="352.5889">Estado: Roto</text><text fill="#000000" font-family="sans-serif" font-size="14" lengthAdjust="spacing" textLength="103.1543" x="13" y="368.8857">Urgencia: ALta</text></g><g id="elem_Pasajero_1"><rect fill="#F1F1F1" height="60.8906" style="stroke:#181818;stroke-width:0.5;" width="114.5186" x="155.5" y="453"/><text fill="#000000" font-family="sans-serif" font-size="14" lengthAdjust="spacing" textLength="75.626" x="174.9463" y="467.9951">Pasajero_1</text><line style="stroke:#181818;stroke-width:0.5;" x1="156.5" x2="269.0186" y1="473.2969" y2="473.2969"/><text fill="#000000" font-family="sans-serif" font-size="14" lengthAdjust="spacing" textLength="80.1514" x="161.5" y="490.292">Asiento: 2C</text><text fill="#000000" font-family="sans-serif" font-size="14" lengthAdjust="spacing" textLength="102.5186" x="161.5" y="506.5889">Nombre: Silvia</text></g><g id="elem_Tarifa_1"><rect fill="#F1F1F1" height="44.5938" style="stroke:#181818;stroke-width:0.5;" width="111.1689" x="157.5" y="591"/><text fill="#000000" font-family="sans-serif" font-size="14" lengthAdjust="spacing" textLength="56.1914" x="184.9888" y="605.9951">Tarifa_1</text><line style="stroke:#181818;stroke-width:0.5;" x1="158.5" x2="267.6689" y1="611.2969" y2="611.2969"/><text fill="#000000" font-family="sans-serif" font-size="14" lengthAdjust="spacing" textLength="99.1689" x="163.5" y="628.292">Tipo: Diurna 1</text></g><g id="elem_Abono_1"><rect fill="#F1F1F1" height="44.5938" style="stroke:#181818;stroke-width:0.5;" width="122.8242" x="151.5" y="713"/><text fill="#000000" font-family="sans-serif" font-size="14" lengthAdjust="spacing" textLength="60.375" x="182.7246" y="727.9951">Abono_1</text><line style="stroke:#181818;stroke-width:0.5;" x1="152.5" x2="273.3242" y1="733.2969" y2="733.2969"/><text fill="#000000" font-family="sans-serif" font-size="14" lengthAdjust="spacing" textLength="110.8242" x="157.5" y="750.292">M&#233;todo: Tarjeta</text></g><!--link Servicio_Diario to Ruta_1--><g id="link_Servicio_Diario_Ruta_1"><path codeLine="68" d="M495,60.06 C495,87.21 495,127.58 495,154.79 " fill="none" id="Servicio_Diario-to-Ruta_1" style="stroke:#181818;stroke-width:1.0;"/><polygon fill="#181818" points="495,160.79,499,151.79,495,155.79,491,151.79,495,160.79" style="stroke:#181818;stroke-width:1.0;"/><text fill="#000000" font-family="sans-serif" font-size="13" lengthAdjust="spacing" textLength="41.0186" x="496" y="111.0669">ofrece</text></g><!--link Ruta_1 to Parada_1--><g id="link_Ruta_1_Parada_1"><path codeLine="69" d="M495,206.28 C495,235.17 495,279.89 495,308.76 " fill="none" id="Ruta_1-to-Parada_1" style="stroke:#181818;stroke-width:1.0;"/><polygon fill="#181818" points="495,314.76,499,305.76,495,309.76,491,305.76,495,314.76" style="stroke:#181818;stroke-width:1.0;"/><text fill="#000000" font-family="sans-serif" font-size="13" lengthAdjust="spacing" textLength="32.9443" x="496" y="265.0669">tiene</text></g><!--link Ruta_1 to Parada_2--><g id="link_Ruta_1_Parada_2"><path codeLine="70" d="M521.79,206.28 C557.34,235.17 615.0734,282.1063 650.6034,310.9763 " fill="none" id="Ruta_1-to-Parada_2" style="stroke:#181818;stroke-width:1.0;"/><polygon fill="#181818" points="655.26,314.76,650.7976,305.9801,651.3795,311.6069,645.7527,312.1888,655.26,314.76" style="stroke:#181818;stroke-width:1.0;"/><text fill="#000000" font-family="sans-serif" font-size="13" lengthAdjust="spacing" textLength="32.9443" x="595" y="265.0669">tiene</text></g><!--link Ruta_1 to Horario--><g id="link_Ruta_1_Horario"><path codeLine="71" d="M526.87,196.75 C579.26,217.06 686.68,259.37 776,299 C781.77,301.56 782.2989,301.7612 788.2589,304.5312 " fill="none" id="Ruta_1-to-Horario" style="stroke:#181818;stroke-width:1.0;"/><polygon fill="#181818" points="793.7,307.06,787.2243,299.6394,789.1658,304.9527,783.8525,306.8942,793.7,307.06" style="stroke:#181818;stroke-width:1.0;"/><text fill="#000000" font-family="sans-serif" font-size="13" lengthAdjust="spacing" textLength="32.9443" x="700" y="265.0669">tiene</text></g><!--link Conductor_1 to Ruta_1--><g id="link_Conductor_1_Ruta_1"><path codeLine="72" d="M366.57,68.34 C397.52,95.85 438.2555,132.0639 465.9655,156.6939 " fill="none" id="Conductor_1-to-Ruta_1" style="stroke:#181818;stroke-width:1.0;"/><polygon fill="#181818" points="470.45,160.68,466.3806,151.7112,466.7129,157.3583,461.0658,157.6906,470.45,160.68" style="stroke:#181818;stroke-width:1.0;"/><text fill="#000000" font-family="sans-serif" font-size="13" lengthAdjust="spacing" textLength="34.874" x="419" y="111.0669">sigue</text></g><!--link Conductor_2 to Ruta_1--><g id="link_Conductor_2_Ruta_1"><path codeLine="73" d="M170.84,68.01 C192.07,83.82 219.87,102.54 247,115 C320.8,148.89 409.1134,167.6556 457.4034,176.2756 " fill="none" id="Conductor_2-to-Ruta_1" style="stroke:#181818;stroke-width:1.0;"/><polygon fill="#181818" points="463.31,177.33,455.153,171.8107,458.3878,176.4514,453.7471,179.6862,463.31,177.33" style="stroke:#181818;stroke-width:1.0;"/><text fill="#000000" font-family="sans-serif" font-size="13" lengthAdjust="spacing" textLength="34.874" x="248" y="111.0669">sigue</text></g><!--link Conductor_1 to Veh?culo_1--><g id="link_Conductor_1_Veh&#237;culo_1"><path codeLine="74" d="M316.63,68.34 C304.47,90.5 290.6842,115.6187 277.6042,139.4787 " fill="none" id="Conductor_1-to-Veh&#237;culo_1" style="stroke:#181818;stroke-width:1.0;"/><polygon fill="#181818" points="274.72,144.74,282.5539,138.7709,277.1235,140.3556,275.5388,134.9252,274.72,144.74" style="stroke:#181818;stroke-width:1.0;"/><text fill="#000000" font-family="sans-serif" font-size="13" lengthAdjust="spacing" textLength="54.9771" x="299" y="111.0669">conduce</text></g><!--link Veh?culo_1 to Flota_1--><g id="link_Veh&#237;culo_1_Flota_1"><path codeLine="75" d="M247.08,222.07 C241.7,251.26 235.5282,284.8095 231.0782,308.9395 " fill="none" id="Veh&#237;culo_1-to-Flota_1" style="stroke:#181818;stroke-width:1.0;"/><polygon fill="#181818" points="229.99,314.84,235.5559,306.7147,230.8968,309.9229,227.6886,305.2638,229.99,314.84" style="stroke:#181818;stroke-width:1.0;"/><text fill="#000000" font-family="sans-serif" font-size="13" lengthAdjust="spacing" textLength="22.9785" x="241" y="265.0669">usa</text></g><!--link Veh?culo_1 to Incidencia_1--><g id="link_Veh&#237;culo_1_Incidencia_1"><path codeLine="76" d="M207.78,222.07 C179.01,245.46 146.786,271.6457 117.996,295.0457 " fill="none" id="Veh&#237;culo_1-to-Incidencia_1" style="stroke:#181818;stroke-width:1.0;"/><polygon fill="#181818" points="113.34,298.83,122.847,296.2575,117.22,295.6764,117.8012,290.0495,113.34,298.83" style="stroke:#181818;stroke-width:1.0;"/><text fill="#000000" font-family="sans-serif" font-size="13" lengthAdjust="spacing" textLength="32.9316" x="167" y="265.0669">sufre</text></g><!--link Conductor_2 to Incidencia_1--><g id="link_Conductor_2_Incidencia_1"><path codeLine="77" d="M127.33,68.16 C115.08,122.63 90.3461,232.6561 76.8361,292.7461 " fill="none" id="Conductor_2-to-Incidencia_1" style="stroke:#181818;stroke-width:1.0;"/><polygon fill="#181818" points="75.52,298.6,81.3968,290.6966,76.6168,293.7218,73.5916,288.9418,75.52,298.6" style="stroke:#181818;stroke-width:1.0;"/><text fill="#000000" font-family="sans-serif" font-size="13" lengthAdjust="spacing" textLength="47.9565" x="110" y="188.0669">reporta</text></g><!--link Incidencia_1 to Pasajero_1--><g id="link_Incidencia_1_Pasajero_1"><path codeLine="78" d="M105.36,376.33 C129.52,400.17 156.0089,426.286 178.4489,448.426 " fill="none" id="Incidencia_1-to-Pasajero_1" style="stroke:#181818;stroke-width:1.0;stroke-dasharray:7.0,7.0;"/><polygon fill="#181818" points="182.72,452.64,179.1227,443.4716,179.1608,449.1283,173.504,449.1664,182.72,452.64" style="stroke:#181818;stroke-width:1.0;"/><text fill="#000000" font-family="sans-serif" font-size="13" lengthAdjust="spacing" textLength="40.752" x="149" y="419.0669">afecta</text></g><!--link Pasajero_1 to Veh?culo_1--><g id="link_Pasajero_1_Veh&#237;culo_1"><path codeLine="79" d="M250.56,452.81 C271.83,433.51 296.44,406.33 308,376 C327.87,323.87 304.1641,266.5053 281.7541,227.4153 " fill="none" id="Pasajero_1-to-Veh&#237;culo_1" style="stroke:#181818;stroke-width:1.0;"/><polygon fill="#181818" points="278.77,222.21,279.776,232.0073,281.2568,226.5477,286.7164,228.0285,278.77,222.21" style="stroke:#181818;stroke-width:1.0;"/><text fill="#000000" font-family="sans-serif" font-size="13" lengthAdjust="spacing" textLength="22.9785" x="315" y="342.0669">usa</text></g><!--link Pasajero_1 to Tarifa_1--><g id="link_Pasajero_1_Tarifa_1"><path codeLine="80" d="M213,514.19 C213,537.67 213,563.91 213,584.97 " fill="none" id="Pasajero_1-to-Tarifa_1" style="stroke:#181818;stroke-width:1.0;"/><polygon fill="#181818" points="213,590.97,217,581.97,213,585.97,209,581.97,213,590.97" style="stroke:#181818;stroke-width:1.0;"/><text fill="#000000" font-family="sans-serif" font-size="13" lengthAdjust="spacing" textLength="32.4365" x="214" y="557.0669">paga</text></g><!--link Tarifa_1 to Abono_1--><g id="link_Tarifa_1_Abono_1"><path codeLine="81" d="M213,636.23 C213,657.98 213,685.24 213,706.93 " fill="none" id="Tarifa_1-to-Abono_1" style="stroke:#181818;stroke-width:1.0;"/><polygon fill="#181818" points="213,712.93,217,703.93,213,707.93,209,703.93,213,712.93" style="stroke:#181818;stroke-width:1.0;"/><text fill="#000000" font-family="sans-serif" font-size="13" lengthAdjust="spacing" textLength="71.4429" x="214" y="679.0669">para pagar</text></g><!--SRC=[XLBDRfj04Bxp52lkZWAD6ub39DTsrKXj53a_XrwYOHdRQnaMpIwMegWFr4CFLH_1BzPXRM0XLELWpFSpy-tER5M6GYgIUmoszN_CI_igSinJ91C4EjsXjE81wQ2aqYyB1QIqU0i4FxUBH4J1ZrQrgYoyHFyWlsZoh65qbLnUYec8flmEpzZ7CtRjiCvx3mHPLpfyIfK4gOv_YaHygcYZpOWw7bClJGd7t-3Bvxh8AcarzQF77wxSnvtEKy94BE2Wib5RtBTDUxPxBD5pFUFs-4jMUzqsUrIbhazXtDSSIewQGPP4qz5h_BpNtYKlyvBG0BTPhfRVFTbjmLMGVs3GQ2OTOV7aDnOoHbVQQWSyqSQvMFZLGkzI3UoGkjmpexWCU-Dvxy0FQdzGpjbO7tdkws6EXQgeWDFH6k4irKNNuDlnfzLrEFRly1Gc28QRE9dSD7kNY52l2IM6mHcfoNPtcBOSUPIDnzbcPplINvP-QwCsLKyG_qzmgk1l1AkaerdduxMk6JnhAWFl-Tx4wtOLtyNxF4CPOQd9ShqUSN5nuq-STR3c2R7CGqVIksG3IJj-valOiA15QhePkcC9H2sXy2y0]--></g></svg>