<svg xmlns="http://www.w3.org/2000/svg" xmlns:xlink="http://www.w3.org/1999/xlink" contentStyleType="text/css" height="561px" preserveAspectRatio="none" style="width:428px;height:561px;background:#FFFFFF;" version="1.1" viewBox="0 0 428 561" width="428px" zoomAndPan="magnify"><title>Diagrama de Estados - Servicio Transporte P&#250;blico</title><defs/><g><text fill="#000000" font-family="sans-serif" font-size="14" font-weight="bold" lengthAdjust="spacing" textLength="400.6748" x="10" y="22.9951">Diagrama de Estados - Servicio Transporte P&#250;blico</text><ellipse cx="208.4146" cy="53.2969" fill="#222222" rx="10" ry="10" style="stroke:#222222;stroke-width:1.0;"/><g id="Inactivo"><rect fill="#F1F1F1" height="50" rx="12.5" ry="12.5" style="stroke:#181818;stroke-width:0.5;" width="75.5078" x="170.4146" y="124.2969"/><line style="stroke:#181818;stroke-width:0.5;" x1="170.4146" x2="245.9224" y1="150.5938" y2="150.5938"/><text fill="#000000" font-family="sans-serif" font-size="14" lengthAdjust="spacing" textLength="55.5078" x="180.4146" y="142.292">Inactivo</text></g><g id="EnServicio"><rect fill="#F1F1F1" height="50" rx="12.5" ry="12.5" style="stroke:#181818;stroke-width:0.5;" width="93.3018" x="12.9146" y="251.2969"/><line style="stroke:#181818;stroke-width:0.5;" x1="12.9146" x2="106.2163" y1="277.5938" y2="277.5938"/><text fill="#000000" font-family="sans-serif" font-size="14" lengthAdjust="spacing" textLength="73.3018" x="22.9146" y="269.292">EnServicio</text></g><g id="EnRuta"><rect fill="#F1F1F1" height="50" rx="12.5" ry="12.5" style="stroke:#181818;stroke-width:0.5;" width="70.3877" x="137.4146" y="378.2969"/><line style="stroke:#181818;stroke-width:0.5;" x1="137.4146" x2="207.8022" y1="404.5938" y2="404.5938"/><text fill="#000000" font-family="sans-serif" font-size="14" lengthAdjust="spacing" textLength="50.3877" x="147.4146" y="396.292">EnRuta</text></g><g id="Parada"><rect fill="#F1F1F1" height="50" rx="12.5" ry="12.5" style="stroke:#181818;stroke-width:0.5;" width="68.8223" x="178.9146" y="505.2969"/><line style="stroke:#181818;stroke-width:0.5;" x1="178.9146" x2="247.7368" y1="531.5938" y2="531.5938"/><text fill="#000000" font-family="sans-serif" font-size="14" lengthAdjust="spacing" textLength="48.8223" x="188.9146" y="523.292">Parada</text></g><!--link *start* to Inactivo--><g id="link_*start*_Inactivo"><path d="M208.4146,63.3069 C208.4146,77.1869 208.4146,98.2669 208.4146,118.1369 " fill="none" id="*start*-to-Inactivo" style="stroke:#181818;stroke-width:1.0;"/><polygon fill="#181818" points="208.4146,124.1369,212.4146,115.1369,208.4146,119.1369,204.4146,115.1369,208.4146,124.1369" style="stroke:#181818;stroke-width:1.0;"/></g><!--link Inactivo to EnServicio--><g id="link_Inactivo_EnServicio"><path d="M170.1946,160.5869 C145.4046,168.9169 113.8446,182.8469 92.4146,204.2969 C79.5346,217.1769 73.0381,230.347 67.9181,245.387 " fill="none" id="Inactivo-to-EnServicio" style="stroke:#181818;stroke-width:1.0;"/><polygon fill="#181818" points="65.9846,251.0669,72.6715,243.8361,67.5959,246.3336,65.0983,241.258,65.9846,251.0669" style="stroke:#181818;stroke-width:1.0;"/><text fill="#000000" font-family="sans-serif" font-size="13" lengthAdjust="spacing" textLength="88.6768" x="93.4146" y="217.3638">Inicia servicio</text></g><!--link EnServicio to EnRuta--><g id="link_EnServicio_EnRuta"><path d="M34.8846,301.3269 C23.3546,315.5769 14.1746,333.6569 24.4146,348.2969 C49.7346,384.4869 96.0519,395.8383 131.1919,399.7783 " fill="none" id="EnServicio-to-EnRuta" style="stroke:#181818;stroke-width:1.0;"/><polygon fill="#181818" points="137.1546,400.4469,128.6563,395.469,132.1857,399.8898,127.7649,403.4191,137.1546,400.4469" style="stroke:#181818;stroke-width:1.0;"/><text fill="#000000" font-family="sans-serif" font-size="13" lengthAdjust="spacing" textLength="156.1206" x="25.4146" y="344.3638">Asigna ruta a conductor</text></g><!--link EnRuta to Parada--><g id="link_EnRuta_Parada"><path d="M146.0246,428.5269 C134.4146,442.2069 125.0946,459.6469 133.4146,475.2969 C143.0846,493.4969 156.6056,503.9197 173.5756,512.6997 " fill="none" id="EnRuta-to-Parada" style="stroke:#181818;stroke-width:1.0;"/><polygon fill="#181818" points="178.9046,515.4569,172.7491,507.7685,174.4637,513.1593,169.073,514.8738,178.9046,515.4569" style="stroke:#181818;stroke-width:1.0;"/><text fill="#000000" font-family="sans-serif" font-size="13" lengthAdjust="spacing" textLength="35.0708" x="134.4146" y="471.3638">Llega</text></g><!--link Parada to EnRuta--><g id="link_Parada_EnRuta"><path d="M205.5346,505.2669 C198.2846,483.1569 189.4541,456.2382 182.1941,434.0982 " fill="none" id="Parada-to-EnRuta" style="stroke:#181818;stroke-width:1.0;"/><polygon fill="#181818" points="180.3246,428.3969,179.328,438.1952,181.8825,433.148,186.9297,435.7025,180.3246,428.3969" style="stroke:#181818;stroke-width:1.0;"/><text fill="#000000" font-family="sans-serif" font-size="13" lengthAdjust="spacing" textLength="120.269" x="196.4146" y="471.3638">Si hay otra parada</text></g><!--link EnRuta to Inactivo--><g id="link_EnRuta_Inactivo"><path d="M179.4346,378.2669 C181.9346,368.9769 184.5946,358.2069 186.4146,348.2969 C197.8446,286.2169 203.7367,218.0116 206.4167,180.5216 " fill="none" id="EnRuta-to-Inactivo" style="stroke:#181818;stroke-width:1.0;"/><polygon fill="#181818" points="206.8446,174.5369,202.213,183.2288,206.488,179.5241,210.1926,183.7992,206.8446,174.5369" style="stroke:#181818;stroke-width:1.0;"/><text fill="#000000" font-family="sans-serif" font-size="13" lengthAdjust="spacing" textLength="95.3926" x="201.4146" y="280.8638">Hay incidencia</text></g><!--link Parada to Inactivo--><g id="link_Parada_Inactivo"><path d="M248.1246,522.8069 C274.3446,515.8869 308.5946,502.0769 325.4146,475.2969 C329.4346,468.8969 325.7746,465.8469 325.4146,458.2969 C320.9646,365.9769 344.0046,335.2769 305.4146,251.2969 C291.2046,220.3669 268.1407,196.8998 245.9807,178.4998 " fill="none" id="Parada-to-Inactivo" style="stroke:#181818;stroke-width:1.0;"/><polygon fill="#181818" points="241.3646,174.6669,245.7335,183.4937,245.2113,177.861,250.844,177.3388,241.3646,174.6669" style="stroke:#181818;stroke-width:1.0;"/><text fill="#000000" font-family="sans-serif" font-size="13" lengthAdjust="spacing" textLength="92.3457" x="328.4146" y="344.3638">&#218;ltima parada</text></g><!--SRC=[LOr12i8m44NtESLV2xr05u9WGS55KNVYOan27MYJaamBNiMZkFLYfjgMkXd-_F_-ZB3K5bkcAb13C1P5538-8iF9XfurUvm3kTZw81Rb-tMhMNkbBgihicoDlICjt2TdKb-xS7CzJqmIX3WwQX7-s6CdbBXDvCeHmh0Hj7Ucq-A36e61BIcG6TX3RIl2Cfh_vzZH0-mq6vi6gR7qz-l4k2VAIo2qtto9BMwzdxLmCq4V]--></g></svg>