<svg xmlns="http://www.w3.org/2000/svg" xmlns:xlink="http://www.w3.org/1999/xlink" contentStyleType="text/css" height="399px" preserveAspectRatio="none" style="width:809px;height:399px;background:#FFFFFF;" version="1.1" viewBox="0 0 809 399" width="809px" zoomAndPan="magnify"><defs/><g><!--cluster Sistema Transporte P?blico--><g id="cluster_Sistema Transporte P&#250;blico"><path d="M8.5,43.8 L227.3818,43.8 A3.75,3.75 0 0 1 229.8818,46.3 L236.8818,66.0969 L799.5,66.0969 A2.5,2.5 0 0 1 802,68.5969 L802,390.3 A2.5,2.5 0 0 1 799.5,392.8 L8.5,392.8 A2.5,2.5 0 0 1 6,390.3 L6,46.3 A2.5,2.5 0 0 1 8.5,43.8 " fill="none" style="stroke:#000000;stroke-width:1.5;"/><line style="stroke:#000000;stroke-width:1.5;" x1="6" x2="236.8818" y1="66.0969" y2="66.0969"/><text fill="#000000" font-family="sans-serif" font-size="14" font-weight="bold" lengthAdjust="spacing" textLength="217.8818" x="10" y="58.7951">Sistema Transporte P&#250;blico</text></g><!--class Persona--><g id="elem_Persona"><rect codeLine="2" fill="#F1F1F1" height="48" id="Persona" rx="2.5" ry="2.5" style="stroke:#181818;stroke-width:0.5;" width="88.123" x="574.94" y="78.8"/><ellipse cx="589.94" cy="94.8" fill="#ADD1B2" rx="11" ry="11" style="stroke:#181818;stroke-width:1.0;"/><path d="M592.9088,100.4406 Q592.3306,100.7375 591.69,100.8781 Q591.0494,101.0344 590.3463,101.0344 Q587.8463,101.0344 586.5181,99.3938 Q585.2056,97.7375 585.2056,94.6125 Q585.2056,91.4875 586.5181,89.8313 Q587.8463,88.175 590.3463,88.175 Q591.0494,88.175 591.69,88.3313 Q592.3463,88.4875 592.9088,88.7844 L592.9088,91.5031 Q592.2838,90.925 591.69,90.6594 Q591.0963,90.3781 590.4713,90.3781 Q589.1275,90.3781 588.44,91.4563 Q587.7525,92.5188 587.7525,94.6125 Q587.7525,96.7063 588.44,97.7844 Q589.1275,98.8469 590.4713,98.8469 Q591.0963,98.8469 591.69,98.5813 Q592.2838,98.3 592.9088,97.7219 L592.9088,100.4406 Z " fill="#000000"/><text fill="#000000" font-family="sans-serif" font-size="14" lengthAdjust="spacing" textLength="56.123" x="603.94" y="99.6467">Persona</text><line style="stroke:#181818;stroke-width:0.5;" x1="575.94" x2="662.063" y1="110.8" y2="110.8"/><line style="stroke:#181818;stroke-width:0.5;" x1="575.94" x2="662.063" y1="118.8" y2="118.8"/></g><!--class Pasajeros--><g id="elem_Pasajeros"><rect codeLine="4" fill="#F1F1F1" height="48" id="Pasajeros" rx="2.5" ry="2.5" style="stroke:#181818;stroke-width:0.5;" width="99.0127" x="22.49" y="78.8"/><ellipse cx="37.49" cy="94.8" fill="#ADD1B2" rx="11" ry="11" style="stroke:#181818;stroke-width:1.0;"/><path d="M40.4588,100.4406 Q39.8806,100.7375 39.24,100.8781 Q38.5994,101.0344 37.8963,101.0344 Q35.3963,101.0344 34.0681,99.3938 Q32.7556,97.7375 32.7556,94.6125 Q32.7556,91.4875 34.0681,89.8313 Q35.3963,88.175 37.8963,88.175 Q38.5994,88.175 39.24,88.3313 Q39.8963,88.4875 40.4588,88.7844 L40.4588,91.5031 Q39.8338,90.925 39.24,90.6594 Q38.6463,90.3781 38.0213,90.3781 Q36.6775,90.3781 35.99,91.4563 Q35.3025,92.5188 35.3025,94.6125 Q35.3025,96.7063 35.99,97.7844 Q36.6775,98.8469 38.0213,98.8469 Q38.6463,98.8469 39.24,98.5813 Q39.8338,98.3 40.4588,97.7219 L40.4588,100.4406 Z " fill="#000000"/><text fill="#000000" font-family="sans-serif" font-size="14" lengthAdjust="spacing" textLength="67.0127" x="51.49" y="99.6467">Pasajeros</text><line style="stroke:#181818;stroke-width:0.5;" x1="23.49" x2="120.5027" y1="110.8" y2="110.8"/><line style="stroke:#181818;stroke-width:0.5;" x1="23.49" x2="120.5027" y1="118.8" y2="118.8"/></g><!--class Tarifas--><g id="elem_Tarifas"><rect codeLine="6" fill="#F1F1F1" height="48" id="Tarifas" rx="2.5" ry="2.5" style="stroke:#181818;stroke-width:0.5;" width="79.5781" x="135.21" y="203.8"/><ellipse cx="150.21" cy="219.8" fill="#ADD1B2" rx="11" ry="11" style="stroke:#181818;stroke-width:1.0;"/><path d="M153.1788,225.4406 Q152.6006,225.7375 151.96,225.8781 Q151.3194,226.0344 150.6163,226.0344 Q148.1163,226.0344 146.7881,224.3938 Q145.4756,222.7375 145.4756,219.6125 Q145.4756,216.4875 146.7881,214.8313 Q148.1163,213.175 150.6163,213.175 Q151.3194,213.175 151.96,213.3313 Q152.6163,213.4875 153.1788,213.7844 L153.1788,216.5031 Q152.5538,215.925 151.96,215.6594 Q151.3663,215.3781 150.7413,215.3781 Q149.3975,215.3781 148.71,216.4563 Q148.0225,217.5188 148.0225,219.6125 Q148.0225,221.7063 148.71,222.7844 Q149.3975,223.8469 150.7413,223.8469 Q151.3663,223.8469 151.96,223.5813 Q152.5538,223.3 153.1788,222.7219 L153.1788,225.4406 Z " fill="#000000"/><text fill="#000000" font-family="sans-serif" font-size="14" lengthAdjust="spacing" textLength="47.5781" x="164.21" y="224.6467">Tarifas</text><line style="stroke:#181818;stroke-width:0.5;" x1="136.21" x2="213.7881" y1="235.8" y2="235.8"/><line style="stroke:#181818;stroke-width:0.5;" x1="136.21" x2="213.7881" y1="243.8" y2="243.8"/></g><!--class M?todosPago--><g id="elem_M&#233;todosPago"><rect codeLine="8" fill="#F1F1F1" height="48" id="M&#233;todosPago" rx="2.5" ry="2.5" style="stroke:#181818;stroke-width:0.5;" width="125.9668" x="275.02" y="78.8"/><ellipse cx="290.02" cy="94.8" fill="#ADD1B2" rx="11" ry="11" style="stroke:#181818;stroke-width:1.0;"/><path d="M292.9888,100.4406 Q292.4106,100.7375 291.77,100.8781 Q291.1294,101.0344 290.4263,101.0344 Q287.9263,101.0344 286.5981,99.3938 Q285.2856,97.7375 285.2856,94.6125 Q285.2856,91.4875 286.5981,89.8313 Q287.9263,88.175 290.4263,88.175 Q291.1294,88.175 291.77,88.3313 Q292.4263,88.4875 292.9888,88.7844 L292.9888,91.5031 Q292.3638,90.925 291.77,90.6594 Q291.1763,90.3781 290.5513,90.3781 Q289.2075,90.3781 288.52,91.4563 Q287.8325,92.5188 287.8325,94.6125 Q287.8325,96.7063 288.52,97.7844 Q289.2075,98.8469 290.5513,98.8469 Q291.1763,98.8469 291.77,98.5813 Q292.3638,98.3 292.9888,97.7219 L292.9888,100.4406 Z " fill="#000000"/><text fill="#000000" font-family="sans-serif" font-size="14" lengthAdjust="spacing" textLength="93.9668" x="304.02" y="99.6467">M&#233;todosPago</text><line style="stroke:#181818;stroke-width:0.5;" x1="276.02" x2="399.9868" y1="110.8" y2="110.8"/><line style="stroke:#181818;stroke-width:0.5;" x1="276.02" x2="399.9868" y1="118.8" y2="118.8"/></g><!--class Abonos--><g id="elem_Abonos"><rect codeLine="10" fill="#F1F1F1" height="48" id="Abonos" rx="2.5" ry="2.5" style="stroke:#181818;stroke-width:0.5;" width="83.7617" x="156.12" y="78.8"/><ellipse cx="171.12" cy="94.8" fill="#ADD1B2" rx="11" ry="11" style="stroke:#181818;stroke-width:1.0;"/><path d="M174.0888,100.4406 Q173.5106,100.7375 172.87,100.8781 Q172.2294,101.0344 171.5263,101.0344 Q169.0263,101.0344 167.6981,99.3938 Q166.3856,97.7375 166.3856,94.6125 Q166.3856,91.4875 167.6981,89.8313 Q169.0263,88.175 171.5263,88.175 Q172.2294,88.175 172.87,88.3313 Q173.5263,88.4875 174.0888,88.7844 L174.0888,91.5031 Q173.4638,90.925 172.87,90.6594 Q172.2763,90.3781 171.6513,90.3781 Q170.3075,90.3781 169.62,91.4563 Q168.9325,92.5188 168.9325,94.6125 Q168.9325,96.7063 169.62,97.7844 Q170.3075,98.8469 171.6513,98.8469 Q172.2763,98.8469 172.87,98.5813 Q173.4638,98.3 174.0888,97.7219 L174.0888,100.4406 Z " fill="#000000"/><text fill="#000000" font-family="sans-serif" font-size="14" lengthAdjust="spacing" textLength="51.7617" x="185.12" y="99.6467">Abonos</text><line style="stroke:#181818;stroke-width:0.5;" x1="157.12" x2="238.8817" y1="110.8" y2="110.8"/><line style="stroke:#181818;stroke-width:0.5;" x1="157.12" x2="238.8817" y1="118.8" y2="118.8"/></g><!--class Conductor--><g id="elem_Conductor"><rect codeLine="12" fill="#F1F1F1" height="48" id="Conductor" rx="2.5" ry="2.5" style="stroke:#181818;stroke-width:0.5;" width="104.4814" x="435.76" y="78.8"/><ellipse cx="450.76" cy="94.8" fill="#ADD1B2" rx="11" ry="11" style="stroke:#181818;stroke-width:1.0;"/><path d="M453.7288,100.4406 Q453.1506,100.7375 452.51,100.8781 Q451.8694,101.0344 451.1663,101.0344 Q448.6663,101.0344 447.3381,99.3938 Q446.0256,97.7375 446.0256,94.6125 Q446.0256,91.4875 447.3381,89.8313 Q448.6663,88.175 451.1663,88.175 Q451.8694,88.175 452.51,88.3313 Q453.1663,88.4875 453.7288,88.7844 L453.7288,91.5031 Q453.1038,90.925 452.51,90.6594 Q451.9163,90.3781 451.2913,90.3781 Q449.9475,90.3781 449.26,91.4563 Q448.5725,92.5188 448.5725,94.6125 Q448.5725,96.7063 449.26,97.7844 Q449.9475,98.8469 451.2913,98.8469 Q451.9163,98.8469 452.51,98.5813 Q453.1038,98.3 453.7288,97.7219 L453.7288,100.4406 Z " fill="#000000"/><text fill="#000000" font-family="sans-serif" font-size="14" lengthAdjust="spacing" textLength="72.4814" x="464.76" y="99.6467">Conductor</text><line style="stroke:#181818;stroke-width:0.5;" x1="436.76" x2="539.2414" y1="110.8" y2="110.8"/><line style="stroke:#181818;stroke-width:0.5;" x1="436.76" x2="539.2414" y1="118.8" y2="118.8"/></g><!--class Veh?culo--><g id="elem_Veh&#237;culo"><rect codeLine="14" fill="#F1F1F1" height="48" id="Veh&#237;culo" rx="2.5" ry="2.5" style="stroke:#181818;stroke-width:0.5;" width="91.9785" x="251.01" y="203.8"/><ellipse cx="266.01" cy="219.8" fill="#ADD1B2" rx="11" ry="11" style="stroke:#181818;stroke-width:1.0;"/><path d="M268.9788,225.4406 Q268.4006,225.7375 267.76,225.8781 Q267.1194,226.0344 266.4163,226.0344 Q263.9163,226.0344 262.5881,224.3938 Q261.2756,222.7375 261.2756,219.6125 Q261.2756,216.4875 262.5881,214.8313 Q263.9163,213.175 266.4163,213.175 Q267.1194,213.175 267.76,213.3313 Q268.4163,213.4875 268.9788,213.7844 L268.9788,216.5031 Q268.3538,215.925 267.76,215.6594 Q267.1663,215.3781 266.5413,215.3781 Q265.1975,215.3781 264.51,216.4563 Q263.8225,217.5188 263.8225,219.6125 Q263.8225,221.7063 264.51,222.7844 Q265.1975,223.8469 266.5413,223.8469 Q267.1663,223.8469 267.76,223.5813 Q268.3538,223.3 268.9788,222.7219 L268.9788,225.4406 Z " fill="#000000"/><text fill="#000000" font-family="sans-serif" font-size="14" lengthAdjust="spacing" textLength="59.9785" x="280.01" y="224.6467">Veh&#237;culo</text><line style="stroke:#181818;stroke-width:0.5;" x1="252.01" x2="341.9885" y1="235.8" y2="235.8"/><line style="stroke:#181818;stroke-width:0.5;" x1="252.01" x2="341.9885" y1="243.8" y2="243.8"/></g><!--class Ruta--><g id="elem_Ruta"><rect codeLine="16" fill="#F1F1F1" height="48" id="Ruta" rx="2.5" ry="2.5" style="stroke:#181818;stroke-width:0.5;" width="64.6689" x="619.67" y="203.8"/><ellipse cx="634.67" cy="219.8" fill="#ADD1B2" rx="11" ry="11" style="stroke:#181818;stroke-width:1.0;"/><path d="M637.6388,225.4406 Q637.0606,225.7375 636.42,225.8781 Q635.7794,226.0344 635.0763,226.0344 Q632.5763,226.0344 631.2481,224.3938 Q629.9356,222.7375 629.9356,219.6125 Q629.9356,216.4875 631.2481,214.8313 Q632.5763,213.175 635.0763,213.175 Q635.7794,213.175 636.42,213.3313 Q637.0763,213.4875 637.6388,213.7844 L637.6388,216.5031 Q637.0138,215.925 636.42,215.6594 Q635.8263,215.3781 635.2013,215.3781 Q633.8575,215.3781 633.17,216.4563 Q632.4825,217.5188 632.4825,219.6125 Q632.4825,221.7063 633.17,222.7844 Q633.8575,223.8469 635.2013,223.8469 Q635.8263,223.8469 636.42,223.5813 Q637.0138,223.3 637.6388,222.7219 L637.6388,225.4406 Z " fill="#000000"/><text fill="#000000" font-family="sans-serif" font-size="14" lengthAdjust="spacing" textLength="32.6689" x="648.67" y="224.6467">Ruta</text><line style="stroke:#181818;stroke-width:0.5;" x1="620.67" x2="683.3389" y1="235.8" y2="235.8"/><line style="stroke:#181818;stroke-width:0.5;" x1="620.67" x2="683.3389" y1="243.8" y2="243.8"/></g><!--class Horarios--><g id="elem_Horarios"><rect codeLine="18" fill="#F1F1F1" height="48" id="Horarios" rx="2.5" ry="2.5" style="stroke:#181818;stroke-width:0.5;" width="90.9326" x="606.53" y="328.8"/><ellipse cx="621.53" cy="344.8" fill="#ADD1B2" rx="11" ry="11" style="stroke:#181818;stroke-width:1.0;"/><path d="M624.4988,350.4406 Q623.9206,350.7375 623.28,350.8781 Q622.6394,351.0344 621.9363,351.0344 Q619.4363,351.0344 618.1081,349.3938 Q616.7956,347.7375 616.7956,344.6125 Q616.7956,341.4875 618.1081,339.8313 Q619.4363,338.175 621.9363,338.175 Q622.6394,338.175 623.28,338.3313 Q623.9363,338.4875 624.4988,338.7844 L624.4988,341.5031 Q623.8738,340.925 623.28,340.6594 Q622.6863,340.3781 622.0613,340.3781 Q620.7175,340.3781 620.03,341.4563 Q619.3425,342.5188 619.3425,344.6125 Q619.3425,346.7063 620.03,347.7844 Q620.7175,348.8469 622.0613,348.8469 Q622.6863,348.8469 623.28,348.5813 Q623.8738,348.3 624.4988,347.7219 L624.4988,350.4406 Z " fill="#000000"/><text fill="#000000" font-family="sans-serif" font-size="14" lengthAdjust="spacing" textLength="58.9326" x="635.53" y="349.6467">Horarios</text><line style="stroke:#181818;stroke-width:0.5;" x1="607.53" x2="696.4626" y1="360.8" y2="360.8"/><line style="stroke:#181818;stroke-width:0.5;" x1="607.53" x2="696.4626" y1="368.8" y2="368.8"/></g><!--class Paradas--><g id="elem_Paradas"><rect codeLine="20" fill="#F1F1F1" height="48" id="Paradas" rx="2.5" ry="2.5" style="stroke:#181818;stroke-width:0.5;" width="88.1162" x="496.94" y="203.8"/><ellipse cx="511.94" cy="219.8" fill="#ADD1B2" rx="11" ry="11" style="stroke:#181818;stroke-width:1.0;"/><path d="M514.9088,225.4406 Q514.3306,225.7375 513.69,225.8781 Q513.0494,226.0344 512.3463,226.0344 Q509.8463,226.0344 508.5181,224.3938 Q507.2056,222.7375 507.2056,219.6125 Q507.2056,216.4875 508.5181,214.8313 Q509.8463,213.175 512.3463,213.175 Q513.0494,213.175 513.69,213.3313 Q514.3463,213.4875 514.9088,213.7844 L514.9088,216.5031 Q514.2838,215.925 513.69,215.6594 Q513.0963,215.3781 512.4713,215.3781 Q511.1275,215.3781 510.44,216.4563 Q509.7525,217.5188 509.7525,219.6125 Q509.7525,221.7063 510.44,222.7844 Q511.1275,223.8469 512.4713,223.8469 Q513.0963,223.8469 513.69,223.5813 Q514.2838,223.3 514.9088,222.7219 L514.9088,225.4406 Z " fill="#000000"/><text fill="#000000" font-family="sans-serif" font-size="14" lengthAdjust="spacing" textLength="56.1162" x="525.94" y="224.6467">Paradas</text><line style="stroke:#181818;stroke-width:0.5;" x1="497.94" x2="584.0562" y1="235.8" y2="235.8"/><line style="stroke:#181818;stroke-width:0.5;" x1="497.94" x2="584.0562" y1="243.8" y2="243.8"/></g><!--class Flota--><g id="elem_Flota"><rect codeLine="22" fill="#F1F1F1" height="48" id="Flota" rx="2.5" ry="2.5" style="stroke:#181818;stroke-width:0.5;" width="66.5762" x="719.71" y="203.8"/><ellipse cx="734.71" cy="219.8" fill="#ADD1B2" rx="11" ry="11" style="stroke:#181818;stroke-width:1.0;"/><path d="M737.6788,225.4406 Q737.1006,225.7375 736.46,225.8781 Q735.8194,226.0344 735.1163,226.0344 Q732.6163,226.0344 731.2881,224.3938 Q729.9756,222.7375 729.9756,219.6125 Q729.9756,216.4875 731.2881,214.8313 Q732.6163,213.175 735.1163,213.175 Q735.8194,213.175 736.46,213.3313 Q737.1163,213.4875 737.6788,213.7844 L737.6788,216.5031 Q737.0538,215.925 736.46,215.6594 Q735.8663,215.3781 735.2413,215.3781 Q733.8975,215.3781 733.21,216.4563 Q732.5225,217.5188 732.5225,219.6125 Q732.5225,221.7063 733.21,222.7844 Q733.8975,223.8469 735.2413,223.8469 Q735.8663,223.8469 736.46,223.5813 Q737.0538,223.3 737.6788,222.7219 L737.6788,225.4406 Z " fill="#000000"/><text fill="#000000" font-family="sans-serif" font-size="14" lengthAdjust="spacing" textLength="34.5762" x="748.71" y="224.6467">Flota</text><line style="stroke:#181818;stroke-width:0.5;" x1="720.71" x2="785.2862" y1="235.8" y2="235.8"/><line style="stroke:#181818;stroke-width:0.5;" x1="720.71" x2="785.2862" y1="243.8" y2="243.8"/></g><!--class Servicio--><g id="elem_Servicio"><rect codeLine="24" fill="#F1F1F1" height="48" id="Servicio" rx="2.5" ry="2.5" style="stroke:#181818;stroke-width:0.5;" width="87.583" x="698.21" y="78.8"/><ellipse cx="713.21" cy="94.8" fill="#ADD1B2" rx="11" ry="11" style="stroke:#181818;stroke-width:1.0;"/><path d="M716.1788,100.4406 Q715.6006,100.7375 714.96,100.8781 Q714.3194,101.0344 713.6163,101.0344 Q711.1163,101.0344 709.7881,99.3938 Q708.4756,97.7375 708.4756,94.6125 Q708.4756,91.4875 709.7881,89.8313 Q711.1163,88.175 713.6163,88.175 Q714.3194,88.175 714.96,88.3313 Q715.6163,88.4875 716.1788,88.7844 L716.1788,91.5031 Q715.5538,90.925 714.96,90.6594 Q714.3663,90.3781 713.7413,90.3781 Q712.3975,90.3781 711.71,91.4563 Q711.0225,92.5188 711.0225,94.6125 Q711.0225,96.7063 711.71,97.7844 Q712.3975,98.8469 713.7413,98.8469 Q714.3663,98.8469 714.96,98.5813 Q715.5538,98.3 716.1788,97.7219 L716.1788,100.4406 Z " fill="#000000"/><text fill="#000000" font-family="sans-serif" font-size="14" lengthAdjust="spacing" textLength="55.583" x="727.21" y="99.6467">Servicio</text><line style="stroke:#181818;stroke-width:0.5;" x1="699.21" x2="784.793" y1="110.8" y2="110.8"/><line style="stroke:#181818;stroke-width:0.5;" x1="699.21" x2="784.793" y1="118.8" y2="118.8"/></g><!--class Incidencia--><g id="elem_Incidencia"><rect fill="#F1F1F1" height="48" id="Incidencia" rx="2.5" ry="2.5" style="stroke:#181818;stroke-width:0.5;" width="103.1279" x="245.44" y="328.8"/><ellipse cx="260.44" cy="344.8" fill="#ADD1B2" rx="11" ry="11" style="stroke:#181818;stroke-width:1.0;"/><path d="M263.4088,350.4406 Q262.8306,350.7375 262.19,350.8781 Q261.5494,351.0344 260.8463,351.0344 Q258.3463,351.0344 257.0181,349.3938 Q255.7056,347.7375 255.7056,344.6125 Q255.7056,341.4875 257.0181,339.8313 Q258.3463,338.175 260.8463,338.175 Q261.5494,338.175 262.19,338.3313 Q262.8463,338.4875 263.4088,338.7844 L263.4088,341.5031 Q262.7838,340.925 262.19,340.6594 Q261.5963,340.3781 260.9713,340.3781 Q259.6275,340.3781 258.94,341.4563 Q258.2525,342.5188 258.2525,344.6125 Q258.2525,346.7063 258.94,347.7844 Q259.6275,348.8469 260.9713,348.8469 Q261.5963,348.8469 262.19,348.5813 Q262.7838,348.3 263.4088,347.7219 L263.4088,350.4406 Z " fill="#000000"/><text fill="#000000" font-family="sans-serif" font-size="14" lengthAdjust="spacing" textLength="71.1279" x="274.44" y="349.6467">Incidencia</text><line style="stroke:#181818;stroke-width:0.5;" x1="246.44" x2="347.5679" y1="360.8" y2="360.8"/><line style="stroke:#181818;stroke-width:0.5;" x1="246.44" x2="347.5679" y1="368.8" y2="368.8"/></g><!--link Pasajeros to Persona--><g id="link_Pasajeros_Persona"><path codeLine="27" d="M88.08,78.53 C103.03,58.47 127.36,31.58 156.5,20.8 C196.52,6 500.48,6 540.5,20.8 C568.6,31.19 584.3061,48.1905 597.8761,68.3805 " fill="none" id="Pasajeros-to-Persona" style="stroke:#181818;stroke-width:1.0;"/><polygon fill="#181818" points="604.57,78.34,604.5429,71.1289,597.8761,68.3805,597.9032,75.5916,604.57,78.34" style="stroke:#181818;stroke-width:1.0;"/></g><!--link Conductor to Persona--><g id="link_Conductor_Persona"><path codeLine="28" d="M540.71,102.8 C552.02,102.8 551.34,102.8 562.65,102.8 " fill="none" id="Conductor-to-Persona" style="stroke:#181818;stroke-width:1.0;"/><polygon fill="#181818" points="574.65,102.8,568.65,98.8,562.65,102.8,568.65,106.8,574.65,102.8" style="stroke:#181818;stroke-width:1.0;"/></g><!--link Pasajeros to Tarifas--><g id="link_Pasajeros_Tarifas"><path codeLine="29" d="M75.61,127.05 C78.79,141.63 84.6,160.17 95,173.8 C105.51,187.58 115.5373,195.8193 129.8473,204.4193 " fill="none" id="Pasajeros-to-Tarifas" style="stroke:#181818;stroke-width:1.0;"/><polygon fill="#181818" points="134.99,207.51,129.3363,199.4455,130.7044,204.9344,125.2154,206.3025,134.99,207.51" style="stroke:#181818;stroke-width:1.0;"/><text fill="#000000" font-family="sans-serif" font-size="13" lengthAdjust="spacing" textLength="40.6758" x="96" y="169.8669">pagan</text></g><!--link M?todosPago to Tarifas--><g id="link_M&#233;todosPago_Tarifas"><path codeLine="30" d="M306.96,127.22 C277.95,149.11 239.6789,177.9852 210.7189,199.8452 " fill="none" id="M&#233;todosPago-to-Tarifas" style="stroke:#181818;stroke-width:1.0;"/><polygon fill="#181818" points="205.93,203.46,215.5232,201.2304,209.9207,200.4477,210.7034,194.8452,205.93,203.46" style="stroke:#181818;stroke-width:1.0;"/><text fill="#000000" font-family="sans-serif" font-size="13" lengthAdjust="spacing" textLength="75.6323" x="267" y="169.8669">se emplean</text></g><!--link Abonos to M?todosPago--><g id="link_Abonos_M&#233;todosPago"><path codeLine="31" d="M240.11,102.8 C251.58,102.8 251.05,102.8 262.52,102.8 " fill="none" id="Abonos-to-M&#233;todosPago" style="stroke:#181818;stroke-width:1.0;"/><polygon fill="#181818" points="274.52,102.8,268.52,98.8,262.52,102.8,268.52,106.8,274.52,102.8" style="stroke:#181818;stroke-width:1.0;"/></g><!--link Conductor to Veh?culo--><g id="link_Conductor_Veh&#237;culo"><path codeLine="32" d="M442.84,127.15 C426.55,135.99 408.19,146.43 392,156.8 C369.4,171.28 349.8093,185.6164 331.4293,199.7264 " fill="none" id="Conductor-to-Veh&#237;culo" style="stroke:#181818;stroke-width:1.0;"/><polygon fill="#181818" points="326.67,203.38,336.2447,201.0724,330.6361,200.3353,331.3732,194.7267,326.67,203.38" style="stroke:#181818;stroke-width:1.0;"/><text fill="#000000" font-family="sans-serif" font-size="13" lengthAdjust="spacing" textLength="54.9771" x="393" y="169.8669">conduce</text></g><!--link Conductor to Ruta--><g id="link_Conductor_Ruta"><path codeLine="33" d="M519.23,127.22 C548.41,149.11 586.9404,177.9995 616.0804,199.8595 " fill="none" id="Conductor-to-Ruta" style="stroke:#181818;stroke-width:1.0;"/><polygon fill="#181818" points="620.88,203.46,616.0809,194.8595,616.8803,200.4596,611.2802,201.2589,620.88,203.46" style="stroke:#181818;stroke-width:1.0;"/><text fill="#000000" font-family="sans-serif" font-size="13" lengthAdjust="spacing" textLength="34.874" x="580" y="169.8669">sigue</text></g><!--link Veh?culo to Incidencia--><g id="link_Veh&#237;culo_Incidencia"><path codeLine="34" d="M297,252.22 C297,274.11 297,300.6 297,322.46 " fill="none" id="Veh&#237;culo-to-Incidencia" style="stroke:#181818;stroke-width:1.0;"/><polygon fill="#181818" points="297,328.46,301,319.46,297,323.46,293,319.46,297,328.46" style="stroke:#181818;stroke-width:1.0;"/><text fill="#000000" font-family="sans-serif" font-size="13" lengthAdjust="spacing" textLength="32.9316" x="298" y="294.8669">sufre</text></g><!--link Incidencia to Pasajeros--><g id="link_Incidencia_Pasajeros"><path codeLine="35" d="M245.25,344.34 C192.71,333.73 113.87,308.8 76,251.8 C50.96,214.12 58.46,158.3 65.59,127.09 " fill="none" id="Incidencia-Pasajeros" style="stroke:#181818;stroke-width:1.0;stroke-dasharray:7.0,7.0;"/><text fill="#000000" font-family="sans-serif" font-size="13" lengthAdjust="spacing" textLength="40.752" x="77" y="232.3669">afecta</text></g><!--link Conductor to Incidencia--><g id="link_Conductor_Incidencia"><path codeLine="36" d="M477.67,127.29 C471.1,141.27 461.97,159.09 452,173.8 C430.21,205.94 359.8111,283.6132 322.5911,324.0932 " fill="none" id="Conductor-to-Incidencia" style="stroke:#181818;stroke-width:1.0;"/><polygon fill="#181818" points="318.53,328.51,327.5661,324.5922,321.9142,324.8294,321.6771,319.1775,318.53,328.51" style="stroke:#181818;stroke-width:1.0;"/><text fill="#000000" font-family="sans-serif" font-size="13" lengthAdjust="spacing" textLength="47.9565" x="429" y="232.3669">reporta</text></g><!--link Pasajeros to Veh?culo--><g id="link_Pasajeros_Veh&#237;culo"><path codeLine="37" d="M105.25,127.2 C126.21,141.49 154.12,159.65 180,173.8 C202.7,186.21 223.3464,195.8603 245.1564,205.3303 " fill="none" id="Pasajeros-to-Veh&#237;culo" style="stroke:#181818;stroke-width:1.0;"/><polygon fill="#181818" points="250.66,207.72,243.9977,200.4664,246.0737,205.7286,240.8115,207.8045,250.66,207.72" style="stroke:#181818;stroke-width:1.0;"/><text fill="#000000" font-family="sans-serif" font-size="13" lengthAdjust="spacing" textLength="56.729" x="181" y="169.8669">emplean</text></g><!--link Ruta to Horarios--><g id="link_Ruta_Horarios"><path codeLine="38" d="M652,252.22 C652,274.11 652,300.6 652,322.46 " fill="none" id="Ruta-to-Horarios" style="stroke:#181818;stroke-width:1.0;"/><polygon fill="#181818" points="652,328.46,656,319.46,652,323.46,648,319.46,652,328.46" style="stroke:#181818;stroke-width:1.0;"/><text fill="#000000" font-family="sans-serif" font-size="13" lengthAdjust="spacing" textLength="32.9443" x="653" y="294.8669">tiene</text></g><!--link Paradas to Ruta--><g id="link_Paradas_Ruta"><path codeLine="39" d="M585.23,227.8 C596.62,227.8 596.01,227.8 607.4,227.8 " fill="none" id="Paradas-to-Ruta" style="stroke:#181818;stroke-width:1.0;"/><polygon fill="#181818" points="619.4,227.8,613.4,223.8,607.4,227.8,613.4,231.8,619.4,227.8" style="stroke:#181818;stroke-width:1.0;"/></g><!--link Veh?culo to Flota--><g id="link_Veh&#237;culo_Flota"><path codeLine="40" d="M322.81,203.61 C339.78,189.43 363.26,172.86 387.5,165.3 C513.52,126.01 561.42,117.59 684.5,165.3 C704.31,172.98 713.9763,180.3569 726.3663,194.4169 " fill="none" id="Veh&#237;culo-to-Flota" style="stroke:#181818;stroke-width:1.0;"/><polygon fill="#181818" points="734.3,203.42,733.3342,196.2739,726.3663,194.4169,727.3321,201.563,734.3,203.42" style="stroke:#181818;stroke-width:1.0;"/></g><!--link Servicio to Ruta--><g id="link_Servicio_Ruta"><path codeLine="41" d="M719.79,127.06 C711.63,136.06 702.55,146.63 695,156.8 C683.95,171.69 676.0477,184.3183 667.9777,198.2483 " fill="none" id="Servicio-to-Ruta" style="stroke:#181818;stroke-width:1.0;"/><polygon fill="#181818" points="664.97,203.44,672.9427,197.6576,667.4764,199.1136,666.0204,193.6473,664.97,203.44" style="stroke:#181818;stroke-width:1.0;"/><text fill="#000000" font-family="sans-serif" font-size="13" lengthAdjust="spacing" textLength="41.0186" x="696" y="169.8669">ofrece</text></g><!--link Servicio to Flota--><g id="link_Servicio_Flota"><path codeLine="42" d="M744.09,127.22 C746.05,149.11 748.4269,175.6237 750.3769,197.4837 " fill="none" id="Servicio-to-Flota" style="stroke:#181818;stroke-width:1.0;"/><polygon fill="#181818" points="750.91,203.46,754.0945,194.1402,750.4657,198.4798,746.1262,194.851,750.91,203.46" style="stroke:#181818;stroke-width:1.0;"/><text fill="#000000" font-family="sans-serif" font-size="13" lengthAdjust="spacing" textLength="41.0186" x="749" y="169.8669">ofrece</text></g><!--SRC=[NL8nRiCm3Dpv2Y9ZWUG16GeK1OfsA60qGNT6fbsrZcX8SfSW3-hG3tJrnogfjItBWuQxu_58kYVrGItZvg2TvpFXqP9nlLZFM8q_fquhsU05C7og8-UmOkl4q0MkEKYEtjcAMyD7ihgX0dmUlxpKuYfgPStSdSIK5lTYwa5viMlubT_6RpLqXSFBu8jaZs93YDAr8ajr6UoXaxBwmFPJAvswm3maRc-cDS2SBmSpvVPssWBkiQUM3EGBA0IEaSzznq7rjupecklpVg5oNaEeLOdXHH45SI7HLxS3mwAEr9DHkkRm9C7GM8OCsksMemQU6bO-dxQmsAFb-DUKiyyjz_DWALBafjC4Uw_PCFnV9SwSHBWa3b0w3qmNmMmw2TaLuvfByfa4WEil]--></g></svg>