<svg xmlns="http://www.w3.org/2000/svg" xmlns:xlink="http://www.w3.org/1999/xlink" contentStyleType="text/css" height="468px" preserveAspectRatio="none" style="width:469px;height:468px;background:#FFFFFF;" version="1.1" viewBox="0 0 469 468" width="469px" zoomAndPan="magnify"><defs/><g><!--class Yo--><g id="elem_Yo"><rect codeLine="1" fill="#F1F1F1" height="48" id="Yo" rx="2.5" ry="2.5" style="stroke:#181818;stroke-width:0.5;" width="49.1172" x="290" y="7"/><ellipse cx="305" cy="23" fill="#ADD1B2" rx="11" ry="11" style="stroke:#181818;stroke-width:1.0;"/><path d="M307.9688,28.6406 Q307.3906,28.9375 306.75,29.0781 Q306.1094,29.2344 305.4063,29.2344 Q302.9063,29.2344 301.5781,27.5938 Q300.2656,25.9375 300.2656,22.8125 Q300.2656,19.6875 301.5781,18.0313 Q302.9063,16.375 305.4063,16.375 Q306.1094,16.375 306.75,16.5313 Q307.4063,16.6875 307.9688,16.9844 L307.9688,19.7031 Q307.3438,19.125 306.75,18.8594 Q306.1563,18.5781 305.5313,18.5781 Q304.1875,18.5781 303.5,19.6563 Q302.8125,20.7188 302.8125,22.8125 Q302.8125,24.9063 303.5,25.9844 Q304.1875,27.0469 305.5313,27.0469 Q306.1563,27.0469 306.75,26.7813 Q307.3438,26.5 307.9688,25.9219 L307.9688,28.6406 Z " fill="#000000"/><text fill="#000000" font-family="sans-serif" font-size="14" lengthAdjust="spacing" textLength="17.1172" x="319" y="27.8467">Yo</text><line style="stroke:#181818;stroke-width:0.5;" x1="291" x2="338.1172" y1="39" y2="39"/><line style="stroke:#181818;stroke-width:0.5;" x1="291" x2="338.1172" y1="47" y2="47"/></g><!--class Tiempo--><g id="elem_Tiempo"><rect fill="#F1F1F1" height="48" id="Tiempo" rx="2.5" ry="2.5" style="stroke:#181818;stroke-width:0.5;" width="84.1445" x="207.5" y="132"/><ellipse cx="222.5" cy="148" fill="#ADD1B2" rx="11" ry="11" style="stroke:#181818;stroke-width:1.0;"/><path d="M225.4688,153.6406 Q224.8906,153.9375 224.25,154.0781 Q223.6094,154.2344 222.9063,154.2344 Q220.4063,154.2344 219.0781,152.5938 Q217.7656,150.9375 217.7656,147.8125 Q217.7656,144.6875 219.0781,143.0313 Q220.4063,141.375 222.9063,141.375 Q223.6094,141.375 224.25,141.5313 Q224.9063,141.6875 225.4688,141.9844 L225.4688,144.7031 Q224.8438,144.125 224.25,143.8594 Q223.6563,143.5781 223.0313,143.5781 Q221.6875,143.5781 221,144.6563 Q220.3125,145.7188 220.3125,147.8125 Q220.3125,149.9063 221,150.9844 Q221.6875,152.0469 223.0313,152.0469 Q223.6563,152.0469 224.25,151.7813 Q224.8438,151.5 225.4688,150.9219 L225.4688,153.6406 Z " fill="#000000"/><text fill="#000000" font-family="sans-serif" font-size="14" lengthAdjust="spacing" textLength="52.1445" x="236.5" y="152.8467">Tiempo</text><line style="stroke:#181818;stroke-width:0.5;" x1="208.5" x2="290.6445" y1="164" y2="164"/><line style="stroke:#181818;stroke-width:0.5;" x1="208.5" x2="290.6445" y1="172" y2="172"/></g><!--class Transporte_Publico--><g id="elem_Transporte_Publico"><rect fill="#F1F1F1" height="48" id="Transporte_Publico" rx="2.5" ry="2.5" style="stroke:#181818;stroke-width:0.5;" width="165.6084" x="296.5" y="210"/><ellipse cx="311.5" cy="226" fill="#ADD1B2" rx="11" ry="11" style="stroke:#181818;stroke-width:1.0;"/><path d="M314.4688,231.6406 Q313.8906,231.9375 313.25,232.0781 Q312.6094,232.2344 311.9063,232.2344 Q309.4063,232.2344 308.0781,230.5938 Q306.7656,228.9375 306.7656,225.8125 Q306.7656,222.6875 308.0781,221.0313 Q309.4063,219.375 311.9063,219.375 Q312.6094,219.375 313.25,219.5313 Q313.9063,219.6875 314.4688,219.9844 L314.4688,222.7031 Q313.8438,222.125 313.25,221.8594 Q312.6563,221.5781 312.0313,221.5781 Q310.6875,221.5781 310,222.6563 Q309.3125,223.7188 309.3125,225.8125 Q309.3125,227.9063 310,228.9844 Q310.6875,230.0469 312.0313,230.0469 Q312.6563,230.0469 313.25,229.7813 Q313.8438,229.5 314.4688,228.9219 L314.4688,231.6406 Z " fill="#000000"/><text fill="#000000" font-family="sans-serif" font-size="14" lengthAdjust="spacing" textLength="133.6084" x="325.5" y="230.8467">Transporte_Publico</text><line style="stroke:#181818;stroke-width:0.5;" x1="297.5" x2="461.1084" y1="242" y2="242"/><line style="stroke:#181818;stroke-width:0.5;" x1="297.5" x2="461.1084" y1="250" y2="250"/></g><!--class Hospital--><g id="elem_Hospital"><rect fill="#F1F1F1" height="48" id="Hospital" rx="2.5" ry="2.5" style="stroke:#181818;stroke-width:0.5;" width="89.1211" x="296" y="413"/><ellipse cx="311" cy="429" fill="#ADD1B2" rx="11" ry="11" style="stroke:#181818;stroke-width:1.0;"/><path d="M313.9688,434.6406 Q313.3906,434.9375 312.75,435.0781 Q312.1094,435.2344 311.4063,435.2344 Q308.9063,435.2344 307.5781,433.5938 Q306.2656,431.9375 306.2656,428.8125 Q306.2656,425.6875 307.5781,424.0313 Q308.9063,422.375 311.4063,422.375 Q312.1094,422.375 312.75,422.5313 Q313.4063,422.6875 313.9688,422.9844 L313.9688,425.7031 Q313.3438,425.125 312.75,424.8594 Q312.1563,424.5781 311.5313,424.5781 Q310.1875,424.5781 309.5,425.6563 Q308.8125,426.7188 308.8125,428.8125 Q308.8125,430.9063 309.5,431.9844 Q310.1875,433.0469 311.5313,433.0469 Q312.1563,433.0469 312.75,432.7813 Q313.3438,432.5 313.9688,431.9219 L313.9688,434.6406 Z " fill="#000000"/><text fill="#000000" font-family="sans-serif" font-size="14" lengthAdjust="spacing" textLength="57.1211" x="325" y="433.8467">Hospital</text><line style="stroke:#181818;stroke-width:0.5;" x1="297" x2="384.1211" y1="445" y2="445"/><line style="stroke:#181818;stroke-width:0.5;" x1="297" x2="384.1211" y1="453" y2="453"/></g><!--class Salud--><g id="elem_Salud"><rect fill="#F1F1F1" height="48" id="Salud" rx="2.5" ry="2.5" style="stroke:#181818;stroke-width:0.5;" width="71.1152" x="238" y="288"/><ellipse cx="253" cy="304" fill="#ADD1B2" rx="11" ry="11" style="stroke:#181818;stroke-width:1.0;"/><path d="M255.9688,309.6406 Q255.3906,309.9375 254.75,310.0781 Q254.1094,310.2344 253.4063,310.2344 Q250.9063,310.2344 249.5781,308.5938 Q248.2656,306.9375 248.2656,303.8125 Q248.2656,300.6875 249.5781,299.0313 Q250.9063,297.375 253.4063,297.375 Q254.1094,297.375 254.75,297.5313 Q255.4063,297.6875 255.9688,297.9844 L255.9688,300.7031 Q255.3438,300.125 254.75,299.8594 Q254.1563,299.5781 253.5313,299.5781 Q252.1875,299.5781 251.5,300.6563 Q250.8125,301.7188 250.8125,303.8125 Q250.8125,305.9063 251.5,306.9844 Q252.1875,308.0469 253.5313,308.0469 Q254.1563,308.0469 254.75,307.7813 Q255.3438,307.5 255.9688,306.9219 L255.9688,309.6406 Z " fill="#000000"/><text fill="#000000" font-family="sans-serif" font-size="14" lengthAdjust="spacing" textLength="39.1152" x="267" y="308.8467">Salud</text><line style="stroke:#181818;stroke-width:0.5;" x1="239" x2="308.1152" y1="320" y2="320"/><line style="stroke:#181818;stroke-width:0.5;" x1="239" x2="308.1152" y1="328" y2="328"/></g><!--class Internet--><g id="elem_Internet"><rect fill="#F1F1F1" height="48" id="Internet" rx="2.5" ry="2.5" style="stroke:#181818;stroke-width:0.5;" width="87.8359" x="114.5" y="288"/><ellipse cx="129.5" cy="304" fill="#ADD1B2" rx="11" ry="11" style="stroke:#181818;stroke-width:1.0;"/><path d="M132.4688,309.6406 Q131.8906,309.9375 131.25,310.0781 Q130.6094,310.2344 129.9063,310.2344 Q127.4063,310.2344 126.0781,308.5938 Q124.7656,306.9375 124.7656,303.8125 Q124.7656,300.6875 126.0781,299.0313 Q127.4063,297.375 129.9063,297.375 Q130.6094,297.375 131.25,297.5313 Q131.9063,297.6875 132.4688,297.9844 L132.4688,300.7031 Q131.8438,300.125 131.25,299.8594 Q130.6563,299.5781 130.0313,299.5781 Q128.6875,299.5781 128,300.6563 Q127.3125,301.7188 127.3125,303.8125 Q127.3125,305.9063 128,306.9844 Q128.6875,308.0469 130.0313,308.0469 Q130.6563,308.0469 131.25,307.7813 Q131.8438,307.5 132.4688,306.9219 L132.4688,309.6406 Z " fill="#000000"/><text fill="#000000" font-family="sans-serif" font-size="14" lengthAdjust="spacing" textLength="55.8359" x="143.5" y="308.8467">Internet</text><line style="stroke:#181818;stroke-width:0.5;" x1="115.5" x2="201.3359" y1="320" y2="320"/><line style="stroke:#181818;stroke-width:0.5;" x1="115.5" x2="201.3359" y1="328" y2="328"/></g><!--class Repos--><g id="elem_Repos"><rect fill="#F1F1F1" height="48" id="Repos" rx="2.5" ry="2.5" style="stroke:#181818;stroke-width:0.5;" width="75.0869" x="147" y="413"/><ellipse cx="162" cy="429" fill="#ADD1B2" rx="11" ry="11" style="stroke:#181818;stroke-width:1.0;"/><path d="M164.9688,434.6406 Q164.3906,434.9375 163.75,435.0781 Q163.1094,435.2344 162.4063,435.2344 Q159.9063,435.2344 158.5781,433.5938 Q157.2656,431.9375 157.2656,428.8125 Q157.2656,425.6875 158.5781,424.0313 Q159.9063,422.375 162.4063,422.375 Q163.1094,422.375 163.75,422.5313 Q164.4063,422.6875 164.9688,422.9844 L164.9688,425.7031 Q164.3438,425.125 163.75,424.8594 Q163.1563,424.5781 162.5313,424.5781 Q161.1875,424.5781 160.5,425.6563 Q159.8125,426.7188 159.8125,428.8125 Q159.8125,430.9063 160.5,431.9844 Q161.1875,433.0469 162.5313,433.0469 Q163.1563,433.0469 163.75,432.7813 Q164.3438,432.5 164.9688,431.9219 L164.9688,434.6406 Z " fill="#000000"/><text fill="#000000" font-family="sans-serif" font-size="14" lengthAdjust="spacing" textLength="43.0869" x="176" y="433.8467">Repos</text><line style="stroke:#181818;stroke-width:0.5;" x1="148" x2="221.0869" y1="445" y2="445"/><line style="stroke:#181818;stroke-width:0.5;" x1="148" x2="221.0869" y1="453" y2="453"/></g><!--class Streaming--><g id="elem_Streaming"><rect fill="#F1F1F1" height="48" id="Streaming" rx="2.5" ry="2.5" style="stroke:#181818;stroke-width:0.5;" width="104.6113" x="7" y="413"/><ellipse cx="22" cy="429" fill="#ADD1B2" rx="11" ry="11" style="stroke:#181818;stroke-width:1.0;"/><path d="M24.9688,434.6406 Q24.3906,434.9375 23.75,435.0781 Q23.1094,435.2344 22.4063,435.2344 Q19.9063,435.2344 18.5781,433.5938 Q17.2656,431.9375 17.2656,428.8125 Q17.2656,425.6875 18.5781,424.0313 Q19.9063,422.375 22.4063,422.375 Q23.1094,422.375 23.75,422.5313 Q24.4063,422.6875 24.9688,422.9844 L24.9688,425.7031 Q24.3438,425.125 23.75,424.8594 Q23.1563,424.5781 22.5313,424.5781 Q21.1875,424.5781 20.5,425.6563 Q19.8125,426.7188 19.8125,428.8125 Q19.8125,430.9063 20.5,431.9844 Q21.1875,433.0469 22.5313,433.0469 Q23.1563,433.0469 23.75,432.7813 Q24.3438,432.5 24.9688,431.9219 L24.9688,434.6406 Z " fill="#000000"/><text fill="#000000" font-family="sans-serif" font-size="14" lengthAdjust="spacing" textLength="72.6113" x="36" y="433.8467">Streaming</text><line style="stroke:#181818;stroke-width:0.5;" x1="8" x2="110.6113" y1="445" y2="445"/><line style="stroke:#181818;stroke-width:0.5;" x1="8" x2="110.6113" y1="453" y2="453"/></g><!--link Yo to Tiempo--><g id="link_Yo_Tiempo"><path codeLine="3" d="M302.27,55.14 C290.65,77.13 276.0724,104.7047 264.4724,126.6647 " fill="none" id="Yo-to-Tiempo" style="stroke:#181818;stroke-width:1.0;"/><polygon fill="#181818" points="261.67,131.97,269.4105,125.8803,264.0054,127.5489,262.3368,122.1437,261.67,131.97" style="stroke:#181818;stroke-width:1.0;"/><text fill="#000000" font-family="sans-serif" font-size="13" lengthAdjust="spacing" textLength="30.9448" x="286.5" y="98.0669">paso</text></g><!--link Yo to Transporte_Publico--><g id="link_Yo_Transporte_Publico"><path codeLine="4" d="M321.96,55.06 C334.46,93.73 357.6741,165.501 370.1841,204.191 " fill="none" id="Yo-to-Transporte_Publico" style="stroke:#181818;stroke-width:1.0;"/><polygon fill="#181818" points="372.03,209.9,373.0671,200.1059,370.4917,205.1425,365.4551,202.5671,372.03,209.9" style="stroke:#181818;stroke-width:1.0;"/><text fill="#000000" font-family="sans-serif" font-size="13" lengthAdjust="spacing" textLength="22.9785" x="336.5" y="98.0669">usa</text></g><!--link Transporte_Publico to Hospital--><g id="link_Transporte_Publico_Hospital"><path codeLine="5" d="M377.25,258.04 C374.12,287.33 367.67,339.36 357.5,383 C355.2,392.88 353.8174,397.8779 350.7574,407.0579 " fill="none" id="Transporte_Publico-to-Hospital" style="stroke:#181818;stroke-width:1.0;"/><polygon fill="#181818" points="348.86,412.75,355.5008,405.4768,350.4411,408.0066,347.9113,402.9469,348.86,412.75" style="stroke:#181818;stroke-width:1.0;"/><text fill="#000000" font-family="sans-serif" font-size="13" lengthAdjust="spacing" textLength="8.9565" x="374.5" y="316.5669">ir</text></g><!--link Tiempo to Salud--><g id="link_Tiempo_Salud"><path codeLine="6" d="M241.38,180.35 C235.4,201.14 229.56,232.18 237.5,258 C240.77,268.63 243.4559,274.184 249.8059,282.934 " fill="none" id="Tiempo-to-Salud" style="stroke:#181818;stroke-width:1.0;"/><polygon fill="#181818" points="253.33,287.79,251.2812,278.1566,250.3933,283.7433,244.8065,282.8554,253.33,287.79" style="stroke:#181818;stroke-width:1.0;"/><text fill="#000000" font-family="sans-serif" font-size="13" lengthAdjust="spacing" textLength="40.752" x="238.5" y="238.5669">afecta</text></g><!--link Salud to Hospital--><g id="link_Salud_Hospital"><path codeLine="7" d="M271.66,336.26 C271.52,350.49 273.15,368.65 280.5,383 C286.39,394.5 291.3397,400.7643 301.0897,409.0143 " fill="none" id="Salud-to-Hospital" style="stroke:#181818;stroke-width:1.0;"/><polygon fill="#181818" points="305.67,412.89,301.3833,404.023,301.8531,409.6603,296.2158,410.1301,305.67,412.89" style="stroke:#181818;stroke-width:1.0;"/><text fill="#000000" font-family="sans-serif" font-size="13" lengthAdjust="spacing" textLength="71.1826" x="281.5" y="379.0669">mala salud</text></g><!--link Tiempo to Internet--><g id="link_Tiempo_Internet"><path codeLine="8" d="M207.17,178.94 C195.18,187.13 183.28,197.53 175.5,210 C160.72,233.68 157.7087,260.3001 157.5687,281.9901 " fill="none" id="Tiempo-to-Internet" style="stroke:#181818;stroke-width:1.0;"/><polygon fill="#181818" points="157.53,287.99,161.588,279.016,157.5623,282.9901,153.5882,278.9644,157.53,287.99" style="stroke:#181818;stroke-width:1.0;"/><text fill="#000000" font-family="sans-serif" font-size="13" lengthAdjust="spacing" textLength="48.4771" x="176.5" y="238.5669">empleo</text></g><!--link Internet to Repos--><g id="link_Internet_Repos"><path codeLine="9" d="M163.39,336.14 C168.04,358.13 173.7496,385.1396 178.3896,407.0996 " fill="none" id="Internet-to-Repos" style="stroke:#181818;stroke-width:1.0;"/><polygon fill="#181818" points="179.63,412.97,181.683,403.3375,178.5964,408.078,173.8558,404.9913,179.63,412.97" style="stroke:#181818;stroke-width:1.0;"/><text fill="#000000" font-family="sans-serif" font-size="13" lengthAdjust="spacing" textLength="22.9658" x="173.5" y="379.0669">uso</text></g><!--link Internet to Streaming--><g id="link_Internet_Streaming"><path codeLine="10" d="M139.88,336.14 C122.18,358.13 99.4714,386.3354 81.8014,408.2954 " fill="none" id="Internet-to-Streaming" style="stroke:#181818;stroke-width:1.0;"/><polygon fill="#181818" points="78.04,412.97,86.7985,408.4657,81.1745,409.0745,80.5657,403.4505,78.04,412.97" style="stroke:#181818;stroke-width:1.0;"/><text fill="#000000" font-family="sans-serif" font-size="13" lengthAdjust="spacing" textLength="23.645" x="116.5" y="379.0669">veo</text></g><!--SRC=[ROun3i8m301tly8Vw0SOc653bAKJCi6WI4uSnIxlRmAeGXMZxywMWv0PJWemAGx37Y-HKr7SOI7J5LRALhGwNq_pJMBemMm4VqJl3sebEachOeNloIv6aldUA3quEC5dt6ma4aBhvdVpc9rhPcz1Oy8AA-dwp4Nj_TH6Z5wPKipF9b-i2m00]--></g></svg>