<svg xmlns="http://www.w3.org/2000/svg" xmlns:xlink="http://www.w3.org/1999/xlink" contentStyleType="text/css" height="764px" preserveAspectRatio="none" style="width:722px;height:764px;background:#FFFFFF;" version="1.1" viewBox="0 0 722 764" width="722px" zoomAndPan="magnify"><defs/><g><g id="elem_Servicio_Diario"><rect fill="#F1F1F1" height="44.5938" style="stroke:#181818;stroke-width:0.5;" width="118.043" x="256" y="161"/><text fill="#000000" font-family="sans-serif" font-size="14" lengthAdjust="spacing" textLength="104.043" x="263" y="175.9951">Servicio_Diario</text><line style="stroke:#181818;stroke-width:0.5;" x1="257" x2="373.043" y1="181.2969" y2="181.2969"/><text fill="#000000" font-family="sans-serif" font-size="14" lengthAdjust="spacing" textLength="32.9834" x="262" y="198.292">ID: 1</text></g><g id="elem_Ruta_1"><rect fill="#F1F1F1" height="44.5938" style="stroke:#181818;stroke-width:0.5;" width="62.5762" x="206.5" y="315"/><text fill="#000000" font-family="sans-serif" font-size="14" lengthAdjust="spacing" textLength="48.5762" x="213.5" y="329.9951">Ruta_1</text><line style="stroke:#181818;stroke-width:0.5;" x1="207.5" x2="268.0762" y1="335.2969" y2="335.2969"/><text fill="#000000" font-family="sans-serif" font-size="14" lengthAdjust="spacing" textLength="32.9834" x="212.5" y="352.292">ID: 1</text></g><g id="elem_Horario"><rect fill="#F1F1F1" height="60.8906" style="stroke:#181818;stroke-width:0.5;" width="119.5225" x="7" y="453"/><text fill="#000000" font-family="sans-serif" font-size="14" lengthAdjust="spacing" textLength="51.6387" x="40.9419" y="467.9951">Horario</text><line style="stroke:#181818;stroke-width:0.5;" x1="8" x2="125.5225" y1="473.2969" y2="473.2969"/><text fill="#000000" font-family="sans-serif" font-size="14" lengthAdjust="spacing" textLength="107.5225" x="13" y="490.292">"14:00 - 15:00"</text><text fill="#000000" font-family="sans-serif" font-size="14" lengthAdjust="spacing" textLength="107.5225" x="13" y="506.5889">"16:00 - 17:00"</text></g><g id="elem_Parada_1"><rect fill="#F1F1F1" height="44.5938" style="stroke:#181818;stroke-width:0.5;" width="151.3506" x="162.5" y="461"/><text fill="#000000" font-family="sans-serif" font-size="14" lengthAdjust="spacing" textLength="64.7295" x="205.8105" y="475.9951">Parada_1</text><line style="stroke:#181818;stroke-width:0.5;" x1="163.5" x2="312.8506" y1="481.2969" y2="481.2969"/><text fill="#000000" font-family="sans-serif" font-size="14" lengthAdjust="spacing" textLength="139.3506" x="168.5" y="498.292">"Ubicaci&#243;n: Burgos"</text></g><g id="elem_Parada_2"><rect fill="#F1F1F1" height="44.5938" style="stroke:#181818;stroke-width:0.5;" width="153.4287" x="348.5" y="461"/><text fill="#000000" font-family="sans-serif" font-size="14" lengthAdjust="spacing" textLength="64.7295" x="392.8496" y="475.9951">Parada_2</text><line style="stroke:#181818;stroke-width:0.5;" x1="349.5" x2="500.9287" y1="481.2969" y2="481.2969"/><text fill="#000000" font-family="sans-serif" font-size="14" lengthAdjust="spacing" textLength="141.4287" x="354.5" y="498.292">"Ubicaci&#243;n: Espa&#241;a"</text></g><g id="elem_Conductor_1"><rect fill="#F1F1F1" height="60.8906" style="stroke:#181818;stroke-width:0.5;" width="117.5195" x="150" y="7"/><text fill="#000000" font-family="sans-serif" font-size="14" lengthAdjust="spacing" textLength="88.3887" x="164.5654" y="21.9951">Conductor_1</text><line style="stroke:#181818;stroke-width:0.5;" x1="151" x2="266.5195" y1="27.2969" y2="27.2969"/><text fill="#000000" font-family="sans-serif" font-size="14" lengthAdjust="spacing" textLength="59.7051" x="156" y="44.292">ID: 1234</text><text fill="#000000" font-family="sans-serif" font-size="14" lengthAdjust="spacing" textLength="105.5195" x="156" y="60.5889">Nombre: David</text></g><g id="elem_Conductor_2"><rect fill="#F1F1F1" height="60.8906" style="stroke:#181818;stroke-width:0.5;" width="111.6543" x="416" y="153"/><text fill="#000000" font-family="sans-serif" font-size="14" lengthAdjust="spacing" textLength="88.3887" x="427.6328" y="167.9951">Conductor_2</text><line style="stroke:#181818;stroke-width:0.5;" x1="417" x2="526.6543" y1="173.2969" y2="173.2969"/><text fill="#000000" font-family="sans-serif" font-size="14" lengthAdjust="spacing" textLength="59.7051" x="422" y="190.292">ID: 1235</text><text fill="#000000" font-family="sans-serif" font-size="14" lengthAdjust="spacing" textLength="99.6543" x="422" y="206.5889">Nombre: Pepe</text></g><g id="elem_Veh&#237;culo_1"><rect fill="#F1F1F1" height="77.1875" style="stroke:#181818;stroke-width:0.5;" width="108.291" x="571" y="145"/><text fill="#000000" font-family="sans-serif" font-size="14" lengthAdjust="spacing" textLength="75.8857" x="587.2026" y="159.9951">Veh&#237;culo_1</text><line style="stroke:#181818;stroke-width:0.5;" x1="572" x2="678.291" y1="165.2969" y2="165.2969"/><text fill="#000000" font-family="sans-serif" font-size="14" lengthAdjust="spacing" textLength="64.832" x="577" y="182.292">Tipo: Bus</text><text fill="#000000" font-family="sans-serif" font-size="14" lengthAdjust="spacing" textLength="96.291" x="577" y="198.5889">Capacidad:15</text><text fill="#000000" font-family="sans-serif" font-size="14" lengthAdjust="spacing" textLength="32.9834" x="577" y="214.8857">ID: 1</text></g><g id="elem_Flota_1"><rect fill="#F1F1F1" height="44.5938" style="stroke:#181818;stroke-width:0.5;" width="128.2314" x="321" y="315"/><text fill="#000000" font-family="sans-serif" font-size="14" lengthAdjust="spacing" textLength="50.4834" x="359.874" y="329.9951">Flota_1</text><line style="stroke:#181818;stroke-width:0.5;" x1="322" x2="448.2314" y1="335.2969" y2="335.2969"/><text fill="#000000" font-family="sans-serif" font-size="14" lengthAdjust="spacing" textLength="116.2314" x="327" y="352.292">Empresa: PEREZ</text></g><g id="elem_Incidencia_1"><rect fill="#F1F1F1" height="77.1875" style="stroke:#181818;stroke-width:0.5;" width="120.3975" x="500" y="299"/><text fill="#000000" font-family="sans-serif" font-size="14" lengthAdjust="spacing" textLength="87.0352" x="516.6812" y="313.9951">Incidencia_1</text><line style="stroke:#181818;stroke-width:0.5;" x1="501" x2="619.3975" y1="319.2969" y2="319.2969"/><text fill="#000000" font-family="sans-serif" font-size="14" lengthAdjust="spacing" textLength="108.3975" x="506" y="336.292">Tipo: Accidente</text><text fill="#000000" font-family="sans-serif" font-size="14" lengthAdjust="spacing" textLength="89.1748" x="506" y="352.5889">Estado: Roto</text><text fill="#000000" font-family="sans-serif" font-size="14" lengthAdjust="spacing" textLength="103.1543" x="506" y="368.8857">Urgencia: ALta</text></g><g id="elem_Pasajero_1"><rect fill="#F1F1F1" height="60.8906" style="stroke:#181818;stroke-width:0.5;" width="114.5186" x="584.5" y="453"/><text fill="#000000" font-family="sans-serif" font-size="14" lengthAdjust="spacing" textLength="75.626" x="603.9463" y="467.9951">Pasajero_1</text><line style="stroke:#181818;stroke-width:0.5;" x1="585.5" x2="698.0186" y1="473.2969" y2="473.2969"/><text fill="#000000" font-family="sans-serif" font-size="14" lengthAdjust="spacing" textLength="80.1514" x="590.5" y="490.292">Asiento: 2C</text><text fill="#000000" font-family="sans-serif" font-size="14" lengthAdjust="spacing" textLength="102.5186" x="590.5" y="506.5889">Nombre: Silvia</text></g><g id="elem_Tarifa_1"><rect fill="#F1F1F1" height="44.5938" style="stroke:#181818;stroke-width:0.5;" width="111.1689" x="586.5" y="591"/><text fill="#000000" font-family="sans-serif" font-size="14" lengthAdjust="spacing" textLength="56.1914" x="613.9888" y="605.9951">Tarifa_1</text><line style="stroke:#181818;stroke-width:0.5;" x1="587.5" x2="696.6689" y1="611.2969" y2="611.2969"/><text fill="#000000" font-family="sans-serif" font-size="14" lengthAdjust="spacing" textLength="99.1689" x="592.5" y="628.292">Tipo: Diurna 1</text></g><g id="elem_Abono_1"><rect fill="#F1F1F1" height="44.5938" style="stroke:#181818;stroke-width:0.5;" width="122.8242" x="580.5" y="713"/><text fill="#000000" font-family="sans-serif" font-size="14" lengthAdjust="spacing" textLength="60.375" x="611.7246" y="727.9951">Abono_1</text><line style="stroke:#181818;stroke-width:0.5;" x1="581.5" x2="702.3242" y1="733.2969" y2="733.2969"/><text fill="#000000" font-family="sans-serif" font-size="14" lengthAdjust="spacing" textLength="110.8242" x="586.5" y="750.292">M&#233;todo: Tarjeta</text></g><!--link Servicio_Diario to Ruta_1--><g id="link_Servicio_Diario_Ruta_1"><path codeLine="68" d="M294.95,206.2 C284.2,218.79 271.48,235.4 263,252 C252.7,272.17 247.2468,291.3996 243.3868,308.9796 " fill="none" id="Servicio_Diario-to-Ruta_1" style="stroke:#181818;stroke-width:1.0;"/><polygon fill="#181818" points="242.1,314.84,247.9371,306.9072,243.1723,309.9563,240.1232,305.1916,242.1,314.84" style="stroke:#181818;stroke-width:1.0;"/><text fill="#000000" font-family="sans-serif" font-size="13" lengthAdjust="spacing" textLength="41.0186" x="264" y="265.0669">ofrece</text></g><!--link Servicio_Diario to Flota_1--><g id="link_Servicio_Diario_Flota_1"><path codeLine="69" d="M311.54,206.28 C309.71,223.94 309.37,249.06 318,269 C325.87,287.18 336.5169,299.2658 350.4569,311.1058 " fill="none" id="Servicio_Diario-to-Flota_1" style="stroke:#181818;stroke-width:1.0;"/><polygon fill="#181818" points="355.03,314.99,350.7598,306.115,351.2191,311.7532,345.5809,312.2125,355.03,314.99" style="stroke:#181818;stroke-width:1.0;"/><text fill="#000000" font-family="sans-serif" font-size="13" lengthAdjust="spacing" textLength="41.0186" x="319" y="265.0669">ofrece</text></g><!--link Ruta_1 to Parada_1--><g id="link_Ruta_1_Parada_1"><path codeLine="70" d="M238,360.06 C238,387.21 238,427.58 238,454.79 " fill="none" id="Ruta_1-to-Parada_1" style="stroke:#181818;stroke-width:1.0;"/><polygon fill="#181818" points="238,460.79,242,451.79,238,455.79,234,451.79,238,460.79" style="stroke:#181818;stroke-width:1.0;"/><text fill="#000000" font-family="sans-serif" font-size="13" lengthAdjust="spacing" textLength="32.9443" x="239" y="419.0669">tiene</text></g><!--link Ruta_1 to Parada_2--><g id="link_Ruta_1_Parada_2"><path codeLine="71" d="M266,360.06 C301.25,387.21 356.7159,429.9196 392.0559,457.1296 " fill="none" id="Ruta_1-to-Parada_2" style="stroke:#181818;stroke-width:1.0;"/><polygon fill="#181818" points="396.81,460.79,392.1191,452.13,392.8483,457.7397,387.2386,458.4688,396.81,460.79" style="stroke:#181818;stroke-width:1.0;"/><text fill="#000000" font-family="sans-serif" font-size="13" lengthAdjust="spacing" textLength="32.9443" x="344" y="419.0669">tiene</text></g><!--link Ruta_1 to Horario--><g id="link_Ruta_1_Horario"><path codeLine="72" d="M212.4,360.06 C183.14,384.69 139.6795,421.2953 106.8795,448.9153 " fill="none" id="Ruta_1-to-Horario" style="stroke:#181818;stroke-width:1.0;"/><polygon fill="#181818" points="102.29,452.78,111.7508,450.0426,106.1146,449.5594,106.5978,443.9232,102.29,452.78" style="stroke:#181818;stroke-width:1.0;"/><text fill="#000000" font-family="sans-serif" font-size="13" lengthAdjust="spacing" textLength="32.9443" x="159" y="419.0669">tiene</text></g><!--link Conductor_1 to Ruta_1--><g id="link_Conductor_1_Ruta_1"><path codeLine="73" d="M204.42,68.25 C199.6,104.72 193.75,168.27 202,222 C207.09,255.16 217.832,286.3132 226.722,309.0132 " fill="none" id="Conductor_1-to-Ruta_1" style="stroke:#181818;stroke-width:1.0;"/><polygon fill="#181818" points="228.91,314.6,229.3526,304.7611,227.0867,309.9443,221.9035,307.6784,228.91,314.6" style="stroke:#181818;stroke-width:1.0;"/><text fill="#000000" font-family="sans-serif" font-size="13" lengthAdjust="spacing" textLength="34.874" x="203" y="188.0669">sigue</text></g><!--link Conductor_2 to Ruta_1--><g id="link_Conductor_2_Ruta_1"><path codeLine="74" d="M438.23,214.29 C417.85,231.46 390.88,252.79 365,269 C339.06,285.25 330.05,284.68 303,299 C292.06,304.79 285.4798,308.4391 274.9998,314.5191 " fill="none" id="Conductor_2-to-Ruta_1" style="stroke:#181818;stroke-width:1.0;"/><polygon fill="#181818" points="269.81,317.53,279.602,316.4735,274.1349,315.0209,275.5875,309.5538,269.81,317.53" style="stroke:#181818;stroke-width:1.0;"/><text fill="#000000" font-family="sans-serif" font-size="13" lengthAdjust="spacing" textLength="34.874" x="391" y="265.0669">sigue</text></g><!--link Conductor_1 to Veh?culo_1--><g id="link_Conductor_1_Veh&#237;culo_1"><path codeLine="75" d="M268.08,54.68 C335.83,73.81 449.82,107.79 545,145 C553.43,148.29 556.7502,149.5941 565.2902,153.4441 " fill="none" id="Conductor_1-to-Veh&#237;culo_1" style="stroke:#181818;stroke-width:1.0;"/><polygon fill="#181818" points="570.76,155.91,564.1992,148.5646,566.2018,153.8551,560.9113,155.8577,570.76,155.91" style="stroke:#181818;stroke-width:1.0;"/><text fill="#000000" font-family="sans-serif" font-size="13" lengthAdjust="spacing" textLength="54.9771" x="456" y="111.0669">conduce</text></g><!--link Veh?culo_1 to Flota_1--><g id="link_Veh&#237;culo_1_Flota_1"><path codeLine="76" d="M587.8,222.17 C571.06,237.87 550.48,255.55 530,269 C502.27,287.22 474.3529,300.7952 446.5829,312.5852 " fill="none" id="Veh&#237;culo_1-to-Flota_1" style="stroke:#181818;stroke-width:1.0;"/><polygon fill="#181818" points="441.06,314.93,450.9075,315.0947,445.6624,312.976,447.7811,307.7309,441.06,314.93" style="stroke:#181818;stroke-width:1.0;"/><text fill="#000000" font-family="sans-serif" font-size="13" lengthAdjust="spacing" textLength="22.9785" x="553" y="265.0669">usa</text></g><!--link Veh?culo_1 to Incidencia_1--><g id="link_Veh&#237;culo_1_Incidencia_1"><path codeLine="77" d="M612.18,222.3 C606.91,237.03 600.53,253.95 594,269 C589.77,278.75 587.5078,283.7257 582.7078,293.3057 " fill="none" id="Veh&#237;culo_1-to-Incidencia_1" style="stroke:#181818;stroke-width:1.0;"/><polygon fill="#181818" points="580.02,298.67,587.6279,292.4154,582.2598,294.1997,580.4754,288.8317,580.02,298.67" style="stroke:#181818;stroke-width:1.0;"/><text fill="#000000" font-family="sans-serif" font-size="13" lengthAdjust="spacing" textLength="32.9316" x="601" y="265.0669">sufre</text></g><!--link Conductor_2 to Incidencia_1--><g id="link_Conductor_2_Incidencia_1"><path codeLine="78" d="M468.07,214.19 C467.17,231.13 468.42,252.26 477,269 C482.76,280.24 486.8967,286.2161 496.3567,294.8861 " fill="none" id="Conductor_2-to-Incidencia_1" style="stroke:#181818;stroke-width:1.0;"/><polygon fill="#181818" points="500.78,298.94,496.8476,289.9102,497.0939,295.5617,491.4424,295.808,500.78,298.94" style="stroke:#181818;stroke-width:1.0;"/><text fill="#000000" font-family="sans-serif" font-size="13" lengthAdjust="spacing" textLength="47.9565" x="478" y="265.0669">reporta</text></g><!--link Incidencia_1 to Pasajero_1--><g id="link_Incidencia_1_Pasajero_1"><path codeLine="79" d="M581.54,376.33 C595.12,400.17 609.4223,425.2853 622.0223,447.4253 " fill="none" id="Incidencia_1-to-Pasajero_1" style="stroke:#181818;stroke-width:1.0;stroke-dasharray:7.0,7.0;"/><polygon fill="#181818" points="624.99,452.64,624.0149,442.8395,622.5169,448.2944,617.062,446.7965,624.99,452.64" style="stroke:#181818;stroke-width:1.0;"/><text fill="#000000" font-family="sans-serif" font-size="13" lengthAdjust="spacing" textLength="40.752" x="606" y="419.0669">afecta</text></g><!--link Pasajero_1 to Veh?culo_1--><g id="link_Pasajero_1_Veh&#237;culo_1"><path codeLine="80" d="M649.82,452.74 C651.94,443.3 653.94,432.78 655,423 C663.18,347.22 654.55,327.18 642,252 C640.37,242.23 639.4952,237.6109 637.0752,227.9309 " fill="none" id="Pasajero_1-to-Veh&#237;culo_1" style="stroke:#181818;stroke-width:1.0;"/><polygon fill="#181818" points="635.62,222.11,633.9223,231.8114,636.8327,226.9607,641.6834,229.8711,635.62,222.11" style="stroke:#181818;stroke-width:1.0;"/><text fill="#000000" font-family="sans-serif" font-size="13" lengthAdjust="spacing" textLength="22.9785" x="659" y="342.0669">usa</text></g><!--link Pasajero_1 to Tarifa_1--><g id="link_Pasajero_1_Tarifa_1"><path codeLine="81" d="M642,514.19 C642,537.67 642,563.91 642,584.97 " fill="none" id="Pasajero_1-to-Tarifa_1" style="stroke:#181818;stroke-width:1.0;"/><polygon fill="#181818" points="642,590.97,646,581.97,642,585.97,638,581.97,642,590.97" style="stroke:#181818;stroke-width:1.0;"/><text fill="#000000" font-family="sans-serif" font-size="13" lengthAdjust="spacing" textLength="32.4365" x="643" y="557.0669">paga</text></g><!--link Tarifa_1 to Abono_1--><g id="link_Tarifa_1_Abono_1"><path codeLine="82" d="M642,636.23 C642,657.98 642,685.24 642,706.93 " fill="none" id="Tarifa_1-to-Abono_1" style="stroke:#181818;stroke-width:1.0;"/><polygon fill="#181818" points="642,712.93,646,703.93,642,707.93,638,703.93,642,712.93" style="stroke:#181818;stroke-width:1.0;"/><text fill="#000000" font-family="sans-serif" font-size="13" lengthAdjust="spacing" textLength="71.4429" x="643" y="679.0669">para pagar</text></g><!--SRC=[XL9DRvj04BtpArRS7GKQDnA7IAxjgf7QA78-3hr4mpAsrp8icbqiHL5_K0yzLFq9_cCTrWOMGbKVR3FllPatmzkg38LK9FSOREl_c9VsLUIOfqWc27IwGsd50z91IQLV5Wf8QV4M2FxSBX8H1JzQrggoy1Bz0_oYoPE6qLLoUIac8fhoRtYkVJpNhbsjqzu3GTQr3fzI9K6guvyY4PygscWpmex7s4jJml4t-FIvBh9AMarzw_67A_Tmf_EKC14BEAXiL1RtPTEUx1vBz5JFk3t-ajLUjyCULQdhBOnxcaF9LZF8acWwUiRFU-qTUPcNX0Pup7Ar_ExHRWlkWlm5Wq4pwG2B9xsna75rfQrsXIVQE1KJlrhe7TN03gdpFJEAsx0sdlSMVb3xWtBAHlh8xtqzzB5G5HLmMgqXpb9TT0E-7NzQNPjZ_GvFPe9WcCJ9vAR9NI92lIQK68wopfVpM6TT3RO9OzZoOgDeF8usoUv0Fr9zWqPjgXuX_X_XrC7F3REaWvddrxqbQqvbu3tUoqKzhk9RlFSpf16McYptwm4N5pT-BfW7QtwFJFEg8-wTim6b3GdZ9MoOq5Pgk8c6Gmb4JQ7mBm00]--></g></svg>