<svg xmlns="http://www.w3.org/2000/svg" xmlns:xlink="http://www.w3.org/1999/xlink" contentStyleType="text/css" height="780px" preserveAspectRatio="none" style="width:1187px;height:780px;background:#FFFFFF;" version="1.1" viewBox="0 0 1187 780" width="1187px" zoomAndPan="magnify"><defs/><g><g id="elem_Servicio_Diario"><rect fill="#F1F1F1" height="60.8906" style="stroke:#181818;stroke-width:0.5;" width="180.4375" x="230" y="7"/><text fill="#000000" font-family="sans-serif" font-size="14" lengthAdjust="spacing" textLength="104.043" x="268.1973" y="21.9951">Servicio_Diario</text><line style="stroke:#181818;stroke-width:0.5;" x1="231" x2="409.4375" y1="27.2969" y2="27.2969"/><text fill="#000000" font-family="sans-serif" font-size="14" lengthAdjust="spacing" textLength="32.9834" x="236" y="44.292">ID: 1</text><text fill="#000000" font-family="sans-serif" font-size="14" lengthAdjust="spacing" textLength="168.4375" x="236" y="60.5889">Estad&#237;sticas: Generadas</text></g><g id="elem_Ruta_1"><rect fill="#F1F1F1" height="44.5938" style="stroke:#181818;stroke-width:0.5;" width="62.5762" x="393.5" y="161"/><text fill="#000000" font-family="sans-serif" font-size="14" lengthAdjust="spacing" textLength="48.5762" x="400.5" y="175.9951">Ruta_1</text><line style="stroke:#181818;stroke-width:0.5;" x1="394.5" x2="455.0762" y1="181.2969" y2="181.2969"/><text fill="#000000" font-family="sans-serif" font-size="14" lengthAdjust="spacing" textLength="32.9834" x="399.5" y="198.292">ID: 1</text></g><g id="elem_Horario"><rect fill="#F1F1F1" height="60.8906" style="stroke:#181818;stroke-width:0.5;" width="119.5225" x="7" y="307"/><text fill="#000000" font-family="sans-serif" font-size="14" lengthAdjust="spacing" textLength="51.6387" x="40.9419" y="321.9951">Horario</text><line style="stroke:#181818;stroke-width:0.5;" x1="8" x2="125.5225" y1="327.2969" y2="327.2969"/><text fill="#000000" font-family="sans-serif" font-size="14" lengthAdjust="spacing" textLength="107.5225" x="13" y="344.292">"14:00 - 15:00"</text><text fill="#000000" font-family="sans-serif" font-size="14" lengthAdjust="spacing" textLength="107.5225" x="13" y="360.5889">"16:00 - 17:00"</text></g><g id="elem_Parada_1"><rect fill="#F1F1F1" height="44.5938" style="stroke:#181818;stroke-width:0.5;" width="151.3506" x="162.5" y="315"/><text fill="#000000" font-family="sans-serif" font-size="14" lengthAdjust="spacing" textLength="64.7295" x="205.8105" y="329.9951">Parada_1</text><line style="stroke:#181818;stroke-width:0.5;" x1="163.5" x2="312.8506" y1="335.2969" y2="335.2969"/><text fill="#000000" font-family="sans-serif" font-size="14" lengthAdjust="spacing" textLength="139.3506" x="168.5" y="352.292">"Ubicaci&#243;n: Burgos"</text></g><g id="elem_Parada_2"><rect fill="#F1F1F1" height="44.5938" style="stroke:#181818;stroke-width:0.5;" width="153.4287" x="348.5" y="315"/><text fill="#000000" font-family="sans-serif" font-size="14" lengthAdjust="spacing" textLength="64.7295" x="392.8496" y="329.9951">Parada_2</text><line style="stroke:#181818;stroke-width:0.5;" x1="349.5" x2="500.9287" y1="335.2969" y2="335.2969"/><text fill="#000000" font-family="sans-serif" font-size="14" lengthAdjust="spacing" textLength="141.4287" x="354.5" y="352.292">"Ubicaci&#243;n: Espa&#241;a"</text></g><g id="elem_Conductor_1"><rect fill="#F1F1F1" height="60.8906" style="stroke:#181818;stroke-width:0.5;" width="117.5195" x="488" y="7"/><text fill="#000000" font-family="sans-serif" font-size="14" lengthAdjust="spacing" textLength="88.3887" x="502.5654" y="21.9951">Conductor_1</text><line style="stroke:#181818;stroke-width:0.5;" x1="489" x2="604.5195" y1="27.2969" y2="27.2969"/><text fill="#000000" font-family="sans-serif" font-size="14" lengthAdjust="spacing" textLength="59.7051" x="494" y="44.292">ID: 1234</text><text fill="#000000" font-family="sans-serif" font-size="14" lengthAdjust="spacing" textLength="105.5195" x="494" y="60.5889">Nombre: David</text></g><g id="elem_Conductor_2"><rect fill="#F1F1F1" height="60.8906" style="stroke:#181818;stroke-width:0.5;" width="126.4814" x="680" y="7"/><text fill="#000000" font-family="sans-serif" font-size="14" lengthAdjust="spacing" textLength="88.3887" x="699.0464" y="21.9951">Conductor_2</text><line style="stroke:#181818;stroke-width:0.5;" x1="681" x2="805.4814" y1="27.2969" y2="27.2969"/><text fill="#000000" font-family="sans-serif" font-size="14" lengthAdjust="spacing" textLength="59.7051" x="686" y="44.292">ID: 1235</text><text fill="#000000" font-family="sans-serif" font-size="14" lengthAdjust="spacing" textLength="114.4814" x="686" y="60.5889">Nombre: Ramon</text></g><g id="elem_Veh&#237;culo_1"><rect fill="#F1F1F1" height="77.1875" style="stroke:#181818;stroke-width:0.5;" width="108.291" x="527" y="145"/><text fill="#000000" font-family="sans-serif" font-size="14" lengthAdjust="spacing" textLength="75.8857" x="543.2026" y="159.9951">Veh&#237;culo_1</text><line style="stroke:#181818;stroke-width:0.5;" x1="528" x2="634.291" y1="165.2969" y2="165.2969"/><text fill="#000000" font-family="sans-serif" font-size="14" lengthAdjust="spacing" textLength="64.832" x="533" y="182.292">Tipo: Bus</text><text fill="#000000" font-family="sans-serif" font-size="14" lengthAdjust="spacing" textLength="96.291" x="533" y="198.5889">Capacidad:10</text><text fill="#000000" font-family="sans-serif" font-size="14" lengthAdjust="spacing" textLength="32.9834" x="533" y="214.8857">ID: 1</text></g><g id="elem_Veh&#237;culo_2"><rect fill="#F1F1F1" height="77.1875" style="stroke:#181818;stroke-width:0.5;" width="112.7412" x="686.5" y="145"/><text fill="#000000" font-family="sans-serif" font-size="14" lengthAdjust="spacing" textLength="75.8857" x="704.9277" y="159.9951">Veh&#237;culo_2</text><line style="stroke:#181818;stroke-width:0.5;" x1="687.5" x2="798.2412" y1="165.2969" y2="165.2969"/><text fill="#000000" font-family="sans-serif" font-size="14" lengthAdjust="spacing" textLength="64.832" x="692.5" y="182.292">Tipo: Bus</text><text fill="#000000" font-family="sans-serif" font-size="14" lengthAdjust="spacing" textLength="100.7412" x="692.5" y="198.5889">Capacidad: 15</text><text fill="#000000" font-family="sans-serif" font-size="14" lengthAdjust="spacing" textLength="32.9834" x="692.5" y="214.8857">ID: 2</text></g><g id="elem_Flota_1"><rect fill="#F1F1F1" height="44.5938" style="stroke:#181818;stroke-width:0.5;" width="128.2314" x="631" y="315"/><text fill="#000000" font-family="sans-serif" font-size="14" lengthAdjust="spacing" textLength="50.4834" x="669.874" y="329.9951">Flota_1</text><line style="stroke:#181818;stroke-width:0.5;" x1="632" x2="758.2314" y1="335.2969" y2="335.2969"/><text fill="#000000" font-family="sans-serif" font-size="14" lengthAdjust="spacing" textLength="116.2314" x="637" y="352.292">Empresa: PEREZ</text></g><g id="elem_Incidencia_1"><rect fill="#F1F1F1" height="77.1875" style="stroke:#181818;stroke-width:0.5;" width="138.7588" x="794.5" y="299"/><text fill="#000000" font-family="sans-serif" font-size="14" lengthAdjust="spacing" textLength="87.0352" x="820.3618" y="313.9951">Incidencia_1</text><line style="stroke:#181818;stroke-width:0.5;" x1="795.5" x2="932.2588" y1="319.2969" y2="319.2969"/><text fill="#000000" font-family="sans-serif" font-size="14" lengthAdjust="spacing" textLength="108.3975" x="800.5" y="336.292">Tipo: Accidente</text><text fill="#000000" font-family="sans-serif" font-size="14" lengthAdjust="spacing" textLength="89.1748" x="800.5" y="352.5889">Estado: Roto</text><text fill="#000000" font-family="sans-serif" font-size="14" lengthAdjust="spacing" textLength="126.7588" x="800.5" y="368.8857">Urgencia: M&#225;xima</text></g><g id="elem_Pasajero_1"><rect fill="#F1F1F1" height="60.8906" style="stroke:#181818;stroke-width:0.5;" width="117.5195" x="542" y="453"/><text fill="#000000" font-family="sans-serif" font-size="14" lengthAdjust="spacing" textLength="75.626" x="562.9468" y="467.9951">Pasajero_1</text><line style="stroke:#181818;stroke-width:0.5;" x1="543" x2="658.5195" y1="473.2969" y2="473.2969"/><text fill="#000000" font-family="sans-serif" font-size="14" lengthAdjust="spacing" textLength="79.2832" x="548" y="490.292">Asiento: 12</text><text fill="#000000" font-family="sans-serif" font-size="14" lengthAdjust="spacing" textLength="105.5195" x="548" y="506.5889">Nombre: David</text></g><g id="elem_Pasajero_2"><rect fill="#F1F1F1" height="60.8906" style="stroke:#181818;stroke-width:0.5;" width="111.6543" x="936" y="7"/><text fill="#000000" font-family="sans-serif" font-size="14" lengthAdjust="spacing" textLength="75.626" x="954.0142" y="21.9951">Pasajero_2</text><line style="stroke:#181818;stroke-width:0.5;" x1="937" x2="1046.6543" y1="27.2969" y2="27.2969"/><text fill="#000000" font-family="sans-serif" font-size="14" lengthAdjust="spacing" textLength="79.9805" x="942" y="44.292">Asiento: 4B</text><text fill="#000000" font-family="sans-serif" font-size="14" lengthAdjust="spacing" textLength="99.6543" x="942" y="60.5889">Nombre: Pepe</text></g><g id="elem_Tarifa_1"><rect fill="#F1F1F1" height="44.5938" style="stroke:#181818;stroke-width:0.5;" width="111.1689" x="545.5" y="591"/><text fill="#000000" font-family="sans-serif" font-size="14" lengthAdjust="spacing" textLength="56.1914" x="572.9888" y="605.9951">Tarifa_1</text><line style="stroke:#181818;stroke-width:0.5;" x1="546.5" x2="655.6689" y1="611.2969" y2="611.2969"/><text fill="#000000" font-family="sans-serif" font-size="14" lengthAdjust="spacing" textLength="99.1689" x="551.5" y="628.292">Tipo: Diurna 1</text></g><g id="elem_Tarifa_2"><rect fill="#F1F1F1" height="44.5938" style="stroke:#181818;stroke-width:0.5;" width="97.8115" x="986" y="161"/><text fill="#000000" font-family="sans-serif" font-size="14" lengthAdjust="spacing" textLength="56.1914" x="1006.8101" y="175.9951">Tarifa_2</text><line style="stroke:#181818;stroke-width:0.5;" x1="987" x2="1082.8115" y1="181.2969" y2="181.2969"/><text fill="#000000" font-family="sans-serif" font-size="14" lengthAdjust="spacing" textLength="85.8115" x="992" y="198.292">Tipo: Diurna</text></g><g id="elem_Abono_1"><rect fill="#F1F1F1" height="60.8906" style="stroke:#181818;stroke-width:0.5;" width="146.9414" x="527.5" y="713"/><text fill="#000000" font-family="sans-serif" font-size="14" lengthAdjust="spacing" textLength="60.375" x="570.7832" y="727.9951">Abono_1</text><line style="stroke:#181818;stroke-width:0.5;" x1="528.5" x2="673.4414" y1="733.2969" y2="733.2969"/><text fill="#000000" font-family="sans-serif" font-size="14" lengthAdjust="spacing" textLength="110.8242" x="533.5" y="750.292">M&#233;todo: Tarjeta</text><text fill="#000000" font-family="sans-serif" font-size="14" lengthAdjust="spacing" textLength="134.9414" x="533.5" y="766.5889">Cantidad: 10 viajes</text></g><g id="elem_Abono_2"><rect fill="#F1F1F1" height="60.8906" style="stroke:#181818;stroke-width:0.5;" width="138.0342" x="969" y="307"/><text fill="#000000" font-family="sans-serif" font-size="14" lengthAdjust="spacing" textLength="60.375" x="1007.8296" y="321.9951">Abono_2</text><line style="stroke:#181818;stroke-width:0.5;" x1="970" x2="1106.0342" y1="327.2969" y2="327.2969"/><text fill="#000000" font-family="sans-serif" font-size="14" lengthAdjust="spacing" textLength="110.8242" x="975" y="344.292">M&#233;todo: Tarjeta</text><text fill="#000000" font-family="sans-serif" font-size="14" lengthAdjust="spacing" textLength="126.0342" x="975" y="360.5889">Cantidad: 5 viajes</text></g><g id="elem_Estad&#237;stica_1"><rect fill="#F1F1F1" height="77.1875" style="stroke:#181818;stroke-width:0.5;" width="129.0859" x="229.5" y="145"/><text fill="#000000" font-family="sans-serif" font-size="14" lengthAdjust="spacing" textLength="91.8408" x="248.1226" y="159.9951">Estad&#237;stica_1</text><line style="stroke:#181818;stroke-width:0.5;" x1="230.5" x2="357.5859" y1="165.2969" y2="165.2969"/><text fill="#000000" font-family="sans-serif" font-size="14" lengthAdjust="spacing" textLength="112.8066" x="235.5" y="182.292">TotalViajes: 100</text><text fill="#000000" font-family="sans-serif" font-size="14" lengthAdjust="spacing" textLength="117.0859" x="235.5" y="198.5889">Ingresos: "500$"</text><text fill="#000000" font-family="sans-serif" font-size="14" lengthAdjust="spacing" textLength="96.4961" x="235.5" y="214.8857">Incidencias: 2</text></g><!--link Servicio_Diario to Ruta_1--><g id="link_Servicio_Diario_Ruta_1"><path codeLine="92" d="M341.76,68.34 C361.82,95.85 387.5949,131.202 405.5549,155.832 " fill="none" id="Servicio_Diario-to-Ruta_1" style="stroke:#181818;stroke-width:1.0;"/><polygon fill="#181818" points="409.09,160.68,407.0193,151.0513,406.1441,156.64,400.5553,155.7648,409.09,160.68" style="stroke:#181818;stroke-width:1.0;"/><text fill="#000000" font-family="sans-serif" font-size="13" lengthAdjust="spacing" textLength="41.0186" x="377" y="111.0669">ofrece</text></g><!--link Servicio_Diario to Estad?stica_1--><g id="link_Servicio_Diario_Estad&#237;stica_1"><path codeLine="93" d="M307.75,68 C304.34,77.43 301.02,88.01 299,98 C295.95,113.13 294.7964,124.0647 294.2164,138.7747 " fill="none" id="Servicio_Diario-to-Estad&#237;stica_1" style="stroke:#181818;stroke-width:1.0;"/><polygon fill="#181818" points="293.98,144.77,298.3315,135.9346,294.177,139.7739,290.3377,135.6194,293.98,144.77" style="stroke:#181818;stroke-width:1.0;"/><text fill="#000000" font-family="sans-serif" font-size="13" lengthAdjust="spacing" textLength="45.7983" x="300" y="111.0669">genera</text></g><!--link Ruta_1 to Parada_1--><g id="link_Ruta_1_Parada_1"><path codeLine="94" d="M398.21,206.28 C362.66,235.17 304.9266,282.1063 269.3966,310.9763 " fill="none" id="Ruta_1-to-Parada_1" style="stroke:#181818;stroke-width:1.0;"/><polygon fill="#181818" points="264.74,314.76,274.2473,312.1888,268.6205,311.6069,269.2024,305.9801,264.74,314.76" style="stroke:#181818;stroke-width:1.0;"/><text fill="#000000" font-family="sans-serif" font-size="13" lengthAdjust="spacing" textLength="32.9443" x="339" y="265.0669">tiene</text></g><!--link Ruta_1 to Parada_2--><g id="link_Ruta_1_Parada_2"><path codeLine="95" d="M425,206.28 C425,235.17 425,279.89 425,308.76 " fill="none" id="Ruta_1-to-Parada_2" style="stroke:#181818;stroke-width:1.0;"/><polygon fill="#181818" points="425,314.76,429,305.76,425,309.76,421,305.76,425,314.76" style="stroke:#181818;stroke-width:1.0;"/><text fill="#000000" font-family="sans-serif" font-size="13" lengthAdjust="spacing" textLength="32.9443" x="426" y="265.0669">tiene</text></g><!--link Ruta_1 to Horario--><g id="link_Ruta_1_Horario"><path codeLine="96" d="M400.17,206.08 C392.74,211.81 384.34,217.61 376,222 C337.94,242.02 324.82,238.45 284,252 C222.11,272.55 205.39,274.38 145,299 C139.02,301.44 138.311,301.6567 132.181,304.4167 " fill="none" id="Ruta_1-to-Horario" style="stroke:#181818;stroke-width:1.0;"/><polygon fill="#181818" points="126.71,306.88,136.5587,306.8324,131.2692,304.8272,133.2743,299.5377,126.71,306.88" style="stroke:#181818;stroke-width:1.0;"/><text fill="#000000" font-family="sans-serif" font-size="13" lengthAdjust="spacing" textLength="32.9443" x="285" y="265.0669">tiene</text></g><!--link Conductor_1 to Ruta_1--><g id="link_Conductor_1_Ruta_1"><path codeLine="97" d="M521.72,68.34 C498.41,95.85 468.2277,131.4714 447.3677,156.1014 " fill="none" id="Conductor_1-to-Ruta_1" style="stroke:#181818;stroke-width:1.0;"/><polygon fill="#181818" points="443.49,160.68,452.359,156.3973,446.7214,156.8645,446.2542,151.227,443.49,160.68" style="stroke:#181818;stroke-width:1.0;"/><text fill="#000000" font-family="sans-serif" font-size="13" lengthAdjust="spacing" textLength="34.874" x="495" y="111.0669">sigue</text></g><!--link Conductor_2 to Ruta_1--><g id="link_Conductor_2_Ruta_1"><path codeLine="98" d="M704.78,68.11 C682.76,83.95 653.98,102.67 626,115 C576.88,136.65 559.69,127.33 509,145 C491.36,151.15 477.7215,156.9608 462.2315,164.2308 " fill="none" id="Conductor_2-to-Ruta_1" style="stroke:#181818;stroke-width:1.0;"/><polygon fill="#181818" points="456.8,166.78,466.6468,166.5772,461.3263,164.6557,463.2478,159.3352,456.8,166.78" style="stroke:#181818;stroke-width:1.0;"/><text fill="#000000" font-family="sans-serif" font-size="13" lengthAdjust="spacing" textLength="34.874" x="658" y="111.0669">sigue</text></g><!--link Conductor_1 to Veh?culo_1--><g id="link_Conductor_1_Veh&#237;culo_1"><path codeLine="99" d="M554.04,68.34 C559.28,90.5 565.0721,115.0404 570.7021,138.9004 " fill="none" id="Conductor_1-to-Veh&#237;culo_1" style="stroke:#181818;stroke-width:1.0;"/><polygon fill="#181818" points="572.08,144.74,573.9062,135.0619,570.9317,139.8736,566.12,136.8992,572.08,144.74" style="stroke:#181818;stroke-width:1.0;"/><text fill="#000000" font-family="sans-serif" font-size="13" lengthAdjust="spacing" textLength="54.9771" x="567" y="111.0669">conduce</text></g><!--link Conductor_2 to Veh?culo_2--><g id="link_Conductor_2_Veh&#237;culo_2"><path codeLine="100" d="M743,68.34 C743,90.5 743,114.88 743,138.74 " fill="none" id="Conductor_2-to-Veh&#237;culo_2" style="stroke:#181818;stroke-width:1.0;"/><polygon fill="#181818" points="743,144.74,747,135.74,743,139.74,739,135.74,743,144.74" style="stroke:#181818;stroke-width:1.0;"/><text fill="#000000" font-family="sans-serif" font-size="13" lengthAdjust="spacing" textLength="54.9771" x="744" y="111.0669">conduce</text></g><!--link Veh?culo_1 to Flota_1--><g id="link_Veh&#237;culo_1_Flota_1"><path codeLine="101" d="M598.49,222.1 C606.29,237.28 616.17,254.57 627,269 C639.58,285.76 651.8272,298.3255 665.5172,310.8755 " fill="none" id="Veh&#237;culo_1-to-Flota_1" style="stroke:#181818;stroke-width:1.0;"/><polygon fill="#181818" points="669.94,314.93,666.0088,305.8997,666.2543,311.5513,660.6028,311.7968,669.94,314.93" style="stroke:#181818;stroke-width:1.0;"/><text fill="#000000" font-family="sans-serif" font-size="13" lengthAdjust="spacing" textLength="22.9785" x="628" y="265.0669">usa</text></g><!--link Veh?culo_2 to Flota_1--><g id="link_Veh&#237;culo_2_Flota_1"><path codeLine="102" d="M739.25,222.1 C737.13,236.95 733.89,254.02 729,269 C723.79,284.97 718.2159,296.6018 711.0159,309.4918 " fill="none" id="Veh&#237;culo_2-to-Flota_1" style="stroke:#181818;stroke-width:1.0;"/><polygon fill="#181818" points="708.09,314.73,715.971,308.8233,710.5283,310.3648,708.9867,304.9221,708.09,314.73" style="stroke:#181818;stroke-width:1.0;"/><text fill="#000000" font-family="sans-serif" font-size="13" lengthAdjust="spacing" textLength="22.9785" x="735" y="265.0669">usa</text></g><!--link Veh?culo_1 to Incidencia_1--><g id="link_Veh&#237;culo_1_Incidencia_1"><path codeLine="103" d="M621.42,222.23 C640.26,238.32 663.65,256.27 687,269 C723.65,288.98 736.99,284.14 776,299 C781.9,301.25 782.4199,301.3949 788.5099,303.8649 " fill="none" id="Veh&#237;culo_1-to-Incidencia_1" style="stroke:#181818;stroke-width:1.0;"/><polygon fill="#181818" points="794.07,306.12,787.2332,299.0307,789.4366,304.2408,784.2265,306.4441,794.07,306.12" style="stroke:#181818;stroke-width:1.0;"/><text fill="#000000" font-family="sans-serif" font-size="13" lengthAdjust="spacing" textLength="32.9316" x="688" y="265.0669">sufre</text></g><!--link Conductor_2 to Incidencia_1--><g id="link_Conductor_2_Incidencia_1"><path codeLine="104" d="M782.15,68.08 C791.48,76.8 800.58,86.99 807,98 C844.44,162.16 856.7845,243.6939 861.1945,292.9039 " fill="none" id="Conductor_2-to-Incidencia_1" style="stroke:#181818;stroke-width:1.0;"/><polygon fill="#181818" points="861.73,298.88,864.9107,289.5589,861.2837,293.9,856.9426,290.273,861.73,298.88" style="stroke:#181818;stroke-width:1.0;"/><text fill="#000000" font-family="sans-serif" font-size="13" lengthAdjust="spacing" textLength="47.9565" x="852" y="188.0669">reporta</text></g><!--link Incidencia_1 to Pasajero_1--><g id="link_Incidencia_1_Pasajero_1"><path codeLine="105" d="M795.24,376.15 C751.56,400.06 701.0827,427.6983 660.5227,449.9083 " fill="none" id="Incidencia_1-to-Pasajero_1" style="stroke:#181818;stroke-width:1.0;stroke-dasharray:7.0,7.0;"/><polygon fill="#181818" points="655.26,452.79,665.0751,451.9758,659.6455,450.3885,661.2328,444.9589,655.26,452.79" style="stroke:#181818;stroke-width:1.0;"/><text fill="#000000" font-family="sans-serif" font-size="13" lengthAdjust="spacing" textLength="40.752" x="742" y="419.0669">afecta</text></g><!--link Pasajero_1 to Veh?culo_1--><g id="link_Pasajero_1_Veh&#237;culo_1"><path codeLine="106" d="M597.08,452.71 C594.4,431.39 591,401.97 589,376 C584.89,322.75 582.9451,266.998 581.9451,228.338 " fill="none" id="Pasajero_1-to-Veh&#237;culo_1" style="stroke:#181818;stroke-width:1.0;"/><polygon fill="#181818" points="581.79,222.34,578.0241,231.4404,581.9193,227.3383,586.0214,231.2336,581.79,222.34" style="stroke:#181818;stroke-width:1.0;"/><text fill="#000000" font-family="sans-serif" font-size="13" lengthAdjust="spacing" textLength="22.9785" x="590" y="342.0669">usa</text></g><!--link Pasajero_1 to Tarifa_1--><g id="link_Pasajero_1_Tarifa_1"><path codeLine="107" d="M601,514.19 C601,537.67 601,563.91 601,584.97 " fill="none" id="Pasajero_1-to-Tarifa_1" style="stroke:#181818;stroke-width:1.0;"/><polygon fill="#181818" points="601,590.97,605,581.97,601,585.97,597,581.97,601,590.97" style="stroke:#181818;stroke-width:1.0;"/><text fill="#000000" font-family="sans-serif" font-size="13" lengthAdjust="spacing" textLength="32.4365" x="602" y="557.0669">paga</text></g><!--link Pasajero_2 to Veh?culo_2--><g id="link_Pasajero_2_Veh&#237;culo_2"><path codeLine="108" d="M940.71,68.16 C899.71,91.87 847.4743,122.0868 805.0643,146.6068 " fill="none" id="Pasajero_2-to-Veh&#237;culo_2" style="stroke:#181818;stroke-width:1.0;"/><polygon fill="#181818" points="799.87,149.61,809.6636,148.5681,804.1986,147.1074,805.6594,141.6424,799.87,149.61" style="stroke:#181818;stroke-width:1.0;"/><text fill="#000000" font-family="sans-serif" font-size="13" lengthAdjust="spacing" textLength="22.9785" x="884" y="111.0669">usa</text></g><!--link Pasajero_2 to Tarifa_2--><g id="link_Pasajero_2_Tarifa_2"><path codeLine="109" d="M1000.91,68.34 C1009.13,95.85 1019.4143,130.3005 1026.7643,154.9305 " fill="none" id="Pasajero_2-to-Tarifa_2" style="stroke:#181818;stroke-width:1.0;"/><polygon fill="#181818" points="1028.48,160.68,1029.7394,150.912,1027.0502,155.8888,1022.0734,153.1996,1028.48,160.68" style="stroke:#181818;stroke-width:1.0;"/><text fill="#000000" font-family="sans-serif" font-size="13" lengthAdjust="spacing" textLength="32.4365" x="1015" y="111.0669">paga</text></g><!--link Tarifa_1 to Abono_1--><g id="link_Tarifa_1_Abono_1"><path codeLine="110" d="M601,636.21 C601,657.33 601,683.55 601,706.98 " fill="none" id="Tarifa_1-to-Abono_1" style="stroke:#181818;stroke-width:1.0;"/><polygon fill="#181818" points="601,712.98,605,703.98,601,707.98,597,703.98,601,712.98" style="stroke:#181818;stroke-width:1.0;"/><text fill="#000000" font-family="sans-serif" font-size="13" lengthAdjust="spacing" textLength="142.9683" x="602" y="679.0669">se emplea para pagar</text></g><!--link Tarifa_2 to Abono_2--><g id="link_Tarifa_2_Abono_2"><path codeLine="111" d="M1035.43,206.28 C1035.95,232.71 1036.7101,271.4012 1037.3001,300.9312 " fill="none" id="Tarifa_2-to-Abono_2" style="stroke:#181818;stroke-width:1.0;"/><polygon fill="#181818" points="1037.42,306.93,1041.2394,297.8519,1037.3201,301.931,1033.241,298.0117,1037.42,306.93" style="stroke:#181818;stroke-width:1.0;"/><text fill="#000000" font-family="sans-serif" font-size="13" lengthAdjust="spacing" textLength="142.9683" x="1037" y="265.0669">se emplea para pagar</text></g><!--SRC=[ZPMnRjim48PtFGKXT7KWitOBQ0ZWn6wR8ONX9Xcw16U9bcbOea1IHekY3zEnGuQYZw0Nwv6H9L9MutYmfRll_tKyykGjJnb9k4psBDYQQvQN-Zl9MRvcKWM1MEzOeiaN9WyyuU9npa5oGNu413ytyvYCxTL2QKZh9wLv0Yec7rd19AIWWf-jnQhIy3Zsb5toav2ERpYUn554HcGynT-mYRrhOkzjhDCkmJogjGxlrrX4mkk_HKokAfa9DK3J8NgXIgZ_W8jVYoAj4YsaNpfzEx4tdqM-bYmcSpZmT516VTdKawqW5uKZUs3R-Ycfzg9zsXqlXLc6idVNK6AjAQJnE1hiOsT0pnXWRri7wZXys0jddnPvAPc2c2mNgyLN1xifq8RX5_HAdIKseLbtBZ2w4bhOmBtCh2ecj_MlRpm7RsiKx9Zi5ZzJ79s4QToBtMw5j2-SN7d29IkPexl3CxVfBs3EArc0rzM6eqESWytMekYAlwr_Qs7MZkeTqz3qlz1D-oDou5YrEZ6WhpEOdkhTAUnMXVkvVx2eUMfpReeCzrLW99n6qPkm2HxtL3LdeZ_sez7bSOvHAJQI9ImSf7gb89tPTq8OD7e3jPEBQOqxneQoT3XxV6DqINTK_K8LpoeFeEU0PmTt795AR7h0o9qwbtFrXZlE5ZAL0ZTFp-IVzTxGcR8ht87JSlgOPAMG6lsynCN5fJjnoC463n5YJdIW2xQo7j8E4kPBo5nWi4E-1tKzQEVHkfhqSRZCiks_r9u1AV6840FBbgOEJVzB_mC0]--></g></svg>