<svg xmlns="http://www.w3.org/2000/svg" xmlns:xlink="http://www.w3.org/1999/xlink" contentStyleType="text/css" height="758px" preserveAspectRatio="none" style="width:623px;height:758px;background:#FFFFFF;" version="1.1" viewBox="0 0 623 758" width="623px" zoomAndPan="magnify"><title>Sistema Transporte P&#250;blico - Modelo Integrado</title><defs/><g><text fill="#000000" font-family="sans-serif" font-size="14" font-weight="bold" lengthAdjust="spacing" textLength="373.1738" x="117.9131" y="22.9951">Sistema Transporte P&#250;blico - Modelo Integrado</text><!--cluster Sistema Transporte P?blico--><g id="cluster_Sistema Transporte P&#250;blico"><path d="M8.5,43.2969 L227.3818,43.2969 A3.75,3.75 0 0 1 229.8818,45.7969 L236.8818,65.5938 L613.5,65.5938 A2.5,2.5 0 0 1 616,68.0938 L616,748.7969 A2.5,2.5 0 0 1 613.5,751.2969 L8.5,751.2969 A2.5,2.5 0 0 1 6,748.7969 L6,45.7969 A2.5,2.5 0 0 1 8.5,43.2969 " fill="none" style="stroke:#000000;stroke-width:1.5;"/><line style="stroke:#000000;stroke-width:1.5;" x1="6" x2="236.8818" y1="65.5938" y2="65.5938"/><text fill="#000000" font-family="sans-serif" font-size="14" font-weight="bold" lengthAdjust="spacing" textLength="217.8818" x="10" y="58.292">Sistema Transporte P&#250;blico</text></g><!--class Usuario--><g id="elem_Usuario"><rect codeLine="4" fill="#F1F1F1" height="48" id="Usuario" rx="2.5" ry="2.5" style="stroke:#181818;stroke-width:0.5;" width="85.2041" x="142.5" y="78.2969"/><ellipse cx="157.5" cy="94.2969" fill="#A9DCDF" rx="11" ry="11" style="stroke:#181818;stroke-width:1.0;"/><path d="M157.6094,89.6406 L156.4531,94.7188 L158.7813,94.7188 L157.6094,89.6406 Z M156.125,87.4063 L159.1094,87.4063 L162.4688,99.7969 L160.0156,99.7969 L159.25,96.7344 L155.9688,96.7344 L155.2188,99.7969 L152.7813,99.7969 L156.125,87.4063 Z " fill="#000000"/><text fill="#000000" font-family="sans-serif" font-size="14" font-style="italic" lengthAdjust="spacing" textLength="53.2041" x="171.5" y="99.1436">Usuario</text><line style="stroke:#181818;stroke-width:0.5;" x1="143.5" x2="226.7041" y1="110.2969" y2="110.2969"/><line style="stroke:#181818;stroke-width:0.5;" x1="143.5" x2="226.7041" y1="118.2969" y2="118.2969"/></g><!--class ElementoTransporte--><g id="elem_ElementoTransporte"><rect codeLine="7" fill="#F1F1F1" height="48" id="ElementoTransporte" rx="2.5" ry="2.5" style="stroke:#181818;stroke-width:0.5;" width="174.8916" x="266.5" y="312.2969"/><ellipse cx="281.5" cy="328.2969" fill="#A9DCDF" rx="11" ry="11" style="stroke:#181818;stroke-width:1.0;"/><path d="M281.6094,323.6406 L280.4531,328.7188 L282.7813,328.7188 L281.6094,323.6406 Z M280.125,321.4063 L283.1094,321.4063 L286.4688,333.7969 L284.0156,333.7969 L283.25,330.7344 L279.9688,330.7344 L279.2188,333.7969 L276.7813,333.7969 L280.125,321.4063 Z " fill="#000000"/><text fill="#000000" font-family="sans-serif" font-size="14" font-style="italic" lengthAdjust="spacing" textLength="142.8916" x="295.5" y="333.1436">ElementoTransporte</text><line style="stroke:#181818;stroke-width:0.5;" x1="267.5" x2="440.3916" y1="344.2969" y2="344.2969"/><line style="stroke:#181818;stroke-width:0.5;" x1="267.5" x2="440.3916" y1="352.2969" y2="352.2969"/></g><!--class ServicioTransporte--><g id="elem_ServicioTransporte"><rect codeLine="10" fill="#F1F1F1" height="48" id="ServicioTransporte" rx="2.5" ry="2.5" style="stroke:#181818;stroke-width:0.5;" width="163.9473" x="272" y="437.2969"/><ellipse cx="287" cy="453.2969" fill="#A9DCDF" rx="11" ry="11" style="stroke:#181818;stroke-width:1.0;"/><path d="M287.1094,448.6406 L285.9531,453.7188 L288.2813,453.7188 L287.1094,448.6406 Z M285.625,446.4063 L288.6094,446.4063 L291.9688,458.7969 L289.5156,458.7969 L288.75,455.7344 L285.4688,455.7344 L284.7188,458.7969 L282.2813,458.7969 L285.625,446.4063 Z " fill="#000000"/><text fill="#000000" font-family="sans-serif" font-size="14" font-style="italic" lengthAdjust="spacing" textLength="131.9473" x="301" y="458.1436">ServicioTransporte</text><line style="stroke:#181818;stroke-width:0.5;" x1="273" x2="434.9473" y1="469.2969" y2="469.2969"/><line style="stroke:#181818;stroke-width:0.5;" x1="273" x2="434.9473" y1="477.2969" y2="477.2969"/></g><!--class MetodoPago--><g id="elem_MetodoPago"><rect codeLine="13" fill="#F1F1F1" height="48" id="MetodoPago" rx="2.5" ry="2.5" style="stroke:#181818;stroke-width:0.5;" width="118.6729" x="26.5" y="312.2969"/><ellipse cx="41.5" cy="328.2969" fill="#A9DCDF" rx="11" ry="11" style="stroke:#181818;stroke-width:1.0;"/><path d="M41.6094,323.6406 L40.4531,328.7188 L42.7813,328.7188 L41.6094,323.6406 Z M40.125,321.4063 L43.1094,321.4063 L46.4688,333.7969 L44.0156,333.7969 L43.25,330.7344 L39.9688,330.7344 L39.2188,333.7969 L36.7813,333.7969 L40.125,321.4063 Z " fill="#000000"/><text fill="#000000" font-family="sans-serif" font-size="14" font-style="italic" lengthAdjust="spacing" textLength="86.6729" x="55.5" y="333.1436">MetodoPago</text><line style="stroke:#181818;stroke-width:0.5;" x1="27.5" x2="144.1729" y1="344.2969" y2="344.2969"/><line style="stroke:#181818;stroke-width:0.5;" x1="27.5" x2="144.1729" y1="352.2969" y2="352.2969"/></g><!--class Pasajero--><g id="elem_Pasajero"><rect codeLine="16" fill="#F1F1F1" height="48" id="Pasajero" rx="2.5" ry="2.5" style="stroke:#181818;stroke-width:0.5;" width="91.7188" x="52" y="187.2969"/><ellipse cx="67" cy="203.2969" fill="#ADD1B2" rx="11" ry="11" style="stroke:#181818;stroke-width:1.0;"/><path d="M69.9688,208.9375 Q69.3906,209.2344 68.75,209.375 Q68.1094,209.5313 67.4063,209.5313 Q64.9063,209.5313 63.5781,207.8906 Q62.2656,206.2344 62.2656,203.1094 Q62.2656,199.9844 63.5781,198.3281 Q64.9063,196.6719 67.4063,196.6719 Q68.1094,196.6719 68.75,196.8281 Q69.4063,196.9844 69.9688,197.2813 L69.9688,200 Q69.3438,199.4219 68.75,199.1563 Q68.1563,198.875 67.5313,198.875 Q66.1875,198.875 65.5,199.9531 Q64.8125,201.0156 64.8125,203.1094 Q64.8125,205.2031 65.5,206.2813 Q66.1875,207.3438 67.5313,207.3438 Q68.1563,207.3438 68.75,207.0781 Q69.3438,206.7969 69.9688,206.2188 L69.9688,208.9375 Z " fill="#000000"/><text fill="#000000" font-family="sans-serif" font-size="14" lengthAdjust="spacing" textLength="59.7188" x="81" y="208.1436">Pasajero</text><line style="stroke:#181818;stroke-width:0.5;" x1="53" x2="142.7188" y1="219.2969" y2="219.2969"/><line style="stroke:#181818;stroke-width:0.5;" x1="53" x2="142.7188" y1="227.2969" y2="227.2969"/></g><!--class Personal--><g id="elem_Personal"><rect codeLine="19" fill="#F1F1F1" height="48" id="Personal" rx="2.5" ry="2.5" style="stroke:#181818;stroke-width:0.5;" width="92.0127" x="245" y="187.2969"/><ellipse cx="260" cy="203.2969" fill="#ADD1B2" rx="11" ry="11" style="stroke:#181818;stroke-width:1.0;"/><path d="M262.9688,208.9375 Q262.3906,209.2344 261.75,209.375 Q261.1094,209.5313 260.4063,209.5313 Q257.9063,209.5313 256.5781,207.8906 Q255.2656,206.2344 255.2656,203.1094 Q255.2656,199.9844 256.5781,198.3281 Q257.9063,196.6719 260.4063,196.6719 Q261.1094,196.6719 261.75,196.8281 Q262.4063,196.9844 262.9688,197.2813 L262.9688,200 Q262.3438,199.4219 261.75,199.1563 Q261.1563,198.875 260.5313,198.875 Q259.1875,198.875 258.5,199.9531 Q257.8125,201.0156 257.8125,203.1094 Q257.8125,205.2031 258.5,206.2813 Q259.1875,207.3438 260.5313,207.3438 Q261.1563,207.3438 261.75,207.0781 Q262.3438,206.7969 262.9688,206.2188 L262.9688,208.9375 Z " fill="#000000"/><text fill="#000000" font-family="sans-serif" font-size="14" lengthAdjust="spacing" textLength="60.0127" x="274" y="208.1436">Personal</text><line style="stroke:#181818;stroke-width:0.5;" x1="246" x2="336.0127" y1="219.2969" y2="219.2969"/><line style="stroke:#181818;stroke-width:0.5;" x1="246" x2="336.0127" y1="227.2969" y2="227.2969"/></g><!--class Vehiculo--><g id="elem_Vehiculo"><rect codeLine="22" fill="#F1F1F1" height="48" id="Vehiculo" rx="2.5" ry="2.5" style="stroke:#181818;stroke-width:0.5;" width="91.9785" x="508" y="437.2969"/><ellipse cx="523" cy="453.2969" fill="#ADD1B2" rx="11" ry="11" style="stroke:#181818;stroke-width:1.0;"/><path d="M525.9688,458.9375 Q525.3906,459.2344 524.75,459.375 Q524.1094,459.5313 523.4063,459.5313 Q520.9063,459.5313 519.5781,457.8906 Q518.2656,456.2344 518.2656,453.1094 Q518.2656,449.9844 519.5781,448.3281 Q520.9063,446.6719 523.4063,446.6719 Q524.1094,446.6719 524.75,446.8281 Q525.4063,446.9844 525.9688,447.2813 L525.9688,450 Q525.3438,449.4219 524.75,449.1563 Q524.1563,448.875 523.5313,448.875 Q522.1875,448.875 521.5,449.9531 Q520.8125,451.0156 520.8125,453.1094 Q520.8125,455.2031 521.5,456.2813 Q522.1875,457.3438 523.5313,457.3438 Q524.1563,457.3438 524.75,457.0781 Q525.3438,456.7969 525.9688,456.2188 L525.9688,458.9375 Z " fill="#000000"/><text fill="#000000" font-family="sans-serif" font-size="14" lengthAdjust="spacing" textLength="59.9785" x="537" y="458.1436">Vehiculo</text><line style="stroke:#181818;stroke-width:0.5;" x1="509" x2="598.9785" y1="469.2969" y2="469.2969"/><line style="stroke:#181818;stroke-width:0.5;" x1="509" x2="598.9785" y1="477.2969" y2="477.2969"/></g><!--class Ruta--><g id="elem_Ruta"><rect codeLine="25" fill="#F1F1F1" height="48" id="Ruta" rx="2.5" ry="2.5" style="stroke:#181818;stroke-width:0.5;" width="64.6689" x="441.5" y="562.2969"/><ellipse cx="456.5" cy="578.2969" fill="#ADD1B2" rx="11" ry="11" style="stroke:#181818;stroke-width:1.0;"/><path d="M459.4688,583.9375 Q458.8906,584.2344 458.25,584.375 Q457.6094,584.5313 456.9063,584.5313 Q454.4063,584.5313 453.0781,582.8906 Q451.7656,581.2344 451.7656,578.1094 Q451.7656,574.9844 453.0781,573.3281 Q454.4063,571.6719 456.9063,571.6719 Q457.6094,571.6719 458.25,571.8281 Q458.9063,571.9844 459.4688,572.2813 L459.4688,575 Q458.8438,574.4219 458.25,574.1563 Q457.6563,573.875 457.0313,573.875 Q455.6875,573.875 455,574.9531 Q454.3125,576.0156 454.3125,578.1094 Q454.3125,580.2031 455,581.2813 Q455.6875,582.3438 457.0313,582.3438 Q457.6563,582.3438 458.25,582.0781 Q458.8438,581.7969 459.4688,581.2188 L459.4688,583.9375 Z " fill="#000000"/><text fill="#000000" font-family="sans-serif" font-size="14" lengthAdjust="spacing" textLength="32.6689" x="470.5" y="583.1436">Ruta</text><line style="stroke:#181818;stroke-width:0.5;" x1="442.5" x2="505.1689" y1="594.2969" y2="594.2969"/><line style="stroke:#181818;stroke-width:0.5;" x1="442.5" x2="505.1689" y1="602.2969" y2="602.2969"/></g><!--class Tarifa--><g id="elem_Tarifa"><rect codeLine="28" fill="#F1F1F1" height="48" id="Tarifa" rx="2.5" ry="2.5" style="stroke:#181818;stroke-width:0.5;" width="72.2842" x="22" y="562.2969"/><ellipse cx="37" cy="578.2969" fill="#ADD1B2" rx="11" ry="11" style="stroke:#181818;stroke-width:1.0;"/><path d="M39.9688,583.9375 Q39.3906,584.2344 38.75,584.375 Q38.1094,584.5313 37.4063,584.5313 Q34.9063,584.5313 33.5781,582.8906 Q32.2656,581.2344 32.2656,578.1094 Q32.2656,574.9844 33.5781,573.3281 Q34.9063,571.6719 37.4063,571.6719 Q38.1094,571.6719 38.75,571.8281 Q39.4063,571.9844 39.9688,572.2813 L39.9688,575 Q39.3438,574.4219 38.75,574.1563 Q38.1563,573.875 37.5313,573.875 Q36.1875,573.875 35.5,574.9531 Q34.8125,576.0156 34.8125,578.1094 Q34.8125,580.2031 35.5,581.2813 Q36.1875,582.3438 37.5313,582.3438 Q38.1563,582.3438 38.75,582.0781 Q39.3438,581.7969 39.9688,581.2188 L39.9688,583.9375 Z " fill="#000000"/><text fill="#000000" font-family="sans-serif" font-size="14" lengthAdjust="spacing" textLength="40.2842" x="51" y="583.1436">Tarifa</text><line style="stroke:#181818;stroke-width:0.5;" x1="23" x2="93.2842" y1="594.2969" y2="594.2969"/><line style="stroke:#181818;stroke-width:0.5;" x1="23" x2="93.2842" y1="602.2969" y2="602.2969"/></g><!--class Abono--><g id="elem_Abono"><rect codeLine="31" fill="#F1F1F1" height="48" id="Abono" rx="2.5" ry="2.5" style="stroke:#181818;stroke-width:0.5;" width="76.4678" x="22" y="437.2969"/><ellipse cx="37" cy="453.2969" fill="#ADD1B2" rx="11" ry="11" style="stroke:#181818;stroke-width:1.0;"/><path d="M39.9688,458.9375 Q39.3906,459.2344 38.75,459.375 Q38.1094,459.5313 37.4063,459.5313 Q34.9063,459.5313 33.5781,457.8906 Q32.2656,456.2344 32.2656,453.1094 Q32.2656,449.9844 33.5781,448.3281 Q34.9063,446.6719 37.4063,446.6719 Q38.1094,446.6719 38.75,446.8281 Q39.4063,446.9844 39.9688,447.2813 L39.9688,450 Q39.3438,449.4219 38.75,449.1563 Q38.1563,448.875 37.5313,448.875 Q36.1875,448.875 35.5,449.9531 Q34.8125,451.0156 34.8125,453.1094 Q34.8125,455.2031 35.5,456.2813 Q36.1875,457.3438 37.5313,457.3438 Q38.1563,457.3438 38.75,457.0781 Q39.3438,456.7969 39.9688,456.2188 L39.9688,458.9375 Z " fill="#000000"/><text fill="#000000" font-family="sans-serif" font-size="14" lengthAdjust="spacing" textLength="44.4678" x="51" y="458.1436">Abono</text><line style="stroke:#181818;stroke-width:0.5;" x1="23" x2="97.4678" y1="469.2969" y2="469.2969"/><line style="stroke:#181818;stroke-width:0.5;" x1="23" x2="97.4678" y1="477.2969" y2="477.2969"/></g><!--class PlanificacionServicio--><g id="elem_PlanificacionServicio"><rect codeLine="34" fill="#F1F1F1" height="48" id="PlanificacionServicio" rx="2.5" ry="2.5" style="stroke:#181818;stroke-width:0.5;" width="175.377" x="129.5" y="562.2969"/><ellipse cx="144.5" cy="578.2969" fill="#ADD1B2" rx="11" ry="11" style="stroke:#181818;stroke-width:1.0;"/><path d="M147.4688,583.9375 Q146.8906,584.2344 146.25,584.375 Q145.6094,584.5313 144.9063,584.5313 Q142.4063,584.5313 141.0781,582.8906 Q139.7656,581.2344 139.7656,578.1094 Q139.7656,574.9844 141.0781,573.3281 Q142.4063,571.6719 144.9063,571.6719 Q145.6094,571.6719 146.25,571.8281 Q146.9063,571.9844 147.4688,572.2813 L147.4688,575 Q146.8438,574.4219 146.25,574.1563 Q145.6563,573.875 145.0313,573.875 Q143.6875,573.875 143,574.9531 Q142.3125,576.0156 142.3125,578.1094 Q142.3125,580.2031 143,581.2813 Q143.6875,582.3438 145.0313,582.3438 Q145.6563,582.3438 146.25,582.0781 Q146.8438,581.7969 147.4688,581.2188 L147.4688,583.9375 Z " fill="#000000"/><text fill="#000000" font-family="sans-serif" font-size="14" lengthAdjust="spacing" textLength="143.377" x="158.5" y="583.1436">PlanificacionServicio</text><line style="stroke:#181818;stroke-width:0.5;" x1="130.5" x2="303.877" y1="594.2969" y2="594.2969"/><line style="stroke:#181818;stroke-width:0.5;" x1="130.5" x2="303.877" y1="602.2969" y2="602.2969"/></g><!--class Incidencia--><g id="elem_Incidencia"><rect codeLine="37" fill="#F1F1F1" height="48" id="Incidencia" rx="2.5" ry="2.5" style="stroke:#181818;stroke-width:0.5;" width="103.1279" x="133.5" y="437.2969"/><ellipse cx="148.5" cy="453.2969" fill="#ADD1B2" rx="11" ry="11" style="stroke:#181818;stroke-width:1.0;"/><path d="M151.4688,458.9375 Q150.8906,459.2344 150.25,459.375 Q149.6094,459.5313 148.9063,459.5313 Q146.4063,459.5313 145.0781,457.8906 Q143.7656,456.2344 143.7656,453.1094 Q143.7656,449.9844 145.0781,448.3281 Q146.4063,446.6719 148.9063,446.6719 Q149.6094,446.6719 150.25,446.8281 Q150.9063,446.9844 151.4688,447.2813 L151.4688,450 Q150.8438,449.4219 150.25,449.1563 Q149.6563,448.875 149.0313,448.875 Q147.6875,448.875 147,449.9531 Q146.3125,451.0156 146.3125,453.1094 Q146.3125,455.2031 147,456.2813 Q147.6875,457.3438 149.0313,457.3438 Q149.6563,457.3438 150.25,457.0781 Q150.8438,456.7969 151.4688,456.2188 L151.4688,458.9375 Z " fill="#000000"/><text fill="#000000" font-family="sans-serif" font-size="14" lengthAdjust="spacing" textLength="71.1279" x="162.5" y="458.1436">Incidencia</text><line style="stroke:#181818;stroke-width:0.5;" x1="134.5" x2="235.6279" y1="469.2969" y2="469.2969"/><line style="stroke:#181818;stroke-width:0.5;" x1="134.5" x2="235.6279" y1="477.2969" y2="477.2969"/></g><!--class Horario--><g id="elem_Horario"><rect codeLine="40" fill="#F1F1F1" height="48" id="Horario" rx="2.5" ry="2.5" style="stroke:#181818;stroke-width:0.5;" width="83.6387" x="365" y="687.2969"/><ellipse cx="380" cy="703.2969" fill="#ADD1B2" rx="11" ry="11" style="stroke:#181818;stroke-width:1.0;"/><path d="M382.9688,708.9375 Q382.3906,709.2344 381.75,709.375 Q381.1094,709.5313 380.4063,709.5313 Q377.9063,709.5313 376.5781,707.8906 Q375.2656,706.2344 375.2656,703.1094 Q375.2656,699.9844 376.5781,698.3281 Q377.9063,696.6719 380.4063,696.6719 Q381.1094,696.6719 381.75,696.8281 Q382.4063,696.9844 382.9688,697.2813 L382.9688,700 Q382.3438,699.4219 381.75,699.1563 Q381.1563,698.875 380.5313,698.875 Q379.1875,698.875 378.5,699.9531 Q377.8125,701.0156 377.8125,703.1094 Q377.8125,705.2031 378.5,706.2813 Q379.1875,707.3438 380.5313,707.3438 Q381.1563,707.3438 381.75,707.0781 Q382.3438,706.7969 382.9688,706.2188 L382.9688,708.9375 Z " fill="#000000"/><text fill="#000000" font-family="sans-serif" font-size="14" lengthAdjust="spacing" textLength="51.6387" x="394" y="708.1436">Horario</text><line style="stroke:#181818;stroke-width:0.5;" x1="366" x2="447.6387" y1="719.2969" y2="719.2969"/><line style="stroke:#181818;stroke-width:0.5;" x1="366" x2="447.6387" y1="727.2969" y2="727.2969"/></g><!--class Parada--><g id="elem_Parada"><rect codeLine="43" fill="#F1F1F1" height="48" id="Parada" rx="2.5" ry="2.5" style="stroke:#181818;stroke-width:0.5;" width="80.8223" x="484.5" y="687.2969"/><ellipse cx="499.5" cy="703.2969" fill="#ADD1B2" rx="11" ry="11" style="stroke:#181818;stroke-width:1.0;"/><path d="M502.4688,708.9375 Q501.8906,709.2344 501.25,709.375 Q500.6094,709.5313 499.9063,709.5313 Q497.4063,709.5313 496.0781,707.8906 Q494.7656,706.2344 494.7656,703.1094 Q494.7656,699.9844 496.0781,698.3281 Q497.4063,696.6719 499.9063,696.6719 Q500.6094,696.6719 501.25,696.8281 Q501.9063,696.9844 502.4688,697.2813 L502.4688,700 Q501.8438,699.4219 501.25,699.1563 Q500.6563,698.875 500.0313,698.875 Q498.6875,698.875 498,699.9531 Q497.3125,701.0156 497.3125,703.1094 Q497.3125,705.2031 498,706.2813 Q498.6875,707.3438 500.0313,707.3438 Q500.6563,707.3438 501.25,707.0781 Q501.8438,706.7969 502.4688,706.2188 L502.4688,708.9375 Z " fill="#000000"/><text fill="#000000" font-family="sans-serif" font-size="14" lengthAdjust="spacing" textLength="48.8223" x="513.5" y="708.1436">Parada</text><line style="stroke:#181818;stroke-width:0.5;" x1="485.5" x2="564.3223" y1="719.2969" y2="719.2969"/><line style="stroke:#181818;stroke-width:0.5;" x1="485.5" x2="564.3223" y1="727.2969" y2="727.2969"/></g><!--class Flota--><g id="elem_Flota"><rect codeLine="46" fill="#F1F1F1" height="48" id="Flota" rx="2.5" ry="2.5" style="stroke:#181818;stroke-width:0.5;" width="66.5762" x="339.5" y="562.2969"/><ellipse cx="354.5" cy="578.2969" fill="#ADD1B2" rx="11" ry="11" style="stroke:#181818;stroke-width:1.0;"/><path d="M357.4688,583.9375 Q356.8906,584.2344 356.25,584.375 Q355.6094,584.5313 354.9063,584.5313 Q352.4063,584.5313 351.0781,582.8906 Q349.7656,581.2344 349.7656,578.1094 Q349.7656,574.9844 351.0781,573.3281 Q352.4063,571.6719 354.9063,571.6719 Q355.6094,571.6719 356.25,571.8281 Q356.9063,571.9844 357.4688,572.2813 L357.4688,575 Q356.8438,574.4219 356.25,574.1563 Q355.6563,573.875 355.0313,573.875 Q353.6875,573.875 353,574.9531 Q352.3125,576.0156 352.3125,578.1094 Q352.3125,580.2031 353,581.2813 Q353.6875,582.3438 355.0313,582.3438 Q355.6563,582.3438 356.25,582.0781 Q356.8438,581.7969 357.4688,581.2188 L357.4688,583.9375 Z " fill="#000000"/><text fill="#000000" font-family="sans-serif" font-size="14" lengthAdjust="spacing" textLength="34.5762" x="368.5" y="583.1436">Flota</text><line style="stroke:#181818;stroke-width:0.5;" x1="340.5" x2="405.0762" y1="594.2969" y2="594.2969"/><line style="stroke:#181818;stroke-width:0.5;" x1="340.5" x2="405.0762" y1="602.2969" y2="602.2969"/></g><!--reverse link Usuario to Pasajero--><g id="link_Usuario_Pasajero"><path codeLine="49" d="M154.7629,140.4817 C140.1729,158.4217 131.42,169.1869 116.84,187.1269 " fill="none" id="Usuario-backto-Pasajero" style="stroke:#181818;stroke-width:1.0;"/><polygon fill="none" points="166.12,126.5169,150.1079,136.696,159.4178,144.2674,166.12,126.5169" style="stroke:#181818;stroke-width:1.0;"/></g><!--reverse link Usuario to Personal--><g id="link_Usuario_Personal"><path codeLine="50" d="M220.6708,139.3017 C238.4508,157.2417 250.28,169.1869 268.04,187.1269 " fill="none" id="Usuario-backto-Personal" style="stroke:#181818;stroke-width:1.0;"/><polygon fill="none" points="208,126.5169,216.4092,143.5253,224.9324,135.0781,208,126.5169" style="stroke:#181818;stroke-width:1.0;"/></g><!--reverse link ElementoTransporte to Vehiculo--><g id="link_ElementoTransporte_Vehiculo"><path codeLine="51" d="M438.9161,367.2115 C458.6361,375.2915 463.01,378.5169 481,390.2969 C500.98,403.3769 520.33,422.3169 534.09,437.1969 " fill="none" id="ElementoTransporte-backto-Vehiculo" style="stroke:#181818;stroke-width:1.0;"/><polygon fill="none" points="422.26,360.3869,436.6412,372.7635,441.1909,361.6594,422.26,360.3869" style="stroke:#181818;stroke-width:1.0;"/></g><!--reverse link ElementoTransporte to Ruta--><g id="link_ElementoTransporte_Ruta"><path codeLine="52" d="M421.4097,369.6526 C434.3997,377.5326 431.83,378.1569 441,390.2969 C479.9,441.8069 479.46,522.8269 476.49,562.2369 " fill="none" id="ElementoTransporte-backto-Ruta" style="stroke:#181818;stroke-width:1.0;"/><polygon fill="none" points="406.02,360.3169,418.2978,374.7825,424.5217,364.5227,406.02,360.3169" style="stroke:#181818;stroke-width:1.0;"/></g><!--reverse link ServicioTransporte to PlanificacionServicio--><g id="link_ServicioTransporte_PlanificacionServicio"><path codeLine="53" d="M314.8368,497.4628 C290.3468,519.4528 267.11,540.3069 242.65,562.2669 " fill="none" id="ServicioTransporte-backto-PlanificacionServicio" style="stroke:#181818;stroke-width:1.0;"/><polygon fill="none" points="328.23,485.4369,310.8282,492.9984,318.8455,501.9272,328.23,485.4369" style="stroke:#181818;stroke-width:1.0;"/></g><!--reverse link MetodoPago to Abono--><g id="link_MetodoPago_Abono"><path codeLine="54" d="M77.3861,378.0475 C72.7361,400.0375 69.51,415.3069 64.87,437.2669 " fill="none" id="MetodoPago-backto-Abono" style="stroke:#181818;stroke-width:1.0;"/><polygon fill="none" points="81.11,360.4369,71.5159,376.8061,83.2563,379.2888,81.11,360.4369" style="stroke:#181818;stroke-width:1.0;"/></g><!--link Pasajero to MetodoPago--><g id="link_Pasajero_MetodoPago"><path codeLine="56" d="M95.74,235.4369 C93.6,257.4269 90.9719,284.3352 88.8319,306.2952 " fill="none" id="Pasajero-to-MetodoPago" style="stroke:#181818;stroke-width:1.0;"/><polygon fill="#181818" points="88.25,312.2669,93.1041,303.6973,88.735,307.2904,85.1418,302.9213,88.25,312.2669" style="stroke:#181818;stroke-width:1.0;"/><text fill="#000000" font-family="sans-serif" font-size="13" lengthAdjust="spacing" textLength="38.9619" x="93" y="278.3638">utiliza</text></g><!--link Personal to ElementoTransporte--><g id="link_Personal_ElementoTransporte"><path codeLine="57" d="M302.85,235.4369 C314.11,257.4269 328.2262,284.9658 339.4662,306.9258 " fill="none" id="Personal-to-ElementoTransporte" style="stroke:#181818;stroke-width:1.0;"/><polygon fill="#181818" points="342.2,312.2669,341.6601,302.4328,339.9219,307.816,334.5387,306.0778,342.2,312.2669" style="stroke:#181818;stroke-width:1.0;"/><text fill="#000000" font-family="sans-serif" font-size="13" lengthAdjust="spacing" textLength="55.8911" x="327" y="278.3638">gestiona</text></g><!--link ElementoTransporte to ServicioTransporte--><g id="link_ElementoTransporte_ServicioTransporte"><path codeLine="58" d="M354,360.4369 C354,382.4269 354,409.3069 354,431.2669 " fill="none" id="ElementoTransporte-to-ServicioTransporte" style="stroke:#181818;stroke-width:1.0;"/><polygon fill="#181818" points="354,437.2669,358,428.2669,354,432.2669,350,428.2669,354,437.2669" style="stroke:#181818;stroke-width:1.0;"/><text fill="#000000" font-family="sans-serif" font-size="13" lengthAdjust="spacing" textLength="77.2954" x="355" y="403.3638">forma parte</text></g><!--link ServicioTransporte to Tarifa--><g id="link_ServicioTransporte_Tarifa"><path codeLine="59" d="M297.69,485.3669 C248.6,505.5169 175.51,535.6469 112,562.2969 C106.27,564.6969 105.7226,564.9214 99.8126,567.4314 " fill="none" id="ServicioTransporte-to-Tarifa" style="stroke:#181818;stroke-width:1.0;"/><polygon fill="#181818" points="94.29,569.7769,104.1375,569.9404,98.8921,567.8223,101.0102,562.577,94.29,569.7769" style="stroke:#181818;stroke-width:1.0;"/><text fill="#000000" font-family="sans-serif" font-size="13" lengthAdjust="spacing" textLength="40.6758" x="225" y="528.3638">define</text></g><!--link ServicioTransporte to Flota--><g id="link_ServicioTransporte_Flota"><path codeLine="60" d="M330.03,485.4969 C319.15,498.9069 310.1,516.2569 317,532.2969 C321.92,543.7269 326.2082,549.8342 335.3382,558.0842 " fill="none" id="ServicioTransporte-to-Flota" style="stroke:#181818;stroke-width:1.0;"/><polygon fill="#181818" points="339.79,562.1069,335.7941,553.105,336.0802,558.7546,330.4306,559.0407,339.79,562.1069" style="stroke:#181818;stroke-width:1.0;"/><text fill="#000000" font-family="sans-serif" font-size="13" lengthAdjust="spacing" textLength="46.541" x="318" y="528.3638">incluye</text></g><!--link ServicioTransporte to Ruta--><g id="link_ServicioTransporte_Ruta"><path codeLine="61" d="M368.34,485.3269 C377.82,499.6469 391.04,517.9769 405,532.2969 C415.86,543.4369 424.3236,550.6323 436.3336,559.5023 " fill="none" id="ServicioTransporte-to-Ruta" style="stroke:#181818;stroke-width:1.0;"/><polygon fill="#181818" points="441.16,563.0669,436.2968,554.5025,437.138,560.0964,431.5441,560.9377,441.16,563.0669" style="stroke:#181818;stroke-width:1.0;"/><text fill="#000000" font-family="sans-serif" font-size="13" lengthAdjust="spacing" textLength="56.1577" x="406" y="528.3638">organiza</text></g><!--link Ruta to Parada--><g id="link_Ruta_Parada"><path codeLine="62" d="M483.59,610.4369 C492.71,632.4269 504.0531,659.7639 513.1531,681.7239 " fill="none" id="Ruta-to-Parada" style="stroke:#181818;stroke-width:1.0;"/><polygon fill="#181818" points="515.45,687.2669,515.6999,677.4212,513.5359,682.6478,508.3093,680.4838,515.45,687.2669" style="stroke:#181818;stroke-width:1.0;"/><text fill="#000000" font-family="sans-serif" font-size="13" lengthAdjust="spacing" textLength="46.541" x="503" y="653.3638">incluye</text></g><!--link Ruta to Horario--><g id="link_Ruta_Horario"><path codeLine="63" d="M461.4,610.4369 C449.42,632.4269 434.3797,660.0377 422.4197,681.9977 " fill="none" id="Ruta-to-Horario" style="stroke:#181818;stroke-width:1.0;"/><polygon fill="#181818" points="419.55,687.2669,427.3674,681.2762,421.9415,682.8759,420.3418,677.4499,419.55,687.2669" style="stroke:#181818;stroke-width:1.0;"/><text fill="#000000" font-family="sans-serif" font-size="13" lengthAdjust="spacing" textLength="40.6758" x="445" y="653.3638">define</text></g><!--link ElementoTransporte to Incidencia--><g id="link_ElementoTransporte_Incidencia"><path codeLine="64" d="M311.79,360.3169 C296.65,369.1269 279.7,379.6269 265,390.2969 C245.29,404.6069 229.0341,418.7021 213.6541,432.9321 " fill="none" id="ElementoTransporte-to-Incidencia" style="stroke:#181818;stroke-width:1.0;"/><polygon fill="#181818" points="209.25,437.0069,218.5727,433.8308,212.9201,433.6112,213.1396,427.9586,209.25,437.0069" style="stroke:#181818;stroke-width:1.0;"/><text fill="#000000" font-family="sans-serif" font-size="13" lengthAdjust="spacing" textLength="79.5488" x="266" y="403.3638">puede tener</text></g><!--link Usuario to Incidencia--><g id="link_Usuario_Incidencia"><path codeLine="65" d="M185,126.4469 C185,191.0269 185,366.6769 185,431.1969 " fill="none" id="Usuario-to-Incidencia" style="stroke:#181818;stroke-width:1.0;"/><polygon fill="#181818" points="185,437.1969,189,428.1969,185,432.1969,181,428.1969,185,437.1969" style="stroke:#181818;stroke-width:1.0;"/><text fill="#000000" font-family="sans-serif" font-size="13" lengthAdjust="spacing" textLength="47.9565" x="186" y="278.3638">reporta</text></g><!--SRC=[ZLFBJiCm4BpdArRSymCHGk80eeTA5ItSjyus65nlP3j8FFfZNFan7EUXjDr6v10fdjdrpimcw608rje7sYDi75fVimi4gz-VhT6A8OSbbsGO5ZPGvR3aBAjHlM55S3LJU0LV6SG7jpuuL06KGU_XoJVeDFVW8PCuTuRsP0DFkixHr-JUjTB_fIyfSCahh4w6wD0LUdmb9sFaF5iq4lPCBrerHgnxR09Avvlen4v4RhTivH4CMhtJ2gDUEmYNY0khT4dn9VP_O7UUmc10p5WikZTygcD8y_expqVh1AGtBY52keaqE3XBQgrC127qxYh9e5GnoJqnayUTZ37qFB-PyWfeWZRwixjoZBzb2GCMK94FyLgy9A4j50OlOCSk_aKrngzBwjhQVc4AA6cdxIor2wi0RPLfFcQfQJqBO5T5wtgjwQm5-tKuRZIYmnuTJNH1-6GZ2wWRAWa2MN97wt96TDHsmEpm1m00]--></g></svg>