<svg xmlns="http://www.w3.org/2000/svg" xmlns:xlink="http://www.w3.org/1999/xlink" contentStyleType="text/css" height="561px" preserveAspectRatio="none" style="width:788px;height:561px;background:#FFFFFF;" version="1.1" viewBox="0 0 788 561" width="788px" zoomAndPan="magnify"><title>Diagrama de Estados - Servicio Transporte P&#250;blico</title><defs/><g><text fill="#000000" font-family="sans-serif" font-size="14" font-weight="bold" lengthAdjust="spacing" textLength="400.6748" x="187.1213" y="22.9951">Diagrama de Estados - Servicio Transporte P&#250;blico</text><ellipse cx="296.5" cy="53.2969" fill="#222222" rx="10" ry="10" style="stroke:#222222;stroke-width:1.0;"/><g id="Inactivo"><rect fill="#F1F1F1" height="50" rx="12.5" ry="12.5" style="stroke:#181818;stroke-width:0.5;" width="75.5078" x="258.5" y="124.2969"/><line style="stroke:#181818;stroke-width:0.5;" x1="258.5" x2="334.0078" y1="150.5938" y2="150.5938"/><text fill="#000000" font-family="sans-serif" font-size="14" lengthAdjust="spacing" textLength="55.5078" x="268.5" y="142.292">Inactivo</text></g><g id="EnServicio"><rect fill="#F1F1F1" height="50" rx="12.5" ry="12.5" style="stroke:#181818;stroke-width:0.5;" width="93.3018" x="7" y="251.2969"/><line style="stroke:#181818;stroke-width:0.5;" x1="7" x2="100.3018" y1="277.5938" y2="277.5938"/><text fill="#000000" font-family="sans-serif" font-size="14" lengthAdjust="spacing" textLength="73.3018" x="17" y="269.292">EnServicio</text></g><g id="EnRuta"><rect fill="#F1F1F1" height="50" rx="12.5" ry="12.5" style="stroke:#181818;stroke-width:0.5;" width="70.3877" x="365.5" y="378.2969"/><line style="stroke:#181818;stroke-width:0.5;" x1="365.5" x2="435.8877" y1="404.5938" y2="404.5938"/><text fill="#000000" font-family="sans-serif" font-size="14" lengthAdjust="spacing" textLength="50.3877" x="375.5" y="396.292">EnRuta</text></g><g id="Parada"><rect fill="#F1F1F1" height="50" rx="12.5" ry="12.5" style="stroke:#181818;stroke-width:0.5;" width="68.8223" x="467" y="505.2969"/><line style="stroke:#181818;stroke-width:0.5;" x1="467" x2="535.8223" y1="531.5938" y2="531.5938"/><text fill="#000000" font-family="sans-serif" font-size="14" lengthAdjust="spacing" textLength="48.8223" x="477" y="523.292">Parada</text></g><g id="GenerarEstad&#237;sticas"><rect fill="#F1F1F1" height="50" rx="12.5" ry="12.5" style="stroke:#181818;stroke-width:0.5;" width="160.2666" x="184.5" y="251.2969"/><line style="stroke:#181818;stroke-width:0.5;" x1="184.5" x2="344.7666" y1="277.5938" y2="277.5938"/><text fill="#000000" font-family="sans-serif" font-size="14" lengthAdjust="spacing" textLength="140.2666" x="194.5" y="269.292">GenerarEstad&#237;sticas</text></g><!--link *start* to Inactivo--><g id="link_*start*_Inactivo"><path d="M296.5,63.3069 C296.5,77.1869 296.5,98.2669 296.5,118.1369 " fill="none" id="*start*-to-Inactivo" style="stroke:#181818;stroke-width:1.0;"/><polygon fill="#181818" points="296.5,124.1369,300.5,115.1369,296.5,119.1369,292.5,115.1369,296.5,124.1369" style="stroke:#181818;stroke-width:1.0;"/></g><!--link Inactivo to EnServicio--><g id="link_Inactivo_EnServicio"><path d="M258.07,153.1269 C196.16,158.5669 78.72,172.8569 53.5,204.2969 C43.16,217.1769 42.5481,230.1289 45.3581,245.1689 " fill="none" id="Inactivo-to-EnServicio" style="stroke:#181818;stroke-width:1.0;"/><polygon fill="#181818" points="46.46,251.0669,48.739,241.4853,45.5417,246.1519,40.8751,242.9546,46.46,251.0669" style="stroke:#181818;stroke-width:1.0;"/><text fill="#000000" font-family="sans-serif" font-size="13" lengthAdjust="spacing" textLength="88.6768" x="54.5" y="217.3638">Inicia servicio</text></g><!--link EnServicio to EnRuta--><g id="link_EnServicio_EnRuta"><path d="M100.3,294.1569 C170.78,319.5469 296.9552,364.9932 359.7952,387.6332 " fill="none" id="EnServicio-to-EnRuta" style="stroke:#181818;stroke-width:1.0;"/><polygon fill="#181818" points="365.44,389.6669,358.3286,382.8531,360.736,387.9721,355.617,390.3795,365.44,389.6669" style="stroke:#181818;stroke-width:1.0;"/><text fill="#000000" font-family="sans-serif" font-size="13" lengthAdjust="spacing" textLength="93.4946" x="248.5" y="344.3638">Ruta asignada</text></g><!--link EnRuta to Parada--><g id="link_EnRuta_Parada"><path d="M372.24,428.5469 C359.41,442.5469 349.16,460.2969 359.5,475.2969 C383.53,510.1469 427.2999,521.7545 461.0399,526.1345 " fill="none" id="EnRuta-to-Parada" style="stroke:#181818;stroke-width:1.0;"/><polygon fill="#181818" points="466.99,526.9069,458.5798,521.7815,462.0316,526.2632,457.5499,529.715,466.99,526.9069" style="stroke:#181818;stroke-width:1.0;"/><text fill="#000000" font-family="sans-serif" font-size="13" lengthAdjust="spacing" textLength="97.0493" x="360.5" y="471.3638">Llega a parada</text></g><!--link Parada to EnRuta--><g id="link_Parada_EnRuta"><path d="M490.79,504.9769 C483.85,490.6169 473.97,472.5369 462.5,458.2969 C453.81,447.5169 447.3952,441.0167 437.0752,432.3067 " fill="none" id="Parada-to-EnRuta" style="stroke:#181818;stroke-width:1.0;"/><polygon fill="#181818" points="432.49,428.4369,436.7879,437.2985,436.311,431.6618,441.9477,431.1849,432.49,428.4369" style="stroke:#181818;stroke-width:1.0;"/><text fill="#000000" font-family="sans-serif" font-size="13" lengthAdjust="spacing" textLength="102.9526" x="474.5" y="471.3638">Pr&#243;xima parada</text></g><!--link EnRuta to Inactivo--><g id="link_EnRuta_Inactivo"><path d="M409.6,378.1369 C422.89,338.4569 442.53,258.4869 408.5,204.2969 C392.43,178.7069 366.2168,166.5782 340.5268,159.3682 " fill="none" id="EnRuta-to-Inactivo" style="stroke:#181818;stroke-width:1.0;"/><polygon fill="#181818" points="334.75,157.7469,342.3343,164.03,339.564,159.0979,344.4961,156.3276,334.75,157.7469" style="stroke:#181818;stroke-width:1.0;"/><text fill="#000000" font-family="sans-serif" font-size="13" lengthAdjust="spacing" textLength="135.9541" x="427.5" y="280.8638">Incidencia detectada</text></g><!--link Parada to Inactivo--><g id="link_Parada_Inactivo"><path d="M536.39,516.4969 C554.52,507.8469 575.03,494.4669 585.5,475.2969 C633.3,387.7469 631.32,331.1169 571.5,251.2969 C514.92,175.7969 401.9216,157.1568 340.6916,152.3468 " fill="none" id="Parada-to-Inactivo" style="stroke:#181818;stroke-width:1.0;"/><polygon fill="#181818" points="334.71,151.8769,343.3691,156.5694,339.6946,152.2684,343.9956,148.594,334.71,151.8769" style="stroke:#181818;stroke-width:1.0;"/><text fill="#000000" font-family="sans-serif" font-size="13" lengthAdjust="spacing" textLength="162.4175" x="618.5" y="344.3638">&#218;ltima parada alcanzada</text></g><!--link Inactivo to GenerarEstad?sticas--><g id="link_Inactivo_GenerarEstad&#237;sticas"><path d="M258.4,153.2969 C225.06,158.1669 178.45,170.9269 155.5,204.2969 C141.49,224.6669 153.9502,238.0969 179.0502,249.6569 " fill="none" id="Inactivo-to-GenerarEstad&#237;sticas" style="stroke:#181818;stroke-width:1.0;"/><polygon fill="#181818" points="184.5,252.1669,177.9986,244.7688,179.9585,250.0753,174.652,252.0352,184.5,252.1669" style="stroke:#181818;stroke-width:1.0;"/><text fill="#000000" font-family="sans-serif" font-size="13" lengthAdjust="spacing" textLength="96.5415" x="156.5" y="217.3638">Procesar datos</text></g><!--link GenerarEstad?sticas to Inactivo--><g id="link_GenerarEstad&#237;sticas_Inactivo"><path d="M270.65,251.2669 C276.31,229.1569 283.1715,202.3493 288.8415,180.2093 " fill="none" id="GenerarEstad&#237;sticas-to-Inactivo" style="stroke:#181818;stroke-width:1.0;"/><polygon fill="#181818" points="290.33,174.3969,284.2222,182.1231,289.0895,179.2406,291.9721,184.1079,290.33,174.3969" style="stroke:#181818;stroke-width:1.0;"/><text fill="#000000" font-family="sans-serif" font-size="13" lengthAdjust="spacing" textLength="117.9014" x="282.5" y="217.3638">Servicio concluido</text></g><!--SRC=[RP0nJWGn34NxdC8rqbo0WeeLGg8O0Trg2-DO8qlPP6LxLokEmXsew6ZdOcJ2CCmYgbWlB_yhTl74S2iuAEuH8iF676CnwE29zIGa1PuLinsAEaC_VhuaeHB2zce7NNS3znd9vLJ9pzJm9Y_FhwjJ1mIRILXTVhkFHyVgjGDDXemHmumdeqUjf1eFYOUgmA61jRAqJtKaaVDK6TcPV593c4Ck6diTFywoNm9NpYfmV4l-Am4cmlpQGY_-VCUP5RLjS7mt5q9h7ONOK26Y5ml_MdyAb_LGoPIE4iiN]--></g></svg>