<svg xmlns="http://www.w3.org/2000/svg" xmlns:xlink="http://www.w3.org/1999/xlink" contentStyleType="text/css" height="633px" preserveAspectRatio="none" style="width:716px;height:633px;background:#FFFFFF;" version="1.1" viewBox="0 0 716 633" width="716px" zoomAndPan="magnify"><title>Sistema Transporte P&#250;blico - Con Estad&#237;sticas</title><defs/><g><text fill="#000000" font-family="sans-serif" font-size="14" font-weight="bold" lengthAdjust="spacing" textLength="362.9336" x="169.5332" y="22.9951">Sistema Transporte P&#250;blico - Con Estad&#237;sticas</text><!--cluster Sistema Transporte P?blico--><g id="cluster_Sistema Transporte P&#250;blico"><path d="M8.5,43.2969 L227.3818,43.2969 A3.75,3.75 0 0 1 229.8818,45.7969 L236.8818,65.5938 L706.5,65.5938 A2.5,2.5 0 0 1 709,68.0938 L709,623.7969 A2.5,2.5 0 0 1 706.5,626.2969 L8.5,626.2969 A2.5,2.5 0 0 1 6,623.7969 L6,45.7969 A2.5,2.5 0 0 1 8.5,43.2969 " fill="none" style="stroke:#000000;stroke-width:1.5;"/><line style="stroke:#000000;stroke-width:1.5;" x1="6" x2="236.8818" y1="65.5938" y2="65.5938"/><text fill="#000000" font-family="sans-serif" font-size="14" font-weight="bold" lengthAdjust="spacing" textLength="217.8818" x="10" y="58.292">Sistema Transporte P&#250;blico</text></g><!--class Persona--><g id="elem_Persona"><rect codeLine="4" fill="#F1F1F1" height="48" id="Persona" rx="2.5" ry="2.5" style="stroke:#181818;stroke-width:0.5;" width="88.123" x="339" y="78.2969"/><ellipse cx="354" cy="94.2969" fill="#ADD1B2" rx="11" ry="11" style="stroke:#181818;stroke-width:1.0;"/><path d="M356.9688,99.9375 Q356.3906,100.2344 355.75,100.375 Q355.1094,100.5313 354.4063,100.5313 Q351.9063,100.5313 350.5781,98.8906 Q349.2656,97.2344 349.2656,94.1094 Q349.2656,90.9844 350.5781,89.3281 Q351.9063,87.6719 354.4063,87.6719 Q355.1094,87.6719 355.75,87.8281 Q356.4063,87.9844 356.9688,88.2813 L356.9688,91 Q356.3438,90.4219 355.75,90.1563 Q355.1563,89.875 354.5313,89.875 Q353.1875,89.875 352.5,90.9531 Q351.8125,92.0156 351.8125,94.1094 Q351.8125,96.2031 352.5,97.2813 Q353.1875,98.3438 354.5313,98.3438 Q355.1563,98.3438 355.75,98.0781 Q356.3438,97.7969 356.9688,97.2188 L356.9688,99.9375 Z " fill="#000000"/><text fill="#000000" font-family="sans-serif" font-size="14" lengthAdjust="spacing" textLength="56.123" x="368" y="99.1436">Persona</text><line style="stroke:#181818;stroke-width:0.5;" x1="340" x2="426.123" y1="110.2969" y2="110.2969"/><line style="stroke:#181818;stroke-width:0.5;" x1="340" x2="426.123" y1="118.2969" y2="118.2969"/></g><!--class Pasajero--><g id="elem_Pasajero"><rect codeLine="7" fill="#F1F1F1" height="48" id="Pasajero" rx="2.5" ry="2.5" style="stroke:#181818;stroke-width:0.5;" width="91.7188" x="443" y="187.2969"/><ellipse cx="458" cy="203.2969" fill="#ADD1B2" rx="11" ry="11" style="stroke:#181818;stroke-width:1.0;"/><path d="M460.9688,208.9375 Q460.3906,209.2344 459.75,209.375 Q459.1094,209.5313 458.4063,209.5313 Q455.9063,209.5313 454.5781,207.8906 Q453.2656,206.2344 453.2656,203.1094 Q453.2656,199.9844 454.5781,198.3281 Q455.9063,196.6719 458.4063,196.6719 Q459.1094,196.6719 459.75,196.8281 Q460.4063,196.9844 460.9688,197.2813 L460.9688,200 Q460.3438,199.4219 459.75,199.1563 Q459.1563,198.875 458.5313,198.875 Q457.1875,198.875 456.5,199.9531 Q455.8125,201.0156 455.8125,203.1094 Q455.8125,205.2031 456.5,206.2813 Q457.1875,207.3438 458.5313,207.3438 Q459.1563,207.3438 459.75,207.0781 Q460.3438,206.7969 460.9688,206.2188 L460.9688,208.9375 Z " fill="#000000"/><text fill="#000000" font-family="sans-serif" font-size="14" lengthAdjust="spacing" textLength="59.7188" x="472" y="208.1436">Pasajero</text><line style="stroke:#181818;stroke-width:0.5;" x1="444" x2="533.7188" y1="219.2969" y2="219.2969"/><line style="stroke:#181818;stroke-width:0.5;" x1="444" x2="533.7188" y1="227.2969" y2="227.2969"/></g><!--class Conductor--><g id="elem_Conductor"><rect codeLine="10" fill="#F1F1F1" height="48" id="Conductor" rx="2.5" ry="2.5" style="stroke:#181818;stroke-width:0.5;" width="104.4814" x="289" y="187.2969"/><ellipse cx="304" cy="203.2969" fill="#ADD1B2" rx="11" ry="11" style="stroke:#181818;stroke-width:1.0;"/><path d="M306.9688,208.9375 Q306.3906,209.2344 305.75,209.375 Q305.1094,209.5313 304.4063,209.5313 Q301.9063,209.5313 300.5781,207.8906 Q299.2656,206.2344 299.2656,203.1094 Q299.2656,199.9844 300.5781,198.3281 Q301.9063,196.6719 304.4063,196.6719 Q305.1094,196.6719 305.75,196.8281 Q306.4063,196.9844 306.9688,197.2813 L306.9688,200 Q306.3438,199.4219 305.75,199.1563 Q305.1563,198.875 304.5313,198.875 Q303.1875,198.875 302.5,199.9531 Q301.8125,201.0156 301.8125,203.1094 Q301.8125,205.2031 302.5,206.2813 Q303.1875,207.3438 304.5313,207.3438 Q305.1563,207.3438 305.75,207.0781 Q306.3438,206.7969 306.9688,206.2188 L306.9688,208.9375 Z " fill="#000000"/><text fill="#000000" font-family="sans-serif" font-size="14" lengthAdjust="spacing" textLength="72.4814" x="318" y="208.1436">Conductor</text><line style="stroke:#181818;stroke-width:0.5;" x1="290" x2="392.4814" y1="219.2969" y2="219.2969"/><line style="stroke:#181818;stroke-width:0.5;" x1="290" x2="392.4814" y1="227.2969" y2="227.2969"/></g><!--class Tarifa--><g id="elem_Tarifa"><rect codeLine="13" fill="#F1F1F1" height="48" id="Tarifa" rx="2.5" ry="2.5" style="stroke:#181818;stroke-width:0.5;" width="72.2842" x="621" y="312.2969"/><ellipse cx="636" cy="328.2969" fill="#ADD1B2" rx="11" ry="11" style="stroke:#181818;stroke-width:1.0;"/><path d="M638.9688,333.9375 Q638.3906,334.2344 637.75,334.375 Q637.1094,334.5313 636.4063,334.5313 Q633.9063,334.5313 632.5781,332.8906 Q631.2656,331.2344 631.2656,328.1094 Q631.2656,324.9844 632.5781,323.3281 Q633.9063,321.6719 636.4063,321.6719 Q637.1094,321.6719 637.75,321.8281 Q638.4063,321.9844 638.9688,322.2813 L638.9688,325 Q638.3438,324.4219 637.75,324.1563 Q637.1563,323.875 636.5313,323.875 Q635.1875,323.875 634.5,324.9531 Q633.8125,326.0156 633.8125,328.1094 Q633.8125,330.2031 634.5,331.2813 Q635.1875,332.3438 636.5313,332.3438 Q637.1563,332.3438 637.75,332.0781 Q638.3438,331.7969 638.9688,331.2188 L638.9688,333.9375 Z " fill="#000000"/><text fill="#000000" font-family="sans-serif" font-size="14" lengthAdjust="spacing" textLength="40.2842" x="650" y="333.1436">Tarifa</text><line style="stroke:#181818;stroke-width:0.5;" x1="622" x2="692.2842" y1="344.2969" y2="344.2969"/><line style="stroke:#181818;stroke-width:0.5;" x1="622" x2="692.2842" y1="352.2969" y2="352.2969"/></g><!--class MetodoPago--><g id="elem_MetodoPago"><rect codeLine="16" fill="#F1F1F1" height="48" id="MetodoPago" rx="2.5" ry="2.5" style="stroke:#181818;stroke-width:0.5;" width="118.6729" x="573.5" y="187.2969"/><ellipse cx="588.5" cy="203.2969" fill="#ADD1B2" rx="11" ry="11" style="stroke:#181818;stroke-width:1.0;"/><path d="M591.4688,208.9375 Q590.8906,209.2344 590.25,209.375 Q589.6094,209.5313 588.9063,209.5313 Q586.4063,209.5313 585.0781,207.8906 Q583.7656,206.2344 583.7656,203.1094 Q583.7656,199.9844 585.0781,198.3281 Q586.4063,196.6719 588.9063,196.6719 Q589.6094,196.6719 590.25,196.8281 Q590.9063,196.9844 591.4688,197.2813 L591.4688,200 Q590.8438,199.4219 590.25,199.1563 Q589.6563,198.875 589.0313,198.875 Q587.6875,198.875 587,199.9531 Q586.3125,201.0156 586.3125,203.1094 Q586.3125,205.2031 587,206.2813 Q587.6875,207.3438 589.0313,207.3438 Q589.6563,207.3438 590.25,207.0781 Q590.8438,206.7969 591.4688,206.2188 L591.4688,208.9375 Z " fill="#000000"/><text fill="#000000" font-family="sans-serif" font-size="14" lengthAdjust="spacing" textLength="86.6729" x="602.5" y="208.1436">MetodoPago</text><line style="stroke:#181818;stroke-width:0.5;" x1="574.5" x2="691.1729" y1="219.2969" y2="219.2969"/><line style="stroke:#181818;stroke-width:0.5;" x1="574.5" x2="691.1729" y1="227.2969" y2="227.2969"/></g><!--class Abono--><g id="elem_Abono"><rect codeLine="19" fill="#F1F1F1" height="48" id="Abono" rx="2.5" ry="2.5" style="stroke:#181818;stroke-width:0.5;" width="76.4678" x="595" y="78.2969"/><ellipse cx="610" cy="94.2969" fill="#ADD1B2" rx="11" ry="11" style="stroke:#181818;stroke-width:1.0;"/><path d="M612.9688,99.9375 Q612.3906,100.2344 611.75,100.375 Q611.1094,100.5313 610.4063,100.5313 Q607.9063,100.5313 606.5781,98.8906 Q605.2656,97.2344 605.2656,94.1094 Q605.2656,90.9844 606.5781,89.3281 Q607.9063,87.6719 610.4063,87.6719 Q611.1094,87.6719 611.75,87.8281 Q612.4063,87.9844 612.9688,88.2813 L612.9688,91 Q612.3438,90.4219 611.75,90.1563 Q611.1563,89.875 610.5313,89.875 Q609.1875,89.875 608.5,90.9531 Q607.8125,92.0156 607.8125,94.1094 Q607.8125,96.2031 608.5,97.2813 Q609.1875,98.3438 610.5313,98.3438 Q611.1563,98.3438 611.75,98.0781 Q612.3438,97.7969 612.9688,97.2188 L612.9688,99.9375 Z " fill="#000000"/><text fill="#000000" font-family="sans-serif" font-size="14" lengthAdjust="spacing" textLength="44.4678" x="624" y="99.1436">Abono</text><line style="stroke:#181818;stroke-width:0.5;" x1="596" x2="670.4678" y1="110.2969" y2="110.2969"/><line style="stroke:#181818;stroke-width:0.5;" x1="596" x2="670.4678" y1="118.2969" y2="118.2969"/></g><!--class Vehiculo--><g id="elem_Vehiculo"><rect codeLine="22" fill="#F1F1F1" height="48" id="Vehiculo" rx="2.5" ry="2.5" style="stroke:#181818;stroke-width:0.5;" width="91.9785" x="251" y="312.2969"/><ellipse cx="266" cy="328.2969" fill="#ADD1B2" rx="11" ry="11" style="stroke:#181818;stroke-width:1.0;"/><path d="M268.9688,333.9375 Q268.3906,334.2344 267.75,334.375 Q267.1094,334.5313 266.4063,334.5313 Q263.9063,334.5313 262.5781,332.8906 Q261.2656,331.2344 261.2656,328.1094 Q261.2656,324.9844 262.5781,323.3281 Q263.9063,321.6719 266.4063,321.6719 Q267.1094,321.6719 267.75,321.8281 Q268.4063,321.9844 268.9688,322.2813 L268.9688,325 Q268.3438,324.4219 267.75,324.1563 Q267.1563,323.875 266.5313,323.875 Q265.1875,323.875 264.5,324.9531 Q263.8125,326.0156 263.8125,328.1094 Q263.8125,330.2031 264.5,331.2813 Q265.1875,332.3438 266.5313,332.3438 Q267.1563,332.3438 267.75,332.0781 Q268.3438,331.7969 268.9688,331.2188 L268.9688,333.9375 Z " fill="#000000"/><text fill="#000000" font-family="sans-serif" font-size="14" lengthAdjust="spacing" textLength="59.9785" x="280" y="333.1436">Vehiculo</text><line style="stroke:#181818;stroke-width:0.5;" x1="252" x2="341.9785" y1="344.2969" y2="344.2969"/><line style="stroke:#181818;stroke-width:0.5;" x1="252" x2="341.9785" y1="352.2969" y2="352.2969"/></g><!--class Ruta--><g id="elem_Ruta"><rect codeLine="25" fill="#F1F1F1" height="48" id="Ruta" rx="2.5" ry="2.5" style="stroke:#181818;stroke-width:0.5;" width="64.6689" x="272.5" y="437.2969"/><ellipse cx="287.5" cy="453.2969" fill="#ADD1B2" rx="11" ry="11" style="stroke:#181818;stroke-width:1.0;"/><path d="M290.4688,458.9375 Q289.8906,459.2344 289.25,459.375 Q288.6094,459.5313 287.9063,459.5313 Q285.4063,459.5313 284.0781,457.8906 Q282.7656,456.2344 282.7656,453.1094 Q282.7656,449.9844 284.0781,448.3281 Q285.4063,446.6719 287.9063,446.6719 Q288.6094,446.6719 289.25,446.8281 Q289.9063,446.9844 290.4688,447.2813 L290.4688,450 Q289.8438,449.4219 289.25,449.1563 Q288.6563,448.875 288.0313,448.875 Q286.6875,448.875 286,449.9531 Q285.3125,451.0156 285.3125,453.1094 Q285.3125,455.2031 286,456.2813 Q286.6875,457.3438 288.0313,457.3438 Q288.6563,457.3438 289.25,457.0781 Q289.8438,456.7969 290.4688,456.2188 L290.4688,458.9375 Z " fill="#000000"/><text fill="#000000" font-family="sans-serif" font-size="14" lengthAdjust="spacing" textLength="32.6689" x="301.5" y="458.1436">Ruta</text><line style="stroke:#181818;stroke-width:0.5;" x1="273.5" x2="336.1689" y1="469.2969" y2="469.2969"/><line style="stroke:#181818;stroke-width:0.5;" x1="273.5" x2="336.1689" y1="477.2969" y2="477.2969"/></g><!--class Horario--><g id="elem_Horario"><rect codeLine="28" fill="#F1F1F1" height="48" id="Horario" rx="2.5" ry="2.5" style="stroke:#181818;stroke-width:0.5;" width="83.6387" x="187" y="562.2969"/><ellipse cx="202" cy="578.2969" fill="#ADD1B2" rx="11" ry="11" style="stroke:#181818;stroke-width:1.0;"/><path d="M204.9688,583.9375 Q204.3906,584.2344 203.75,584.375 Q203.1094,584.5313 202.4063,584.5313 Q199.9063,584.5313 198.5781,582.8906 Q197.2656,581.2344 197.2656,578.1094 Q197.2656,574.9844 198.5781,573.3281 Q199.9063,571.6719 202.4063,571.6719 Q203.1094,571.6719 203.75,571.8281 Q204.4063,571.9844 204.9688,572.2813 L204.9688,575 Q204.3438,574.4219 203.75,574.1563 Q203.1563,573.875 202.5313,573.875 Q201.1875,573.875 200.5,574.9531 Q199.8125,576.0156 199.8125,578.1094 Q199.8125,580.2031 200.5,581.2813 Q201.1875,582.3438 202.5313,582.3438 Q203.1563,582.3438 203.75,582.0781 Q204.3438,581.7969 204.9688,581.2188 L204.9688,583.9375 Z " fill="#000000"/><text fill="#000000" font-family="sans-serif" font-size="14" lengthAdjust="spacing" textLength="51.6387" x="216" y="583.1436">Horario</text><line style="stroke:#181818;stroke-width:0.5;" x1="188" x2="269.6387" y1="594.2969" y2="594.2969"/><line style="stroke:#181818;stroke-width:0.5;" x1="188" x2="269.6387" y1="602.2969" y2="602.2969"/></g><!--class Parada--><g id="elem_Parada"><rect codeLine="31" fill="#F1F1F1" height="48" id="Parada" rx="2.5" ry="2.5" style="stroke:#181818;stroke-width:0.5;" width="80.8223" x="340.5" y="562.2969"/><ellipse cx="355.5" cy="578.2969" fill="#ADD1B2" rx="11" ry="11" style="stroke:#181818;stroke-width:1.0;"/><path d="M358.4688,583.9375 Q357.8906,584.2344 357.25,584.375 Q356.6094,584.5313 355.9063,584.5313 Q353.4063,584.5313 352.0781,582.8906 Q350.7656,581.2344 350.7656,578.1094 Q350.7656,574.9844 352.0781,573.3281 Q353.4063,571.6719 355.9063,571.6719 Q356.6094,571.6719 357.25,571.8281 Q357.9063,571.9844 358.4688,572.2813 L358.4688,575 Q357.8438,574.4219 357.25,574.1563 Q356.6563,573.875 356.0313,573.875 Q354.6875,573.875 354,574.9531 Q353.3125,576.0156 353.3125,578.1094 Q353.3125,580.2031 354,581.2813 Q354.6875,582.3438 356.0313,582.3438 Q356.6563,582.3438 357.25,582.0781 Q357.8438,581.7969 358.4688,581.2188 L358.4688,583.9375 Z " fill="#000000"/><text fill="#000000" font-family="sans-serif" font-size="14" lengthAdjust="spacing" textLength="48.8223" x="369.5" y="583.1436">Parada</text><line style="stroke:#181818;stroke-width:0.5;" x1="341.5" x2="420.3223" y1="594.2969" y2="594.2969"/><line style="stroke:#181818;stroke-width:0.5;" x1="341.5" x2="420.3223" y1="602.2969" y2="602.2969"/></g><!--class Flota--><g id="elem_Flota"><rect codeLine="34" fill="#F1F1F1" height="48" id="Flota" rx="2.5" ry="2.5" style="stroke:#181818;stroke-width:0.5;" width="66.5762" x="168.5" y="437.2969"/><ellipse cx="183.5" cy="453.2969" fill="#ADD1B2" rx="11" ry="11" style="stroke:#181818;stroke-width:1.0;"/><path d="M186.4688,458.9375 Q185.8906,459.2344 185.25,459.375 Q184.6094,459.5313 183.9063,459.5313 Q181.4063,459.5313 180.0781,457.8906 Q178.7656,456.2344 178.7656,453.1094 Q178.7656,449.9844 180.0781,448.3281 Q181.4063,446.6719 183.9063,446.6719 Q184.6094,446.6719 185.25,446.8281 Q185.9063,446.9844 186.4688,447.2813 L186.4688,450 Q185.8438,449.4219 185.25,449.1563 Q184.6563,448.875 184.0313,448.875 Q182.6875,448.875 182,449.9531 Q181.3125,451.0156 181.3125,453.1094 Q181.3125,455.2031 182,456.2813 Q182.6875,457.3438 184.0313,457.3438 Q184.6563,457.3438 185.25,457.0781 Q185.8438,456.7969 186.4688,456.2188 L186.4688,458.9375 Z " fill="#000000"/><text fill="#000000" font-family="sans-serif" font-size="14" lengthAdjust="spacing" textLength="34.5762" x="197.5" y="458.1436">Flota</text><line style="stroke:#181818;stroke-width:0.5;" x1="169.5" x2="234.0762" y1="469.2969" y2="469.2969"/><line style="stroke:#181818;stroke-width:0.5;" x1="169.5" x2="234.0762" y1="477.2969" y2="477.2969"/></g><!--class Servicio--><g id="elem_Servicio"><rect codeLine="37" fill="#F1F1F1" height="48" id="Servicio" rx="2.5" ry="2.5" style="stroke:#181818;stroke-width:0.5;" width="87.583" x="22" y="312.2969"/><ellipse cx="37" cy="328.2969" fill="#ADD1B2" rx="11" ry="11" style="stroke:#181818;stroke-width:1.0;"/><path d="M39.9688,333.9375 Q39.3906,334.2344 38.75,334.375 Q38.1094,334.5313 37.4063,334.5313 Q34.9063,334.5313 33.5781,332.8906 Q32.2656,331.2344 32.2656,328.1094 Q32.2656,324.9844 33.5781,323.3281 Q34.9063,321.6719 37.4063,321.6719 Q38.1094,321.6719 38.75,321.8281 Q39.4063,321.9844 39.9688,322.2813 L39.9688,325 Q39.3438,324.4219 38.75,324.1563 Q38.1563,323.875 37.5313,323.875 Q36.1875,323.875 35.5,324.9531 Q34.8125,326.0156 34.8125,328.1094 Q34.8125,330.2031 35.5,331.2813 Q36.1875,332.3438 37.5313,332.3438 Q38.1563,332.3438 38.75,332.0781 Q39.3438,331.7969 39.9688,331.2188 L39.9688,333.9375 Z " fill="#000000"/><text fill="#000000" font-family="sans-serif" font-size="14" lengthAdjust="spacing" textLength="55.583" x="51" y="333.1436">Servicio</text><line style="stroke:#181818;stroke-width:0.5;" x1="23" x2="108.583" y1="344.2969" y2="344.2969"/><line style="stroke:#181818;stroke-width:0.5;" x1="23" x2="108.583" y1="352.2969" y2="352.2969"/></g><!--class Incidencia--><g id="elem_Incidencia"><rect codeLine="40" fill="#F1F1F1" height="48" id="Incidencia" rx="2.5" ry="2.5" style="stroke:#181818;stroke-width:0.5;" width="103.1279" x="565.5" y="437.2969"/><ellipse cx="580.5" cy="453.2969" fill="#ADD1B2" rx="11" ry="11" style="stroke:#181818;stroke-width:1.0;"/><path d="M583.4688,458.9375 Q582.8906,459.2344 582.25,459.375 Q581.6094,459.5313 580.9063,459.5313 Q578.4063,459.5313 577.0781,457.8906 Q575.7656,456.2344 575.7656,453.1094 Q575.7656,449.9844 577.0781,448.3281 Q578.4063,446.6719 580.9063,446.6719 Q581.6094,446.6719 582.25,446.8281 Q582.9063,446.9844 583.4688,447.2813 L583.4688,450 Q582.8438,449.4219 582.25,449.1563 Q581.6563,448.875 581.0313,448.875 Q579.6875,448.875 579,449.9531 Q578.3125,451.0156 578.3125,453.1094 Q578.3125,455.2031 579,456.2813 Q579.6875,457.3438 581.0313,457.3438 Q581.6563,457.3438 582.25,457.0781 Q582.8438,456.7969 583.4688,456.2188 L583.4688,458.9375 Z " fill="#000000"/><text fill="#000000" font-family="sans-serif" font-size="14" lengthAdjust="spacing" textLength="71.1279" x="594.5" y="458.1436">Incidencia</text><line style="stroke:#181818;stroke-width:0.5;" x1="566.5" x2="667.6279" y1="469.2969" y2="469.2969"/><line style="stroke:#181818;stroke-width:0.5;" x1="566.5" x2="667.6279" y1="477.2969" y2="477.2969"/></g><!--class Estadistica--><g id="elem_Estadistica"><rect codeLine="43" fill="#F1F1F1" height="48" id="Estadistica" rx="2.5" ry="2.5" style="stroke:#181818;stroke-width:0.5;" width="107.9336" x="22" y="437.2969"/><ellipse cx="37" cy="453.2969" fill="#ADD1B2" rx="11" ry="11" style="stroke:#181818;stroke-width:1.0;"/><path d="M39.9688,458.9375 Q39.3906,459.2344 38.75,459.375 Q38.1094,459.5313 37.4063,459.5313 Q34.9063,459.5313 33.5781,457.8906 Q32.2656,456.2344 32.2656,453.1094 Q32.2656,449.9844 33.5781,448.3281 Q34.9063,446.6719 37.4063,446.6719 Q38.1094,446.6719 38.75,446.8281 Q39.4063,446.9844 39.9688,447.2813 L39.9688,450 Q39.3438,449.4219 38.75,449.1563 Q38.1563,448.875 37.5313,448.875 Q36.1875,448.875 35.5,449.9531 Q34.8125,451.0156 34.8125,453.1094 Q34.8125,455.2031 35.5,456.2813 Q36.1875,457.3438 37.5313,457.3438 Q38.1563,457.3438 38.75,457.0781 Q39.3438,456.7969 39.9688,456.2188 L39.9688,458.9375 Z " fill="#000000"/><text fill="#000000" font-family="sans-serif" font-size="14" lengthAdjust="spacing" textLength="75.9336" x="51" y="458.1436">Estadistica</text><line style="stroke:#181818;stroke-width:0.5;" x1="23" x2="128.9336" y1="469.2969" y2="469.2969"/><line style="stroke:#181818;stroke-width:0.5;" x1="23" x2="128.9336" y1="477.2969" y2="477.2969"/></g><!--reverse link Persona to Pasajero--><g id="link_Persona_Pasajero"><path codeLine="47" d="M418.6708,139.3017 C436.4508,157.2417 448.28,169.1869 466.04,187.1269 " fill="none" id="Persona-backto-Pasajero" style="stroke:#181818;stroke-width:1.0;"/><polygon fill="none" points="406,126.5169,414.4092,143.5253,422.9324,135.0781,406,126.5169" style="stroke:#181818;stroke-width:1.0;"/></g><!--reverse link Persona to Conductor--><g id="link_Persona_Conductor"><path codeLine="48" d="M367.3065,143.2697 C360.2565,161.2097 357.14,169.1869 350.1,187.1269 " fill="none" id="Persona-backto-Conductor" style="stroke:#181818;stroke-width:1.0;"/><polygon fill="none" points="373.89,126.5169,361.7222,141.0752,372.8908,145.4642,373.89,126.5169" style="stroke:#181818;stroke-width:1.0;"/></g><!--link Pasajero to Tarifa--><g id="link_Pasajero_Tarifa"><path codeLine="50" d="M520.6,235.4369 C550.64,257.4269 590.7091,286.7621 620.6991,308.7221 " fill="none" id="Pasajero-to-Tarifa" style="stroke:#181818;stroke-width:1.0;"/><polygon fill="#181818" points="625.54,312.2669,620.6418,303.7225,621.5059,309.3129,615.9154,310.177,625.54,312.2669" style="stroke:#181818;stroke-width:1.0;"/><text fill="#000000" font-family="sans-serif" font-size="13" lengthAdjust="spacing" textLength="32.4365" x="584" y="278.3638">paga</text></g><!--link MetodoPago to Tarifa--><g id="link_MetodoPago_Tarifa"><path codeLine="51" d="M637.51,235.4369 C641.81,257.4269 647.0696,284.4182 651.3596,306.3782 " fill="none" id="MetodoPago-to-Tarifa" style="stroke:#181818;stroke-width:1.0;"/><polygon fill="#181818" points="652.51,312.2669,654.7102,302.6669,651.5513,307.3596,646.8586,304.2008,652.51,312.2669" style="stroke:#181818;stroke-width:1.0;"/><text fill="#000000" font-family="sans-serif" font-size="13" lengthAdjust="spacing" textLength="38.5557" x="647" y="278.3638">aplica</text></g><!--link Abono to MetodoPago--><g id="link_Abono_MetodoPago"><path codeLine="52" d="M633,126.5169 C633,144.4569 633,151.1869 633,169.1269 " fill="none" id="Abono-to-MetodoPago" style="stroke:#181818;stroke-width:1.0;"/><polygon fill="none" points="633,187.1269,639,169.1269,627,169.1269,633,187.1269" style="stroke:#181818;stroke-width:1.0;"/></g><!--link Conductor to Vehiculo--><g id="link_Conductor_Vehiculo"><path codeLine="54" d="M332.72,235.4369 C324.86,257.4269 315.1096,284.657 307.2596,306.617 " fill="none" id="Conductor-to-Vehiculo" style="stroke:#181818;stroke-width:1.0;"/><polygon fill="#181818" points="305.24,312.2669,312.0361,305.1385,306.923,307.5587,304.5029,302.4456,305.24,312.2669" style="stroke:#181818;stroke-width:1.0;"/><text fill="#000000" font-family="sans-serif" font-size="13" lengthAdjust="spacing" textLength="37.5146" x="322" y="278.3638">opera</text></g><!--link Conductor to Ruta--><g id="link_Conductor_Ruta"><path codeLine="55" d="M288.74,233.5269 C256.2,249.8169 217.04,275.7569 198,312.2969 C188.14,331.2169 185.36,343.1069 198,360.2969 C224.48,396.3169 264.8,356.4569 294,390.2969 C305.01,403.0569 307.4578,416.2073 307.2878,431.2573 " fill="none" id="Conductor-to-Ruta" style="stroke:#181818;stroke-width:1.0;"/><polygon fill="#181818" points="307.22,437.2569,311.3214,428.3026,307.2765,432.2572,303.3219,428.2123,307.22,437.2569" style="stroke:#181818;stroke-width:1.0;"/><text fill="#000000" font-family="sans-serif" font-size="13" lengthAdjust="spacing" textLength="34.874" x="199" y="340.8638">sigue</text></g><!--link Conductor to Incidencia--><g id="link_Conductor_Incidencia"><path codeLine="56" d="M352.94,235.3469 C371.32,268.4069 409.72,328.7669 460,360.2969 C510.23,391.8069 545.22,351.4369 590,390.2969 C603.67,402.1669 609.193,415.9122 612.533,431.3722 " fill="none" id="Conductor-to-Incidencia" style="stroke:#181818;stroke-width:1.0;"/><polygon fill="#181818" points="613.8,437.2369,615.8093,427.5952,612.7442,432.3496,607.9897,429.2845,613.8,437.2369" style="stroke:#181818;stroke-width:1.0;"/><text fill="#000000" font-family="sans-serif" font-size="13" lengthAdjust="spacing" textLength="47.9565" x="461" y="340.8638">reporta</text></g><!--link Vehiculo to Incidencia--><g id="link_Vehiculo_Incidencia"><path codeLine="58" d="M343.24,351.9069 C390.31,366.8169 457.2,388.0569 463,390.2969 C499.58,404.3969 534.4749,420.243 564.6749,434.653 " fill="none" id="Vehiculo-to-Incidencia" style="stroke:#181818;stroke-width:1.0;"/><polygon fill="#181818" points="570.09,437.2369,563.6899,429.751,565.5774,435.0837,560.2447,436.9712,570.09,437.2369" style="stroke:#181818;stroke-width:1.0;"/><text fill="#000000" font-family="sans-serif" font-size="13" lengthAdjust="spacing" textLength="79.5488" x="502" y="403.3638">puede tener</text></g><!--link Incidencia to Pasajero--><g id="link_Incidencia_Pasajero"><path codeLine="59" d="M624.02,437.0369 C626.97,422.4569 627.93,403.9169 619,390.2969 C600.66,362.3269 573.42,384.1669 550,360.2969 C515.36,324.9869 499.4,267.2269 492.89,235.3069 " fill="none" id="Incidencia-Pasajero" style="stroke:#181818;stroke-width:1.0;stroke-dasharray:7.0,7.0;"/><text fill="#000000" font-family="sans-serif" font-size="13" lengthAdjust="spacing" textLength="52.7046" x="551" y="340.8638">impacta</text></g><!--link Pasajero to Vehiculo--><g id="link_Pasajero_Vehiculo"><path codeLine="61" d="M452.89,235.4369 C418.56,257.4269 372.2718,287.0697 338.0018,309.0297 " fill="none" id="Pasajero-to-Vehiculo" style="stroke:#181818;stroke-width:1.0;"/><polygon fill="#181818" points="332.95,312.2669,342.6858,310.779,337.1598,309.5692,338.3696,304.0433,332.95,312.2669" style="stroke:#181818;stroke-width:1.0;"/><text fill="#000000" font-family="sans-serif" font-size="13" lengthAdjust="spacing" textLength="38.9619" x="405" y="278.3638">utiliza</text></g><!--link Ruta to Horario--><g id="link_Ruta_Horario"><path codeLine="62" d="M272.15,475.2169 C255.08,483.8069 235.79,496.9369 226,515.2969 C218.39,529.5669 218.3275,542.0206 221.1575,556.3506 " fill="none" id="Ruta-to-Horario" style="stroke:#181818;stroke-width:1.0;"/><polygon fill="#181818" points="222.32,562.2369,224.5005,552.6324,221.3513,557.3316,216.6521,554.1824,222.32,562.2369" style="stroke:#181818;stroke-width:1.0;"/><text fill="#000000" font-family="sans-serif" font-size="13" lengthAdjust="spacing" textLength="110.1572" x="227" y="528.3638">est&#225; definida por</text></g><!--link Ruta to Parada--><g id="link_Ruta_Parada"><path codeLine="63" d="M321.91,485.4369 C328.41,494.5969 335.75,505.3069 342,515.2969 C351.59,530.6269 358.6572,543.1631 366.0872,556.9731 " fill="none" id="Ruta-to-Parada" style="stroke:#181818;stroke-width:1.0;"/><polygon fill="#181818" points="368.93,562.2569,368.1884,552.436,366.561,557.8537,361.1433,556.2263,368.93,562.2569" style="stroke:#181818;stroke-width:1.0;"/><text fill="#000000" font-family="sans-serif" font-size="13" lengthAdjust="spacing" textLength="46.541" x="353" y="528.3638">incluye</text></g><!--link Vehiculo to Ruta--><g id="link_Vehiculo_Ruta"><path codeLine="64" d="M343.1,352.1769 C372.46,362.6969 406.52,377.1969 415,390.2969 C436.52,423.5569 383.0505,442.6408 343.3605,452.2808 " fill="none" id="Vehiculo-to-Ruta" style="stroke:#181818;stroke-width:1.0;"/><polygon fill="#181818" points="337.53,453.6969,347.2198,455.4597,342.3887,452.5168,345.3317,447.6857,337.53,453.6969" style="stroke:#181818;stroke-width:1.0;"/><text fill="#000000" font-family="sans-serif" font-size="13" lengthAdjust="spacing" textLength="34.874" x="420" y="403.3638">sigue</text></g><!--link Vehiculo to Flota--><g id="link_Vehiculo_Flota"><path codeLine="66" d="M307.63,360.6169 C312.52,375.0369 315.56,393.3869 307,407.2969 C302.83,414.0769 270.2159,429.8021 241.1059,442.9821 " fill="none" id="Vehiculo-to-Flota" style="stroke:#181818;stroke-width:1.0;"/><polygon fill="#181818" points="235.64,445.4569,245.4886,445.3887,240.1949,443.3946,242.189,438.1008,235.64,445.4569" style="stroke:#181818;stroke-width:1.0;"/><text fill="#000000" font-family="sans-serif" font-size="13" lengthAdjust="spacing" textLength="66.0728" x="313" y="403.3638">pertenece</text></g><!--link Servicio to Ruta--><g id="link_Servicio_Ruta"><path codeLine="67" d="M110.29,351.7069 C137.43,361.2269 172.51,374.7869 202,390.2969 C227.83,403.8869 250.2245,419.0547 270.1945,433.7247 " fill="none" id="Servicio-to-Ruta" style="stroke:#181818;stroke-width:1.0;"/><polygon fill="#181818" points="275.03,437.2769,270.1449,428.725,271.0004,434.3167,265.4086,435.1723,275.03,437.2769" style="stroke:#181818;stroke-width:1.0;"/><text fill="#000000" font-family="sans-serif" font-size="13" lengthAdjust="spacing" textLength="56.1577" x="229" y="403.3638">organiza</text></g><!--link Servicio to Flota--><g id="link_Servicio_Flota"><path codeLine="68" d="M90.45,360.5369 C105.02,374.2669 123.93,391.9169 141,407.2969 C152.05,417.2469 159.8707,424.1233 170.5607,433.3633 " fill="none" id="Servicio-to-Flota" style="stroke:#181818;stroke-width:1.0;"/><polygon fill="#181818" points="175.1,437.2869,170.9068,428.3753,171.3172,434.0172,165.6753,434.4277,175.1,437.2869" style="stroke:#181818;stroke-width:1.0;"/><text fill="#000000" font-family="sans-serif" font-size="13" lengthAdjust="spacing" textLength="55.8911" x="142" y="403.3638">gestiona</text></g><!--link Servicio to Estadistica--><g id="link_Servicio_Estadistica"><path codeLine="70" d="M57.77,360.3669 C53.96,374.0469 50.89,391.6969 54,407.2969 C56.03,417.4569 57.5987,422.626 61.6387,431.696 " fill="none" id="Servicio-to-Estadistica" style="stroke:#181818;stroke-width:1.0;"/><polygon fill="#181818" points="64.08,437.1769,64.0719,427.328,62.0456,432.6095,56.7641,430.5831,64.08,437.1769" style="stroke:#181818;stroke-width:1.0;"/><text fill="#000000" font-family="sans-serif" font-size="13" lengthAdjust="spacing" textLength="45.7983" x="55" y="403.3638">genera</text></g><!--SRC=[VLBBJiCm4BpdArQzfnyGeKe8WU20LD6A-zRPXWNNZcm72MW_XW_W1xZsnt0UJXt5eeSSEhEpuzbnx2J1XgsZ0yBMeBArDevWVVxTIHOQShZH2cwjm_ByOnqBj5bMetZ3Yc3np-G2lZBmFo7HMbYJiLhXyDyfYo6q-4f6fp2_kso4qoO5Rj7mFYdvI4wNUerLKlHwfrKIUAON5erCOa-DIwwwryRRqEc76IoJGtTIfzKsPDvPfEKUbE2I_2SvsLs8kmCDSCm9yLyTytmCV8wCSGzJuJ9vlWff5r1ZXHqSfJmXOEtltrFwgFFyk8hOlVZbjEtm67q1kYQ32KftWG8iLmqbu2YU0WorPSH-qwWzezKDbGIE59cE6O7BvUNv1V31LpxeJMA9Z3UE9N_srZkpBHxwKG1PT_w6alQisDV26vmoXxhuPKh8veFctYS9pE6-LVvLPDedYLvXh5Iae4s5AbYT4896vTsoxqKsfyHDQucgFTVf3m00]--></g></svg>